ArefRuqaa.glyphspackage
{
glyphname = exclam;
layers = (
{
attr = {
color = 1;
};
layerId = "1467EB51-6BD4-4CFC-AEAA-3E4EB1A95CFA";
name = Regular;
shapes = (
{
attr = {
gradient = {
colors = (
(
(210,46,31,128),
0
),
(
(210,46,31,255),
1
)
);
end = (-0.3618,0.3448);
start = (1.0152,0.1787);
};
};
closed = 1;
nodes = (
(210,366,o),
(188,296,o),
(159,238,cs),
(151,222,o),
(145,204,o),
(132,194,cs),
(123,187,o),
(124,200,o),
(124,202,cs),
(154,382,o),
(104,531,o),
(48,639,cs),
(44,647,o),
(23,677,o),
(26,684,cs),
(44,731,o),
(66,776,o),
(86,824,c),
(136,717,o),
(192,617,o),
(203,464,cs)
);
},
{
attr = {
gradient = {
colors = (
(
(210,46,31,128),
0
),
(
(210,46,31,255),
1
)
);
end = (0.2902,0.7216);
start = (0.7235,0.2946);
};
};
closed = 1;
nodes = (
(138,177,l),
(141,181,o),
(146,180,o),
(150,177,c),
(223,107,l),
(227,104,o),
(226,99,o),
(223,95,c),
(135,3,l),
(132,-1,o),
(126,0,o),
(122,3,c),
(50,73,l),
(46,76,o),
(46,81,o),
(49,85,c)
);
}
);
width = 253;
},
{
attr = {
color = 1;
};
layerId = "EF321139-F770-433D-B2B6-C3EFA1B16465";
name = Bold;
shapes = (
{
attr = {
gradient = {
colors = (
(
(210,46,31,128),
0
),
(
(210,46,31,255),
1
)
);
end = (0.2902,0.7216);
start = (0.7235,0.2946);
};
};
closed = 1;
nodes = (
(138,177,ls),
(140,179,o),
(143,180,o),
(145,180,cs),
(147,180,o),
(148,179,o),
(150,177,cs),
(223,107,ls),
(225,105,o),
(227,103,o),
(227,101,cs),
(227,99,o),
(226,97,o),
(224,95,cs),
(135,3,ls),
(133,1,o),
(130,0,o),
(128,0,cs),
(126,0,o),
(125,0,o),
(123,2,cs),
(50,73,ls),
(48,75,o),
(46,77,o),
(46,79,cs),
(46,81,o),
(47,83,o),
(49,85,cs)
);
},
{
attr = {
gradient = {
colors = (
(
(210,46,31,128),
0
),
(
(210,46,31,255),
1
)
);
end = (-0.3618,0.3448);
start = (1.0152,0.1787);
};
};
closed = 1;
nodes = (
(187,598,o),
(205,518,o),
(205,427,cs),
(205,349,o),
(184,289,o),
(159,238,cs),
(152,223,o),
(144,203,o),
(132,193,cs),
(130,191,o),
(128,191,o),
(127,191,cs),
(125,191,o),
(125,192,o),
(125,194,cs),
(124,198,o),
(124,201,o),
(124,202,cs),
(131,241,o),
(134,279,o),
(134,316,cs),
(134,362,o),
(128,406,o),
(118,447,cs),
(96,531,o),
(71,602,o),
(35,662,cs),
(29,671,o),
(26,679,o),
(26,683,cs),
(26,684,l),
(44,732,o),
(66,778,o),
(86,825,c),
(111,771,o),
(136,716,o),
(160,661,cs)
);
}
);
width = 253;
}
);
unicode = 33;
}
{
glyphname = quotedbl;
layers = (
{
layerId = "1467EB51-6BD4-4CFC-AEAA-3E4EB1A95CFA";
shapes = (
{
closed = 1;
nodes = (
(97,432,l),
(77,584,ls),
(74,608,o),
(72,633,o),
(72,657,cs),
(72,678,o),
(81,695,o),
(106,695,cs),
(120,695,o),
(139,689,o),
(139,675,cs),
(139,623,l),
(118,432,l)
);
},
{
closed = 1;
nodes = (
(218,432,l),
(196,625,ls),
(194,639,o),
(191,663,o),
(191,668,cs),
(191,687,o),
(212,692,o),
(230,692,cs),
(241,692,o),
(259,686,o),
(259,673,cs),
(259,657,o),
(259,641,o),
(258,626,cs),
(239,432,l)
);
}
);
width = 333;
},
{
layerId = "EF321139-F770-433D-B2B6-C3EFA1B16465";
shapes = (
{
closed = 1;
nodes = (
(102,432,l),
(79,584,ls),
(75,608,o),
(72,633,o),
(72,657,cs),
(72,679,o),
(85,695,o),
(113,695,cs),
(128,695,o),
(152,689,o),
(152,675,cs),
(152,623,l),
(127,432,l)
);
},
{
closed = 1;
nodes = (
(245,432,l),
(219,625,ls),
(217,639,o),
(213,663,o),
(213,668,cs),
(213,687,o),
(239,692,o),
(259,692,cs),
(273,692,o),
(293,686,o),
(293,673,cs),
(293,657,o),
(294,641,o),
(292,626,cs),
(270,432,l)
);
}
);
width = 368;
}
);
unicode = 34;
}
{
glyphname = quotesingle;
layers = (
{
layerId = "1467EB51-6BD4-4CFC-AEAA-3E4EB1A95CFA";
shapes = (
{
closed = 1;
nodes = (
(94,436,l),
(76,629,ls),
(75,641,o),
(74,653,o),
(74,666,cs),
(74,685,o),
(91,695,o),
(110,695,cs),
(131,695,o),
(140,681,o),
(140,662,cs),
(140,651,o),
(138,635,o),
(136,622,cs),
(110,436,l)
);
}
);
width = 210;
},
{
layerId = "EF321139-F770-433D-B2B6-C3EFA1B16465";
shapes = (
{
closed = 1;
nodes = (
(98,436,l),
(76,629,ls),
(75,641,o),
(74,653,o),
(74,666,cs),
(74,685,o),
(96,695,o),
(117,695,cs),
(140,695,o),
(153,682,o),
(153,662,cs),
(153,651,o),
(150,635,o),
(148,622,cs),
(117,436,l)
);
}
);
width = 222;
}
);
unicode = 39;
}
{
glyphname = parenleft;
layers = (
{
attr = {
color = 1;
};
layerId = "1467EB51-6BD4-4CFC-AEAA-3E4EB1A95CFA";
shapes = (
{
attr = {
gradient = {
colors = (
(
(210,46,31,255),
0
),
(
(210,46,31,128),
1
)
);
end = (1.0898,0.5802);
start = (0.2631,0.5765);
};
};
closed = 1;
nodes = (
(246,-163,c),
(246,-187,l),
(141,-178,o),
(93,-57,o),
(76,38,cs),
(62,118,o),
(58,199,o),
(58,280,cs),
(58,357,o),
(63,435,o),
(78,510,cs),
(97,606,o),
(142,720,o),
(246,738,c),
(246,711,l),
(119,679,o),
(110,425,o),
(110,274,cs),
(110,105,o),
(117,-138,o)
);
}
);
width = 257;
},
{
attr = {
color = 1;
};
layerId = "EF321139-F770-433D-B2B6-C3EFA1B16465";
shapes = (
{
attr = {
gradient = {
colors = (
(
(210,46,31,255),
0
),
(
(210,46,31,128),
1
)
);
end = (1.0898,0.5802);
start = (0.2631,0.5765);
};
};
closed = 1;
nodes = (
(271,-172,c),
(271,-186,l),
(151,-169,o),
(100,-58,o),
(79,38,cs),
(62,118,o),
(58,199,o),
(58,280,cs),
(58,357,o),
(63,435,o),
(81,510,cs),
(104,606,o),
(149,706,o),
(271,738,c),
(271,719,l),
(129,657,o),
(118,430,o),
(118,274,cs),
(118,188,o),
(122,102,o),
(139,18,cs),
(152,-45,o),
(185,-151,o)
);
}
);
width = 286;
}
);
unicode = 40;
}
{
glyphname = parenright;
layers = (
{
attr = {
color = 1;
};
layerId = "1467EB51-6BD4-4CFC-AEAA-3E4EB1A95CFA";
shapes = (
{
attr = {
gradient = {
colors = (
(
(210,46,31,255),
0
),
(
(210,46,31,128),
1
)
);
end = (-0.0811,0.5719);
start = (0.7442,0.5769);
};
};
closed = 1;
nodes = (
(11,709,c),
(11,736,l),
(180,701,o),
(201,439,o),
(201,272,cs),
(201,101,o),
(190,-166,o),
(11,-189,c),
(11,-165,l),
(57,-153,o),
(95,-127,o),
(115,-67,cs),
(151,40,o),
(149,162,o),
(149,276,cs),
(149,354,o),
(145,434,o),
(130,511,cs),
(115,586,o),
(92,680,o)
);
}
);
width = 259;
},
{
attr = {
color = 1;
};
layerId = "EF321139-F770-433D-B2B6-C3EFA1B16465";
shapes = (
{
attr = {
gradient = {
colors = (
(
(210,46,31,255),
0
),
(
(210,46,31,128),
1
)
);
end = (-0.0811,0.5719);
start = (0.7442,0.5769);
};
};
closed = 1;
nodes = (
(16,715,c),
(16,735,l),
(211,701,o),
(237,438,o),
(237,272,cs),
(237,188,o),
(232,103,o),
(213,20,cs),
(191,-75,o),
(152,-164,o),
(16,-187,c),
(16,-171,l),
(70,-152,o),
(115,-130,o),
(138,-69,cs),
(177,34,o),
(175,162,o),
(175,276,cs),
(175,355,o),
(170,434,o),
(152,511,cs),
(134,588,o),
(105,678,o)
);
}
);
width = 295;
}
);
unicode = 41;
}
{
glyphname = period;
layers = (
{
attr = {
color = 1;
};
layerId = "1467EB51-6BD4-4CFC-AEAA-3E4EB1A95CFA";
shapes = (
{
attr = {
gradient = {
colors = (
(
(210,46,31,128),
0
),
(
(210,46,31,255),
1
)
);
end = (0,0);
start = (0.5001,0.5008);
type = circle;
};
};
closed = 1;
nodes = (
(69,52,cs),
(69,89,o),
(99,119,o),
(136,119,cs),
(173,119,o),
(203,89,o),
(203,52,cs),
(203,15,o),
(173,-15,o),
(136,-15,cs),
(99,-15,o),
(69,15,o)
);
}
);
width = 272;
},
{
attr = {
color = 1;
};
layerId = "EF321139-F770-433D-B2B6-C3EFA1B16465";
shapes = (
{
attr = {
gradient = {
colors = (
(
(210,46,31,128),
0
),
(
(210,46,31,255),
1
)
);
end = (0,0);
start = (0.5001,0.5008);
type = circle;
};
};
closed = 1;
nodes = (
(69,56,cs),
(69,95,o),
(101,127,o),
(140,127,cs),
(178,127,o),
(210,95,o),
(210,56,cs),
(210,18,o),
(178,-14,o),
(140,-14,cs),
(101,-14,o),
(69,18,o)
);
}
);
width = 280;
}
);
unicode = 46;
}
{
glyphname = colon;
layers = (
{
attr = {
color = 1;
};
layerId = "1467EB51-6BD4-4CFC-AEAA-3E4EB1A95CFA";
shapes = (
{
attr = {
gradient = {
colors = (
(
(210,46,31,128),
0
),
(
(210,46,31,255),
1
)
);
end = (0,0);
start = (0.5001,0.5008);
type = circle;
};
};
closed = 1;
nodes = (
(35,45,cs),
(35,76,o),
(61,102,o),
(93,102,cs),
(124,102,o),
(149,76,o),
(149,45,cs),
(149,14,o),
(124,-12,o),
(93,-12,cs),
(61,-12,o),
(35,14,o)
);
},
{
attr = {
gradient = {
colors = (
(
(210,46,31,128),
0
),
(
(210,46,31,255),
1
)
);
end = (0,0);
start = (0.4925,0.4504);
type = circle;
};
};
closed = 1;
nodes = (
(35,398,cs),
(35,429,o),
(61,455,o),
(93,455,cs),
(124,455,o),
(149,429,o),
(149,398,cs),
(149,367,o),
(124,341,o),
(93,341,cs),
(61,341,o),
(35,367,o)
);
}
);
width = 184;
},
{
attr = {
color = 1;
};
layerId = "EF321139-F770-433D-B2B6-C3EFA1B16465";
shapes = (
{
attr = {
gradient = {
colors = (
(
(210,46,31,128),
0
),
(
(210,46,31,255),
1
)
);
end = (0,0);
start = (0.4978,0.4092);
type = circle;
};
};
closed = 1;
nodes = (
(115,478,cs),
(155,478,o),
(187,446,o),
(187,406,cs),
(187,366,o),
(155,334,o),
(115,334,cs),
(75,334,o),
(43,366,o),
(43,406,cs),
(43,446,o),
(75,478,o)
);
},
{
attr = {
gradient = {
colors = (
(
(210,46,31,128),
0
),
(
(210,46,31,255),
1
)
);
end = (0,0);
start = (0.5001,0.5008);
type = circle;
};
};
closed = 1;
nodes = (
(115,129,cs),
(155,129,o),
(188,97,o),
(188,57,cs),
(188,17,o),
(155,-16,o),
(115,-16,cs),
(76,-16,o),
(43,17,o),
(43,57,cs),
(43,97,o),
(76,129,o)
);
}
);
width = 230;
}
);
unicode = 58;
}
{
glyphname = bracketleft;
layers = (
{
attr = {
color = 1;
};
layerId = "1467EB51-6BD4-4CFC-AEAA-3E4EB1A95CFA";
shapes = (
{
attr = {
gradient = {
colors = (
(
(210,46,31,255),
0
),
(
(210,46,31,128),
1
)
);
end = (1.0898,0.5802);
start = (0.2631,0.5765);
};
};
closed = 1;
nodes = (
(247,712,l),
(128,699,l),
(128,-83,l),
(247,-96,l),
(247,-120,l),
(193,-120,o),
(140,-120,o),
(88,-125,c),
(88,741,l),
(127,736,o),
(193,736,o),
(247,736,c)
);
}
);
width = 258;
},
{
attr = {
color = 1;
};
layerId = "EF321139-F770-433D-B2B6-C3EFA1B16465";
shapes = (
{
attr = {
gradient = {
colors = (
(
(210,46,31,255),
0
),
(
(210,46,31,128),
1
)
);
end = (1.0898,0.5802);
start = (0.2631,0.5765);
};
};
closed = 1;
nodes = (
(280,712,l),
(140,699,l),
(140,-100,l),
(280,-100,l),
(280,-119,l),
(216,-119,o),
(153,-124,o),
(90,-130,c),
(90,741,l),
(136,736,o),
(216,736,o),
(280,736,c)
);
}
);
width = 297;
}
);
unicode = 91;
}
{
glyphname = bracketright;
layers = (
{
attr = {
color = 1;
};
layerId = "1467EB51-6BD4-4CFC-AEAA-3E4EB1A95CFA";
shapes = (
{
attr = {
gradient = {
colors = (
(
(210,46,31,255),
0
),
(
(210,46,31,128),
1
)
);
end = (-0.0811,0.5719);
start = (0.7442,0.5769);
};
};
closed = 1;
nodes = (
(130,699,l),
(11,712,l),
(11,736,l),
(65,736,o),
(131,736,o),
(170,741,c),
(170,-125,l),
(118,-120,o),
(65,-120,o),
(11,-120,c),
(11,-96,l),
(130,-83,l)
);
}
);
width = 258;
},
{
attr = {
color = 1;
};
layerId = "EF321139-F770-433D-B2B6-C3EFA1B16465";
shapes = (
{
attr = {
gradient = {
colors = (
(
(210,46,31,255),
0
),
(
(210,46,31,128),
1
)
);
end = (-0.0811,0.5719);
start = (0.7442,0.5769);
};
};
closed = 1;
nodes = (
(161,700,l),
(17,709,l),
(17,733,l),
(82,733,o),
(155,733,o),
(211,739,c),
(211,-132,l),
(147,-125,o),
(82,-124,o),
(17,-124,c),
(17,-103,l),
(161,-92,l)
);
}
);
width = 301;
}
);
unicode = 93;
}
{
glyphname = braceleft;
layers = (
{
attr = {
color = 1;
};
layerId = "1467EB51-6BD4-4CFC-AEAA-3E4EB1A95CFA";
shapes = (
{
attr = {
gradient = {
colors = (
(
(210,46,31,128),
0
),
(
(210,46,31,255),
1
)
);
end = (0,0);
start = (0.4305,0.5001);
type = circle;
};
};
closed = 1;
nodes = (
(303,-154,c),
(303,-178,l),
(264,-178,o),
(211,-178,o),
(187,-172,cs),
(112,-152,o),
(120,-67,o),
(120,34,cs),
(120,103,o),
(120,208,o),
(95,236,cs),
(76,257,o),
(39,259,o),
(8,259,c),
(8,285,l),
(47,285,o),
(71,286,o),
(93,305,cs),
(125,333,o),
(119,421,o),
(119,514,cs),
(119,729,o),
(143,730,o),
(303,730,c),
(303,706,l),
(274,706,o),
(243,705,o),
(216,698,cs),
(166,685,o),
(170,584,o),
(170,518,cs),
(170,385,o),
(149,297,o),
(85,274,c),
(85,273,l),
(177,241,o),
(170,121,o),
(170,30,cs),
(170,-152,o),
(206,-154,o)
);
}
);
width = 313;
},
{
attr = {
color = 1;
};
layerId = "EF321139-F770-433D-B2B6-C3EFA1B16465";
shapes = (
{
attr = {
gradient = {
colors = (
(
(210,46,31,128),
0
),
(
(210,46,31,255),
1
)
);
end = (0,0);
start = (0.4305,0.5001);
type = circle;
};
};
closed = 1;
nodes = (
(349,-161,c),
(349,-178,l),
(305,-178,o),
(245,-178,o),
(218,-172,cs),
(132,-152,o),
(142,-67,o),
(142,34,cs),
(142,103,o),
(142,208,o),
(114,236,cs),
(94,256,o),
(49,259,o),
(15,259,c),
(15,285,l),
(45,284,o),
(89,287,o),
(112,305,cs),
(155,340,o),
(134,542,o),
(142,620,cs),
(157,728,o),
(209,730,o),
(349,730,c),
(349,712,l),
(316,712,o),
(283,711,o),
(252,702,cs),
(196,685,o),
(199,589,o),
(199,518,cs),
(199,365,o),
(173,304,o),
(97,274,c),
(97,273,l),
(236,222,o),
(185,37,o),
(208,-89,cs),
(223,-162,o),
(289,-161,o)
);
}
);
width = 364;
}
);
unicode = 123;
}
{
glyphname = braceright;
layers = (
{
attr = {
color = 1;
};
layerId = "1467EB51-6BD4-4CFC-AEAA-3E4EB1A95CFA";
shapes = (
{
attr = {
gradient = {
colors = (
(
(210,46,31,128),
0
),
(
(210,46,31,255),
1
)
);
end = (0,0);
start = (0.5447,0.4949);
type = circle;
};
};
closed = 1;
nodes = (
(10,-175,c),
(10,-151,l),
(37,-151,o),
(67,-151,o),
(90,-145,cs),
(146,-132,o),
(143,-34,o),
(143,33,cs),
(143,120,o),
(136,243,o),
(228,276,c),
(228,277,l),
(191,290,o),
(159,330,o),
(150,398,cs),
(139,479,o),
(149,560,o),
(137,639,cs),
(122,713,o),
(72,709,o),
(10,709,c),
(10,733,l),
(88,732,o),
(141,735,o),
(168,701,cs),
(200,661,o),
(194,631,o),
(194,517,cs),
(194,324,o),
(198,288,o),
(305,288,c),
(305,262,l),
(287,263,o),
(268,261,o),
(251,257,cs),
(190,242,o),
(193,141,o),
(193,37,cs),
(193,-176,o),
(159,-175,o)
);
}
);
width = 313;
},
{
attr = {
color = 1;
};
layerId = "EF321139-F770-433D-B2B6-C3EFA1B16465";
shapes = (
{
attr = {
gradient = {
colors = (
(
(210,46,31,128),
0
),
(
(210,46,31,255),
1
)
);
end = (0,0);
start = (0.5447,0.4949);
type = circle;
};
};
closed = 1;
nodes = (
(14,-178,c),
(14,-161,l),
(44,-161,o),
(75,-160,o),
(104,-152,cs),
(164,-135,o),
(165,-41,o),
(165,30,cs),
(165,126,o),
(169,237,o),
(264,273,c),
(264,274,l),
(124,325,o),
(183,495,o),
(157,636,cs),
(142,715,o),
(77,712,o),
(14,712,c),
(14,730,l),
(61,730,o),
(129,730,o),
(153,723,cs),
(251,693,o),
(212,538,o),
(227,363,cs),
(236,289,o),
(289,285,o),
(348,285,c),
(348,259,l),
(314,259,o),
(269,256,o),
(249,236,cs),
(221,208,o),
(221,103,o),
(221,34,cs),
(221,-181,o),
(182,-178,o)
);
}
);
width = 363;
}
);
unicode = 125;
}
{
glyphname = "comma-ar";
layers = (
{
attr = {
color = 1;
};
layerId = "1467EB51-6BD4-4CFC-AEAA-3E4EB1A95CFA";
shapes = (
{
attr = {
gradient = {
colors = (
(
(210,46,31,128),
0
),
(
(210,46,31,255),
1
)
);
end = (0.5169,0.3742);
start = (0.1636,0.5296);
};
};
closed = 1;
nodes = (
(86,0,o),
(54,51,o),
(62,128,cs),
(69,200,o),
(97,295,o),
(130,389,c),
(161,419,l),
(159,409,o),
(150,372,o),
(133,308,cs),
(110,223,o),
(102,51,o),
(205,150,cs),
(212,157,o),
(220,151,o),
(220,143,cs),
(216,52,o),
(187,0,o),
(127,0,cs)
);
}
);
width = 278;
},
{
attr = {
color = 1;
};
layerId = "EF321139-F770-433D-B2B6-C3EFA1B16465";
shapes = (
{
attr = {
gradient = {
colors = (
(
(210,46,31,128),
0
),
(
(210,46,31,255),
1
)
);
end = (0.5169,0.3742);
start = (0.1636,0.5296);
};
};
closed = 1;
nodes = (
(105,-5,o),
(79,13,o),
(57,56,cs),
(52,68,o),
(49,82,o),
(49,100,cs),
(49,128,o),
(55,166,o),
(66,214,cs),
(77,262,o),
(95,320,o),
(118,389,c),
(118,387,l),
(118,389,o),
(121,395,o),
(122,396,cs),
(151,426,ls),
(159,434,o),
(172,426,o),
(171,415,cs),
(163,357,o),
(129,283,o),
(129,209,cs),
(129,184,o),
(133,160,o),
(143,146,cs),
(146,142,o),
(148,140,o),
(152,140,cs),
(162,140,o),
(177,149,o),
(196,167,c),
(209,172,o),
(218,172,o),
(223,166,cs),
(227,162,o),
(229,156,o),
(229,149,cs),
(224,75,o),
(202,7,o),
(137,1,c)
);
}
);
width = 278;
}
);
unicode = 1548;
}
{
glyphname = "semicolon-ar";
layers = (
{
attr = {
color = 1;
};
layerId = "1467EB51-6BD4-4CFC-AEAA-3E4EB1A95CFA";
name = Regular;
shapes = (
{
attr = {
gradient = {
colors = (
(
(210,46,31,128),
0
),
(
(210,46,31,255),
1
)
);
end = (0.2902,0.7216);
start = (0.7235,0.2946);
};
};
closed = 1;
nodes = (
(146,177,ls),
(150,181,o),
(154,181,o),
(158,177,cs),
(230,107,ls),
(234,103,o),
(235,99,o),
(231,95,cs),
(142,3,ls),
(138,-1,o),
(134,-2,o),
(130,2,cs),
(57,73,ls),
(53,77,o),
(53,81,o),
(57,85,cs)
);
},
{
pos = (0,229);
ref = "comma-ar";
}
);
width = 278;
},
{
attr = {
color = 1;
};
layerId = "EF321139-F770-433D-B2B6-C3EFA1B16465";
name = Bold;
shapes = (
{
attr = {
gradient = {
colors = (
(
(210,46,31,128),
0
),
(
(210,46,31,255),
1
)
);
end = (0.2902,0.7216);
start = (0.7235,0.2946);
};
};
closed = 1;
nodes = (
(135,190,l),
(139,195,o),
(145,198,o),
(151,198,cs),
(156,198,o),
(159,197,o),
(162,195,c),
(235,124,ls),
(240,119,o),
(242,114,o),
(242,109,cs),
(242,104,o),
(240,99,o),
(236,95,cs),
(150,6,ls),
(146,2,o),
(142,0,o),
(136,0,cs),
(130,0,o),
(127,2,o),
(123,5,c),
(52,74,l),
(52,73,l),
(47,77,o),
(44,82,o),
(44,88,cs),
(44,93,o),
(47,99,o),
(51,103,c),
(51,102,l),
(136,190,l)
);
},
{
pos = (0,221);
ref = "comma-ar";
}
);
width = 278;
}
);
unicode = 1563;
}
{
glyphname = "question-ar";
layers = (
{
attr = {
color = 1;
};
layerId = "1467EB51-6BD4-4CFC-AEAA-3E4EB1A95CFA";
name = Regular;
shapes = (
{
attr = {
gradient = {
colors = (
(
(210,46,31,128),
0
),
(
(210,46,31,255),
1
)
);
end = (-0.3618,0.3448);
start = (1.0152,0.1787);
};
};
closed = 1;
nodes = (
(308,712,o),
(296,669,o),
(278,629,cs),
(274,621,o),
(256,612,o),
(255,625,cs),
(252,669,o),
(218,697,o),
(173,699,cs),
(140,700,o),
(111,691,o),
(89,674,c),
(99,624,o),
(135,594,o),
(165,563,cs),
(211,516,o),
(255,464,o),
(264,380,c),
(261,302,o),
(229,249,o),
(201,195,cs),
(199,191,o),
(189,190,o),
(191,197,cs),
(222,298,o),
(175,385,o),
(122,433,cs),
(88,464,o),
(58,499,o),
(39,544,c),
(20,651,o),
(92,833,o),
(232,824,cs),
(272,821,o),
(297,796,o),
(313,768,cs),
(315,765,o),
(314,760,o),
(320,755,c)
);
},
{
attr = {
gradient = {
colors = (
(
(210,46,31,128),
0
),
(
(210,46,31,255),
1
)
);
end = (0.2902,0.7216);
start = (0.7235,0.2946);
};
};
closed = 1;
nodes = (
(195,177,l),
(198,181,o),
(203,180,o),
(207,177,c),
(280,107,l),
(284,104,o),
(283,99,o),
(280,95,c),
(192,3,l),
(189,-1,o),
(183,0,o),
(179,3,c),
(107,73,l),
(103,76,o),
(103,81,o),
(106,85,c)
);
}
);
width = 345;
},
{
attr = {
color = 1;
};
layerId = "EF321139-F770-433D-B2B6-C3EFA1B16465";
name = Bold;
shapes = (
{
attr = {
gradient = {
colors = (
(
(210,46,31,128),
0
),
(
(210,46,31,255),
1
)
);
end = (-0.3618,0.3448);
start = (1.0152,0.1787);
};
};
closed = 1;
nodes = (
(313,696,o),
(299,655,o),
(282,616,c),
(278,609,o),
(267,597,o),
(254,597,cs),
(244,597,o),
(239,603,o),
(237,615,cs),
(234,653,o),
(211,674,o),
(169,676,cs),
(164,676,ls),
(140,676,o),
(119,669,o),
(103,659,c),
(108,640,o),
(115,624,o),
(127,611,cs),
(142,595,o),
(156,580,o),
(171,565,cs),
(194,540,o),
(215,516,o),
(234,488,cs),
(254,459,o),
(266,422,o),
(270,380,c),
(267,299,o),
(236,249,o),
(208,193,c),
(205,190,o),
(198,185,o),
(193,185,cs),
(190,185,ls),
(181,185,o),
(176,190,o),
(176,199,cs),
(176,201,o),
(176,203,o),
(177,205,cs),
(184,227,o),
(187,248,o),
(187,267,cs),
(187,291,o),
(181,314,o),
(174,331,cs),
(158,365,o),
(136,398,o),
(112,422,cs),
(79,453,o),
(48,490,o),
(29,537,c),
(26,548,o),
(26,560,o),
(26,574,cs),
(26,619,o),
(39,668,o),
(66,721,cs),
(98,787,o),
(148,820,o),
(215,820,cs),
(219,820,o),
(219,820,o),
(222,820,cs),
(228,820,ls),
(274,817,o),
(304,787,o),
(319,754,c),
(319,753,o),
(319,753,o),
(320,752,c),
(324,739,l)
);
},
{
attr = {
gradient = {
colors = (
(
(210,46,31,128),
0
),
(
(210,46,31,255),
1
)
);
end = (0.2902,0.7216);
start = (0.7235,0.2946);
};
};
closed = 1;
nodes = (
(182,190,l),
(186,195,o),
(191,198,o),
(197,198,cs),
(202,198,o),
(206,197,o),
(208,195,cs),
(282,124,ls),
(287,119,o),
(289,114,o),
(289,109,cs),
(289,104,o),
(287,99,o),
(283,95,cs),
(197,6,ls),
(193,2,o),
(188,0,o),
(182,0,cs),
(177,0,o),
(173,2,o),
(169,5,c),
(98,74,l),
(99,73,ls),
(94,77,o),
(91,82,o),
(91,88,cs),
(91,93,o),
(93,98,o),
(97,103,c),
(97,102,l),
(183,190,l)
);
}
);
width = 345;
}
);
unicode = 1567;
}
{
glyphname = "hamza-ar";
layers = (
{
anchors = (
{
name = bottom;
pos = (119,-189);
},
{
name = bottom.mark;
pos = (149,-189);
},
{
name = top;
pos = (272,584);
},
{
name = top.mark;
pos = (294,576);
}
);
layerId = "1467EB51-6BD4-4CFC-AEAA-3E4EB1A95CFA";
shapes = (
{
closed = 1;
nodes = (
(54,0,o),
(36,3,o),
(61,19,cs),
(105,47,o),
(185,75,o),
(233,99,cs),
(257,111,o),
(246,121,o),
(229,125,cs),
(194,133,o),
(167,152,o),
(156,171,cs),
(130,216,o),
(221,334,o),
(312,397,cs),
(327,408,o),
(362,428,o),
(376,428,cs),
(390,428,o),
(378,405,o),
(368,388,cs),
(358,371,o),
(333,341,o),
(325,326,c),
(287,316,o),
(264,308,o),
(236,284,c),
(262,238,o),
(334,254,o),
(339,203,cs),
(341,184,o),
(315,152,o),
(287,113,cs),
(257,72,o),
(228,34,o),
(194,18,cs),
(169,6,o),
(123,0,o),
(84,0,cs)
);
}
);
width = 431;
},
{
anchors = (
{
name = bottom;
pos = (119,-189);
},
{
name = bottom.mark;
pos = (149,-189);
},
{
name = top;
pos = (272,584);
},
{
name = top.mark;
pos = (294,576);
}
);
layerId = "EF321139-F770-433D-B2B6-C3EFA1B16465";
shapes = (
{
closed = 1;
nodes = (
(65,0,o),
(39,-2,o),
(39,18,cs),
(39,27,o),
(51,35,o),
(58,40,cs),
(96,65,o),
(144,84,o),
(188,103,cs),
(225,118,l),
(228,119,l),
(204,125,o),
(181,133,o),
(166,148,c),
(166,147,l),
(148,163,o),
(138,181,o),
(138,198,cs),
(138,202,o),
(139,206,o),
(140,210,cs),
(151,253,o),
(177,288,o),
(203,319,cs),
(217,336,o),
(233,353,o),
(251,369,cs),
(288,402,o),
(322,424,o),
(353,434,cs),
(358,436,o),
(363,437,o),
(367,437,cs),
(379,437,o),
(385,431,o),
(385,420,cs),
(385,407,o),
(377,396,o),
(369,381,cs),
(362,368,o),
(353,355,o),
(344,343,cs),
(337,333,o),
(333,328,o),
(328,320,c),
(321,315,l),
(291,307,o),
(270,301,o),
(248,284,c),
(260,271,o),
(278,267,o),
(295,260,cs),
(315,251,o),
(343,239,o),
(343,211,cs),
(343,208,ls),
(343,201,o),
(340,192,o),
(335,181,cs),
(330,170,o),
(322,159,o),
(312,145,cs),
(263,77,ls),
(245,53,o),
(223,34,o),
(197,19,cs),
(173,6,o),
(126,0,o),
(85,0,cs)
);
}
);
width = 431;
},
{
associatedMasterId = "1467EB51-6BD4-4CFC-AEAA-3E4EB1A95CFA";
attr = {
color = 1;
};
layerId = "ABE65533-A4C3-4156-B2A1-33250058DA89";
name = "11 Dec 21, 18:52";
shapes = (
{
attr = {
gradient = {
colors = (
(
(210,46,31,128),
0
),
(
(210,46,31,255),
1
)
);
end = (0.7942,0.6961);
start = (0.0421,0.078);
};
};
closed = 1;
nodes = (
(200,290,l),
(231,329,o),
(271,369,o),
(312,397,cs),
(327,408,o),
(362,428,o),
(376,428,cs),
(390,428,o),
(378,405,o),
(368,388,cs),
(358,371,o),
(333,341,o),
(325,326,c),
(287,316,o),
(264,308,o),
(236,284,c),
(231,280,o),
(225,275,o),
(219,268,c)
);
},
{
attr = {
gradient = {
colors = (
(
(210,46,31,128),
0
),
(
(210,46,31,255),
1
)
);
end = (0.6343,0.6625);
start = (-0.139,0.2903);
};
};
closed = 1;
nodes = (
(225,305,o),
(230,295,o),
(236,284,cs),
(261,238,o),
(334,254,o),
(339,203,cs),
(341,184,o),
(315,152,o),
(287,113,cs),
(257,72,o),
(228,34,o),
(194,18,cs),
(169,6,o),
(123,0,o),
(84,0,cs),
(54,0,o),
(36,3,o),
(61,19,cs),
(105,47,o),
(185,75,o),
(233,99,cs),
(257,111,o),
(246,121,o),
(229,125,cs),
(194,133,o),
(167,152,o),
(156,171,cs),
(139,200,o),
(172,260,o),
(222,316,c)
);
}
);
width = 431;
},
{
associatedMasterId = "EF321139-F770-433D-B2B6-C3EFA1B16465";
attr = {
color = 1;
};
layerId = "0AFB0FBC-E02F-4D15-B3CC-EF49A8FCF1A8";
name = "11 Dec 21, 18:57";
shapes = (
{
attr = {
gradient = {
colors = (
(
(210,46,31,128),
0
),
(
(210,46,31,255),
1
)
);
end = (0.7942,0.6961);
start = (0.0421,0.078);
};
};
closed = 1;
nodes = (
(179,289,l),
(187,299,o),
(195,309,o),
(203,319,cs),
(217,336,o),
(233,353,o),
(251,369,cs),
(288,402,o),
(322,424,o),
(353,434,cs),
(358,436,o),
(363,437,o),
(367,437,cs),
(379,437,o),
(385,431,o),
(385,420,cs),
(385,407,o),
(377,396,o),
(369,381,cs),
(362,368,o),
(353,355,o),
(344,343,cs),
(337,333,o),
(333,328,o),
(328,320,c),
(321,315,l),
(280,304,o),
(256,297,o),
(222,260,c)
);
},
{
attr = {
gradient = {
colors = (
(
(210,46,31,128),
0
),
(
(210,46,31,255),
1
)
);
end = (0.6343,0.6625);
start = (-0.139,0.2903);
};
};
closed = 1;
nodes = (
(237,281,o),
(264,273,o),
(295,260,cs),
(315,251,o),
(343,239,o),
(343,211,cs),
(343,209,o),
(343,209,o),
(343,208,cs),
(343,201,o),
(340,192,o),
(335,181,cs),
(330,170,o),
(322,159,o),
(312,145,cs),
(263,77,ls),
(245,53,o),
(223,34,o),
(197,19,cs),
(173,6,o),
(126,0,o),
(85,0,cs),
(65,0,o),
(39,-2,o),
(39,18,cs),
(39,27,o),
(51,35,o),
(58,40,cs),
(96,65,o),
(144,84,o),
(188,103,c),
(225,118,l),
(228,119,l),
(204,125,o),
(181,133,o),
(166,148,c),
(166,147,l),
(148,163,o),
(138,181,o),
(138,198,cs),
(138,202,o),
(139,206,o),
(140,210,cs),
(151,253,o),
(177,288,o),
(203,319,cs),
(206,323,o),
(210,327,o),
(213,331,c)
);
}
);
width = 431;
}
);
unicode = 1569;
}
{
glyphname = "alef-ar";
layers = (
{
anchors = (
{
name = bottom;
pos = (128,-22);
},
{
name = bottom.mark;
pos = (145,-31);
},
{
name = top;
pos = (121,791);
},
{
name = top.mark;
pos = (129,835);
}
);
attr = {
color = 1;
};
layerId = "1467EB51-6BD4-4CFC-AEAA-3E4EB1A95CFA";
shapes = (
{
attr = {
gradient = {
colors = (
(
(210,46,31,128),
0
),
(
(210,46,31,255),
1
)
);
end = (-0.3618,0.3448);
start = (1.0152,0.1787);
};
};
closed = 1;
nodes = (
(147,687,l),
(175,262,l),
(101,144,l),
(73,569,l)
);
}
);
width = 248;
},
{
anchors = (
{
name = bottom;
pos = (132,-22);
},
{
name = bottom.mark;
pos = (148,-31);
},
{
name = top;
pos = (124,791);
},
{
name = top.mark;
pos = (133,835);
}
);
attr = {
color = 1;
};
layerId = "EF321139-F770-433D-B2B6-C3EFA1B16465";
shapes = (
{
attr = {
gradient = {
colors = (
(
(210,46,31,128),
0
),
(
(210,46,31,255),
1
)
);
end = (-0.3618,0.3448);
start = (1.0152,0.1787);
};
};
closed = 1;
nodes = (
(136,681,ls),
(142,690,o),
(157,688,o),
(158,676,cs),
(186,261,l),
(112,145,ls),
(106,135,o),
(92,138,o),
(91,150,cs),
(63,564,l)
);
}
);
width = 248;
}
);
unicode = 1575;
}
{
glyphname = "hah-ar";
layers = (
{
anchors = (
{
name = bottom.mark;
pos = (294,-545);
},
{
name = center;
pos = (382,73);
},
{
name = top;
pos = (308,739);
},
{
name = top.mark;
pos = (325,738);
}
);
layerId = "1467EB51-6BD4-4CFC-AEAA-3E4EB1A95CFA";
shapes = (
{
closed = 1;
nodes = (
(367,457,o),
(231,433,o),
(202,408,c),
(217,370,o),
(244,340,o),
(260,304,c),
(301,334,o),
(353,366,o),
(387,398,c)
);
},
{
closed = 1;
nodes = (
(485,-384,o),
(59,-451,o),
(4,-190,cs),
(-26,-49,o),
(92,160,o),
(182,242,c),
(107,325,o),
(146,478,o),
(212,525,cs),
(256,556,o),
(364,576,o),
(428,549,cs),
(494,522,o),
(430,384,o),
(403,346,cs),
(371,300,o),
(328,264,o),
(288,229,cs),
(233,181,o),
(-14,-30,o),
(64,-118,cs),
(200,-271,o),
(460,-232,o),
(635,-186,cs),
(640,-185,o),
(652,-182,o),
(648,-186,cs)
);
}
);
width = 683;
},
{
anchors = (
{
name = bottom;
pos = (382,24);
},
{
name = bottom.mark;
pos = (294,-545);
},
{
name = center;
pos = (382,73);
},
{
name = top;
pos = (308,739);
},
{
name = top.mark;
pos = (325,738);
}
);
layerId = "EF321139-F770-433D-B2B6-C3EFA1B16465";
shapes = (
{
closed = 1;
nodes = (
(246,350,o),
(255,337,o),
(262,324,c),
(313,360,ls),
(332,372,o),
(349,385,o),
(365,399,c),
(357,414,o),
(340,421,o),
(314,421,cs),
(290,421,o),
(264,416,o),
(247,412,cs),
(234,409,o),
(222,406,o),
(215,402,c),
(222,386,o),
(228,374,o),
(238,361,c),
(238,362,l)
);
},
{
closed = 1;
nodes = (
(639,-153,o),
(644,-158,o),
(644,-166,cs),
(644,-171,o),
(643,-172,o),
(640,-175,cs),
(600,-223,o),
(546,-263,o),
(480,-294,cs),
(414,-325,o),
(344,-348,o),
(253,-348,cs),
(193,-348,o),
(145,-334,o),
(102,-314,cs),
(37,-281,o),
(-7,-217,o),
(-7,-119,cs),
(-7,12,o),
(102,186,o),
(165,247,c),
(141,278,o),
(128,313,o),
(128,353,cs),
(128,370,o),
(131,383,o),
(134,398,c),
(133,398,l),
(145,460,o),
(169,503,o),
(204,528,cs),
(233,548,o),
(291,567,o),
(350,567,cs),
(377,567,o),
(402,562,o),
(424,553,cs),
(449,542,o),
(462,522,o),
(462,494,cs),
(462,479,o),
(459,463,o),
(452,444,cs),
(438,404,o),
(425,366,o),
(405,339,cs),
(375,298,o),
(336,264,o),
(299,231,cs),
(286,218,o),
(270,206,o),
(255,192,cs),
(225,164,l),
(225,165,l),
(167,113,o),
(108,51,o),
(73,-24,cs),
(67,-37,o),
(64,-50,o),
(64,-61,cs),
(64,-75,o),
(70,-85,o),
(77,-93,cs),
(136,-159,o),
(225,-194,o),
(342,-194,cs),
(354,-194,ls),
(446,-194,o),
(541,-175,o),
(616,-156,cs),
(622,-154,o),
(626,-153,o),
(630,-153,cs)
);
}
);
width = 683;
},
{
associatedMasterId = "1467EB51-6BD4-4CFC-AEAA-3E4EB1A95CFA";
attr = {
color = 1;
};
layerId = "39582BC5-4C79-44C3-8570-6651C46D1A61";
name = "24 Dec 21, 21:03";
shapes = (
{
attr = {
gradient = {
colors = (
(
(210,46,31,128),
0
),
(
(210,46,31,255),
1
)
);
end = (0.2449,0.6224);
start = (-0.0072,0.1894);
};
};
closed = 1;
nodes = (
(449,428,o),
(419,369,o),
(403,346,cs),
(371,300,o),
(328,264,o),
(288,229,cs),
(233,181,o),
(-14,-30,o),
(64,-118,cs),
(200,-271,o),
(460,-232,o),
(635,-186,cs),
(640,-185,o),
(652,-182,o),
(648,-186,cs),
(485,-384,o),
(59,-451,o),
(4,-190,cs),
(-27,-44,o),
(98,177,o),
(191,250,cs),
(248,295,ls),
(311,345,o),
(419,406,o),
(456,478,c)
);
},
{
attr = {
gradient = {
colors = (
(
(210,46,31,128),
0
),
(
(210,46,31,255),
1
)
);
end = (0.2159,0.8202);
start = (0.2038,0.1756);
};
};
closed = 1;
nodes = (
(413,474,o),
(237,435,o),
(202,408,c),
(219,365,o),
(251,332,o),
(266,289,c),
(194,230,l),
(103,309,o),
(143,476,o),
(212,525,cs),
(256,556,o),
(364,576,o),
(428,549,cs),
(494,522,o),
(430,384,o),
(403,346,cs),
(402,345,o),
(401,343,o),
(400,342,c)
);
}
);
width = 683;
},
{
associatedMasterId = "EF321139-F770-433D-B2B6-C3EFA1B16465";
attr = {
color = 1;
};
layerId = "88933574-E709-45A2-AD12-3FAD1D403B40";
name = "26 Dec 21, 01:00";
shapes = (
{
attr = {
gradient = {
colors = (
(
(210,46,31,128),
0
),
(
(210,46,31,255),
1
)
);
end = (0.2159,0.8202);
start = (0.2038,0.1756);
};
};
closed = 1;
nodes = (
(370,385,l),
(366,410,o),
(347,421,o),
(314,421,cs),
(290,421,o),
(264,416,o),
(247,412,cs),
(234,409,o),
(222,406,o),
(215,402,c),
(222,386,o),
(228,374,o),
(238,361,c),
(249,346,o),
(262,328,o),
(269,310,c),
(176,234,l),
(145,268,o),
(128,307,o),
(128,353,cs),
(128,401,o),
(148,488,o),
(204,528,cs),
(233,548,o),
(291,567,o),
(350,567,cs),
(377,567,o),
(402,562,o),
(424,553,c),
(449,542,o),
(462,522,o),
(462,494,cs),
(462,479,o),
(459,463,o),
(452,444,c)
);
},
{
attr = {
gradient = {
colors = (
(
(210,46,31,128),
0
),
(
(210,46,31,255),
1
)
);
end = (0.2449,0.6224);
start = (-0.0072,0.1894);
};
};
closed = 1;
nodes = (
(461,481,l),
(457,440,o),
(420,358,o),
(405,339,cs),
(374,300,o),
(336,264,o),
(299,231,c),
(286,218,o),
(270,206,o),
(255,192,cs),
(225,164,l),
(225,165,l),
(167,113,o),
(108,51,o),
(73,-24,cs),
(67,-37,o),
(64,-50,o),
(64,-61,cs),
(64,-75,o),
(70,-85,o),
(77,-93,c),
(136,-159,o),
(225,-194,o),
(342,-194,cs),
(348,-194,o),
(348,-194,o),
(354,-194,cs),
(446,-194,o),
(541,-175,o),
(616,-156,cs),
(622,-154,o),
(626,-153,o),
(630,-153,cs),
(639,-153,o),
(644,-158,o),
(644,-166,cs),
(644,-171,o),
(643,-172,o),
(640,-175,c),
(600,-223,o),
(546,-263,o),
(480,-294,c),
(414,-325,o),
(344,-348,o),
(253,-348,cs),
(193,-348,o),
(145,-334,o),
(102,-314,c),
(37,-281,o),
(-7,-217,o),
(-7,-119,cs),
(-7,17,o),
(111,200,o),
(172,254,c),
(249,315,l),
(313,360,l),
(337,375,o),
(357,391,o),
(377,410,c)
);
}
);
width = 683;
}
);
unicode = 1581;
}
{
glyphname = "dal-ar";
layers = (
{
anchors = (
{
name = bottom;
pos = (198,-167);
},
{
name = bottom.mark;
pos = (180,-167);
},
{
name = top;
pos = (233,562);
},
{
name = top.mark;
pos = (233,571);
}
);
layerId = "1467EB51-6BD4-4CFC-AEAA-3E4EB1A95CFA";
shapes = (
{
closed = 1;
nodes = (
(319,425,l),
(319,425,o),
(404,267,o),
(282,122,cs),
(261,98,o),
(236,76,o),
(207,61,cs),
(161,37,o),
(56,15,o),
(0,0,c),
(74,133,l),
(134,144,o),
(223,168,o),
(273,190,c),
(274,216,o),
(256,271,o),
(242,311,c)
);
}
);
width = 367;
},
{
anchors = (
{
name = bottom;
pos = (198,-167);
},
{
name = bottom.mark;
pos = (180,-167);
},
{
name = top;
pos = (233,562);
},
{
name = top.mark;
pos = (233,571);
}
);
layerId = "EF321139-F770-433D-B2B6-C3EFA1B16465";
shapes = (
{
closed = 1;
nodes = (
(306,437,o),
(317,436,o),
(321,427,cs),
(333,400,ls),
(343,377,o),
(350,341,o),
(350,304,cs),
(350,282,o),
(347,258,o),
(342,232,cs),
(332,188,o),
(311,154,o),
(284,122,cs),
(261,96,o),
(236,76,o),
(208,61,cs),
(186,49,o),
(153,37,o),
(109,26,cs),
(72,17,o),
(39,9,o),
(6,0,cs),
(-4,-3,o),
(-13,7,o),
(-7,18,cs),
(64,146,l),
(73,152,l),
(135,163,o),
(202,180,o),
(254,203,c),
(252,217,o),
(249,231,o),
(246,245,cs),
(239,267,o),
(233,289,o),
(225,309,cs),
(224,312,o),
(226,317,o),
(227,319,cs),
(301,428,l)
);
}
);
width = 367;
},
{
associatedMasterId = "1467EB51-6BD4-4CFC-AEAA-3E4EB1A95CFA";
attr = {
color = 1;
};
layerId = "69E646AC-FC31-44E9-B13C-BBD10945ED19";
name = "29 Dec 21, 01:38";
shapes = (
{
attr = {
gradient = {
colors = (
(
(210,46,31,128),
0
),
(
(210,46,31,255),
1
)
);
end = (0.5169,0.3742);
start = (0.1636,0.5296);
};
};
closed = 1;
nodes = (
(174,149,o),
(260,180,o),
(337,223,c),
(328,190,o),
(310,156,o),
(282,122,cs),
(261,98,o),
(236,76,o),
(207,61,cs),
(161,37,o),
(56,15,o),
(0,0,c),
(74,133,l)
);
},
{
attr = {
gradient = {
colors = (
(
(210,46,31,128),
0
),
(
(210,46,31,255),
1
)
);
end = (0.431,0.6935);
start = (0.2079,0.0027);
};
};
closed = 1;
nodes = (
(272,182,l),
(279,202,o),
(258,266,o),
(242,311,c),
(319,425,l),
(319,425,o),
(369,332,o),
(337,223,c)
);
}
);
width = 367;
},
{
associatedMasterId = "EF321139-F770-433D-B2B6-C3EFA1B16465";
attr = {
color = 1;
};
layerId = "11423CE8-2B2A-41F5-BE0C-DE135A9F73D4";
name = "29 Dec 21, 01:38";
shapes = (
{
attr = {
gradient = {
colors = (
(
(210,46,31,128),
0
),
(
(210,46,31,255),
1
)
);
end = (0.5169,0.3742);
start = (0.1636,0.5296);
};
};
closed = 1;
nodes = (
(344,245,l),
(332,188,o),
(311,154,o),
(284,122,cs),
(261,96,o),
(236,76,o),
(208,61,cs),
(186,49,o),
(153,37,o),
(109,26,cs),
(72,17,o),
(39,9,o),
(6,0,cs),
(-4,-3,o),
(-13,7,o),
(-7,18,cs),
(64,146,l),
(73,152,l),
(140,164,o),
(213,183,o),
(267,209,cs)
);
},
{
attr = {
gradient = {
colors = (
(
(210,46,31,128),
0
),
(
(210,46,31,255),
1
)
);
end = (0.431,0.6935);
start = (0.2079,0.0027);
};
};
closed = 1;
nodes = (
(256,187,l),
(254,207,o),
(250,226,o),
(246,245,cs),
(239,267,o),
(233,289,o),
(225,309,cs),
(224,312,o),
(226,317,o),
(227,319,cs),
(301,428,l),
(306,437,o),
(317,436,o),
(321,427,cs),
(333,400,ls),
(343,377,o),
(350,341,o),
(350,304,cs),
(350,282,o),
(347,258,o),
(344,245,c)
);
}
);
width = 367;
}
);
unicode = 1583;
}
{
glyphname = "reh-ar";
layers = (
{
anchors = (
{
name = bottom;
pos = (233,-224);
},
{
name = bottom.mark;
pos = (242,-193);
},
{
name = top;
pos = (360,457);
},
{
name = top.mark;
pos = (277,431);
}
);
layerId = "1467EB51-6BD4-4CFC-AEAA-3E4EB1A95CFA";
shapes = (
{
closed = 1;
nodes = (
(435,205,o),
(402,121,o),
(371,84,cs),
(326,30,o),
(259,-3,o),
(158,0,cs),
(2,4,o),
(-94,21,o),
(142,94,cs),
(223,119,o),
(302,146,o),
(366,189,cs),
(396,209,o),
(419,237,o),
(435,272,cs),
(438,280,o),
(447,279,o),
(448,272,c)
);
}
);
width = 469;
},
{
anchors = (
{
name = bottom;
pos = (233,-224);
},
{
name = bottom.mark;
pos = (242,-193);
},
{
name = top;
pos = (360,457);
},
{
name = top.mark;
pos = (277,431);
}
);
layerId = "EF321139-F770-433D-B2B6-C3EFA1B16465";
shapes = (
{
closed = 1;
nodes = (
(442,291,o),
(447,285,o),
(448,276,cs),
(448,272,l),
(433,207,o),
(405,126,o),
(371,85,cs),
(326,33,o),
(262,0,o),
(165,0,cs),
(156,0,ls),
(118,1,o),
(85,3,o),
(57,6,cs),
(27,9,o),
(7,15,o),
(-2,23,cs),
(-6,27,o),
(-7,32,o),
(-7,38,cs),
(-7,63,o),
(36,79,o),
(64,89,cs),
(83,96,o),
(108,105,o),
(137,114,cs),
(213,138,o),
(290,164,o),
(351,204,cs),
(378,222,o),
(399,248,o),
(413,279,cs),
(416,288,o),
(423,292,o),
(433,292,cs)
);
}
);
width = 469;
},
{
associatedMasterId = "1467EB51-6BD4-4CFC-AEAA-3E4EB1A95CFA";
attr = {
color = 1;
};
layerId = "AC191A36-34F1-4461-9DF8-8ECD89B1562F";
name = "12 Dec 21, 02:28";
shapes = (
{
attr = {
gradient = {
colors = (
(
(210,46,31,128),
0
),
(
(210,46,31,255),
1
)
);
end = (0.6706,0.3124);
start = (0.0055,0.0957);
};
};
closed = 1;
nodes = (
(435,205,o),
(402,121,o),
(371,84,cs),
(326,30,o),
(259,-3,o),
(158,0,cs),
(2,4,o),
(-94,21,o),
(142,94,cs),
(223,119,o),
(302,146,o),
(366,189,cs),
(396,209,o),
(419,237,o),
(435,272,cs),
(438,280,o),
(447,279,o),
(448,272,cs)
);
}
);
width = 469;
},
{
associatedMasterId = "EF321139-F770-433D-B2B6-C3EFA1B16465";
attr = {
color = 1;
};
layerId = "77DFB21D-944B-4353-B794-06295D0F73C8";
name = "12 Dec 21, 02:28";
shapes = (
{
attr = {
gradient = {
colors = (
(
(210,46,31,128),
0
),
(
(210,46,31,255),
1
)
);
end = (0.6706,0.3124);
start = (0.0055,0.0957);
};
};
closed = 1;
nodes = (
(442,291,o),
(447,285,o),
(448,276,c),
(448,272,l),
(433,207,o),
(405,126,o),
(371,85,cs),
(326,33,o),
(262,0,o),
(165,0,cs),
(156,0,l),
(118,1,o),
(85,3,o),
(57,6,cs),
(27,9,o),
(7,15,o),
(-2,23,cs),
(-6,27,o),
(-7,32,o),
(-7,38,cs),
(-7,63,o),
(36,79,o),
(64,89,cs),
(83,96,o),
(108,105,o),
(137,114,cs),
(213,138,o),
(290,164,o),
(351,204,cs),
(378,222,o),
(399,248,o),
(413,279,c),
(416,288,o),
(423,292,o),
(433,292,c)
);
}
);
width = 469;
}
);
unicode = 1585;
}
{
glyphname = "seen-ar";
layers = (
{
anchors = (
{
name = bottom;
pos = (541,-4);
},
{
name = bottom.mark;
pos = (602,26);
},
{
name = top;
pos = (633,703);
},
{
name = top.mark;
pos = (655,725);
}
);
layerId = "1467EB51-6BD4-4CFC-AEAA-3E4EB1A95CFA";
shapes = (
{
closed = 1;
nodes = (
(401,222,o),
(391,187,o),
(349,126,cs),
(203,-85,o),
(-169,-57,o),
(87,409,cs),
(95,425,o),
(108,422,o),
(99,398,cs),
(68,329,o),
(-20,195,o),
(87,149,c),
(205,128,o),
(304,174,o),
(368,233,c),
(369,283,o),
(359,324,o),
(344,371,c),
(397,503,l),
(420,456,o),
(422,414,o),
(464,423,cs),
(587,449,o),
(712,473,o),
(817,515,cs),
(843,526,o),
(869,538,o),
(882,560,cs),
(884,563,o),
(889,560,o),
(888,557,cs),
(861,475,o),
(829,396,o),
(794,321,cs),
(790,313,o),
(780,308,o),
(772,314,cs),
(764,320,o),
(768,333,o),
(771,342,cs),
(777,362,o),
(789,380,o),
(796,400,c),
(699,356,o),
(573,333,o),
(467,303,c),
(426,289,l)
);
}
);
width = 933;
},
{
anchors = (
{
name = bottom;
pos = (541,-4);
},
{
name = bottom.mark;
pos = (602,26);
},
{
name = top;
pos = (633,703);
},
{
name = top.mark;
pos = (655,725);
}
);
layerId = "EF321139-F770-433D-B2B6-C3EFA1B16465";
shapes = (
{
closed = 1;
nodes = (
(749,300,o),
(738,311,o),
(738,326,cs),
(738,333,o),
(740,340,o),
(742,346,cs),
(745,357,o),
(749,366,o),
(754,375,c),
(708,356,o),
(658,341,o),
(605,329,cs),
(541,314,o),
(488,300,o),
(428,282,c),
(399,206,ls),
(380,156,o),
(333,92,o),
(292,59,cs),
(269,41,o),
(243,26,o),
(215,16,cs),
(186,6,o),
(159,0,o),
(134,0,cs),
(111,0,o),
(89,6,o),
(68,16,c),
(68,15,l),
(25,36,o),
(3,86,o),
(-4,146,cs),
(-4,148,o),
(-5,150,o),
(-5,153,cs),
(-5,161,ls),
(-5,192,o),
(3,229,o),
(18,272,cs),
(33,315,o),
(54,362,o),
(82,413,cs),
(88,423,o),
(94,428,o),
(101,428,cs),
(112,428,o),
(118,420,o),
(118,410,cs),
(118,391,o),
(108,379,o),
(101,364,cs),
(86,334,o),
(67,302,o),
(59,265,cs),
(56,254,o),
(55,241,o),
(55,230,cs),
(55,195,o),
(65,180,o),
(96,167,c),
(117,163,o),
(135,162,o),
(152,162,cs),
(212,162,o),
(264,183,o),
(303,206,cs),
(321,216,o),
(337,229,o),
(352,242,c),
(352,245,ls),
(352,295,o),
(340,332,o),
(328,371,c),
(381,502,ls),
(385,512,o),
(397,513,o),
(402,503,cs),
(411,483,o),
(419,464,o),
(426,444,cs),
(429,436,o),
(435,432,o),
(444,432,cs),
(449,432,l),
(569,457,o),
(689,479,o),
(793,521,cs),
(822,532,o),
(842,545,o),
(852,562,c),
(854,564,o),
(856,566,o),
(861,566,cs),
(865,566,o),
(868,564,o),
(871,563,c),
(876,559,o),
(878,557,o),
(878,548,c),
(852,470,o),
(820,388,o),
(787,317,cs),
(783,308,o),
(775,300,o),
(763,300,cs)
);
}
);
width = 933;
},
{
associatedMasterId = "1467EB51-6BD4-4CFC-AEAA-3E4EB1A95CFA";
attr = {
color = 1;
};
layerId = "6E0DD2FA-4577-41D0-ABB1-3A5E0E2BDB5E";
name = "29 Dec 21, 01:40";
shapes = (
{
attr = {
gradient = {
colors = (
(
(210,46,31,128),
0
),
(
(210,46,31,255),
1
)
);
end = (0.6152,0.1893);
start = (0.3083,0.3778);
};
};
closed = 1;
nodes = (
(408,481,l),
(420,447,o),
(427,422,o),
(453,422,cs),
(456,422,o),
(460,422,o),
(464,423,cs),
(587,449,o),
(712,473,o),
(817,515,cs),
(843,526,o),
(869,538,o),
(882,560,cs),
(884,563,o),
(889,560,o),
(888,557,cs),
(861,475,o),
(829,396,o),
(794,321,cs),
(791,315,o),
(786,311,o),
(780,311,cs),
(777,311,o),
(774,312,o),
(772,314,cs),
(769,317,o),
(767,321,o),
(767,325,cs),
(767,331,o),
(769,337,o),
(771,342,cs),
(777,362,o),
(789,380,o),
(796,400,c),
(699,356,o),
(573,333,o),
(467,303,c),
(411,284,l)
);
},
{
attr = {
gradient = {
colors = (
(
(210,46,31,128),
0
),
(
(210,46,31,255),
1
)
);
end = (0.5169,0.3742);
start = (0.1636,0.5296);
};
};
closed = 1;
nodes = (
(422,279,c),
(410,235,o),
(387,187,o),
(349,126,cs),
(298,43,o),
(211,-3,o),
(136,-3,cs),
(62,-3,o),
(1,43,o),
(1,145,cs),
(1,210,o),
(25,297,o),
(87,409,cs),
(90,416,o),
(95,419,o),
(99,419,cs),
(102,419,o),
(104,417,o),
(104,412,cs),
(104,409,o),
(103,404,o),
(99,398,cs),
(54,323,o),
(36,267,o),
(36,228,cs),
(36,165,o),
(81,142,o),
(140,142,cs),
(227,142,o),
(342,193,o)
);
},
{
attr = {
gradient = {
colors = (
(
(210,46,31,128),
0
),
(
(210,46,31,255),
1
)
);
end = (0.7487,0.2931);
start = (0.2079,0.0027);
};
};
closed = 1;
nodes = (
(367,216,l),
(371,274,o),
(361,319,o),
(344,371,c),
(397,503,l),
(404,483,o),
(424,457,o),
(431,374,cs),
(432,366,o),
(432,359,o),
(432,351,cs),
(432,327,o),
(429,304,o),
(422,279,c)
);
}
);
width = 933;
},
{
associatedMasterId = "EF321139-F770-433D-B2B6-C3EFA1B16465";
attr = {
color = 1;
};
layerId = "26642AA0-CF8F-41A0-9D14-1D06218309C3";
name = "29 Dec 21, 01:45";
shapes = (
{
attr = {
gradient = {
colors = (
(
(210,46,31,128),
0
),
(
(210,46,31,255),
1
)
);
end = (0.5169,0.3742);
start = (0.1636,0.5296);
};
};
closed = 1;
nodes = (
(427,301,c),
(422,269,o),
(412,238,o),
(399,206,cs),
(378,155,o),
(333,92,o),
(292,59,cs),
(269,41,o),
(243,26,o),
(215,16,cs),
(186,6,o),
(159,0,o),
(134,0,cs),
(33,0,o),
(-5,88,o),
(-5,161,cs),
(-5,192,o),
(3,229,o),
(18,272,cs),
(33,315,o),
(54,362,o),
(82,413,cs),
(88,423,o),
(94,428,o),
(101,428,cs),
(112,428,o),
(118,420,o),
(118,410,cs),
(118,391,o),
(108,379,o),
(101,364,cs),
(86,334,o),
(67,302,o),
(59,265,cs),
(56,254,o),
(55,241,o),
(55,230,cs),
(55,167,o),
(98,162,o),
(152,162,cs),
(212,162,o),
(264,183,o),
(303,206,cs),
(326,219,o),
(345,236,o)
);
},
{
attr = {
gradient = {
colors = (
(
(210,46,31,128),
0
),
(
(210,46,31,255),
1
)
);
end = (0.6152,0.1893);
start = (0.3083,0.3778);
};
};
closed = 1;
nodes = (
(426,444,l),
(429,436,o),
(435,432,o),
(449,432,c),
(569,457,o),
(689,479,o),
(793,521,cs),
(822,532,o),
(842,545,o),
(852,562,c),
(854,564,o),
(856,566,o),
(861,566,cs),
(865,566,o),
(868,564,o),
(871,563,c),
(876,559,o),
(878,557,o),
(878,548,c),
(852,470,o),
(820,388,o),
(787,317,cs),
(783,308,o),
(775,300,o),
(763,300,cs),
(749,300,o),
(738,311,o),
(738,326,cs),
(738,333,o),
(740,340,o),
(742,346,cs),
(745,357,o),
(749,366,o),
(754,375,c),
(653,333,o),
(552,321,o),
(412,277,c)
);
},
{
attr = {
gradient = {
colors = (
(
(210,46,31,128),
0
),
(
(210,46,31,255),
1
)
);
end = (0.7487,0.2931);
start = (0.2079,0.0027);
};
};
closed = 1;
nodes = (
(351,222,l),
(355,286,o),
(341,327,o),
(328,371,c),
(381,502,ls),
(385,512,o),
(397,513,o),
(402,503,cs),
(434,433,o),
(442,405,o),
(427,301,c)
);
}
);
width = 933;
}
);
unicode = 1587;
}
{
glyphname = "sheen-ar";
layers = (
{
anchors = (
{
name = bottom.mark;
pos = (602,26);
},
{
name = top.mark;
pos = (655,725);
}
);
attr = {
color = 1;
};
layerId = "1467EB51-6BD4-4CFC-AEAA-3E4EB1A95CFA";
shapes = (
{
attr = {
gradient = {
colors = (
(
(210,46,31,128),
0
),
(
(210,46,31,255),
1
)
);
end = (0.6361,0.3741);
start = (-0.0072,0.1894);
};
};
closed = 1;
nodes = (
(934,421,o),
(893,338,o),
(845,264,c),
(830,245,o),
(823,255,o),
(826,262,cs),
(839,295,o),
(855,316,o),
(869,349,c),
(768,290,o),
(653,258,o),
(528,222,c),
(483,220,o),
(479,273,o),
(437,240,cs),
(366,184,o),
(321,26,o),
(238,0,c),
(203,2,o),
(184,24,o),
(176,54,cs),
(165,94,o),
(167,170,o),
(149,196,cs),
(141,208,o),
(127,222,o),
(107,215,cs),
(64,201,o),
(38,168,o),
(17,134,cs),
(12,126,o),
(8,119,o),
(0,112,c),
(32,206,o),
(46,262,o),
(128,322,cs),
(150,338,o),
(172,350,o),
(186,342,cs),
(206,330,o),
(212,302,o),
(213,270,cs),
(214,224,o),
(205,194,o),
(226,153,cs),
(236,134,o),
(265,130,o),
(283,143,cs),
(331,176,o),
(362,226,o),
(395,274,cs),
(444,344,o),
(477,397,o),
(568,346,c),
(675,367,o),
(768,401,o),
(860,436,cs),
(902,452,o),
(938,476,o),
(970,504,c),
(970,504,o),
(975,508,o),
(973,504,cs)
);
}
);
width = 1000;
},
{
anchors = (
{
name = bottom.mark;
pos = (602,26);
},
{
name = top.mark;
pos = (655,725);
}
);
attr = {
color = 1;
};
layerId = "EF321139-F770-433D-B2B6-C3EFA1B16465";
shapes = (
{
attr = {
gradient = {
colors = (
(
(210,46,31,128),
0
),
(
(210,46,31,255),
1
)
);
end = (0.6361,0.3741);
start = (-0.0072,0.1894);
};
};
closed = 1;
nodes = (
(520,379,o),
(538,371,o),
(559,359,c),
(655,379,o),
(748,412,o),
(833,444,cs),
(871,459,o),
(906,482,o),
(935,508,cs),
(942,514,o),
(956,525,o),
(962,516,c),
(964,514,o),
(963,503,o),
(958,493,cs),
(920,411,o),
(880,331,o),
(834,259,cs),
(822,242,o),
(810,239,o),
(800,246,cs),
(792,252,o),
(790,260,o),
(794,269,cs),
(801,287,o),
(808,302,o),
(817,317,c),
(730,271,o),
(624,243,o),
(520,214,c),
(493,213,o),
(473,221,o),
(462,239,cs),
(460,242,o),
(458,243,o),
(457,243,cs),
(452,243,o),
(446,240,o),
(438,234,cs),
(401,204,o),
(374,160,o),
(351,111,cs),
(323,51,o),
(286,14,o),
(241,0,c),
(171,2,o),
(161,68,o),
(156,137,cs),
(155,165,o),
(151,185,o),
(144,195,c),
(144,194,l),
(139,200,o),
(129,212,o),
(117,208,cs),
(82,195,o),
(56,164,o),
(37,135,c),
(37,136,l),
(30,125,o),
(17,99,o),
(1,110,cs),
(-3,112,o),
(-5,118,o),
(-3,125,cs),
(11,166,o),
(25,203,o),
(41,239,cs),
(59,277,o),
(90,307,o),
(125,333,cs),
(155,355,o),
(179,363,o),
(196,353,cs),
(216,341,o),
(227,314,o),
(228,273,cs),
(228,256,ls),
(228,240,o),
(227,226,o),
(226,214,cs),
(226,185,o),
(239,141,o),
(275,161,c),
(319,191,o),
(349,240,o),
(380,284,cs),
(400,314,o),
(425,343,o),
(450,365,cs),
(461,373,o),
(475,379,o),
(493,379,cs)
);
}
);
width = 1000;
}
);
unicode = 1588;
}
{
glyphname = "sad-ar";
layers = (
{
anchors = (
{
name = bottom;
pos = (558,92);
},
{
name = bottom.mark;
pos = (589,97);
},
{
name = top;
pos = (610,781);
},
{
name = top.mark;
pos = (633,791);
}
);
layerId = "1467EB51-6BD4-4CFC-AEAA-3E4EB1A95CFA";
shapes = (
{
closed = 1;
nodes = (
(203,-85,o),
(-169,-56,o),
(87,410,cs),
(95,426,o),
(108,422,o),
(99,398,cs),
(68,329,o),
(-18,186,o),
(87,149,cs),
(180,116,o),
(304,175,o),
(368,234,c),
(370,290,o),
(357,335,o),
(343,379,c),
(397,504,l),
(430,431,o),
(427,399,o),
(486,412,c),
(486,412,o),
(557,498,o),
(667,603,cs),
(698,632,o),
(775,652,o),
(809,612,cs),
(851,562,o),
(806,503,o),
(772,458,cs),
(719,387,o),
(629,336,o),
(542,314,cs),
(502,304,o),
(453,294,o),
(420,289,c),
(408,231,o),
(383,175,o),
(349,126,cs)
);
},
{
closed = 1;
nodes = (
(709,521,o),
(670,534,o),
(642,519,cs),
(595,494,o),
(561,455,o),
(525,418,c),
(595,432,o),
(663,446,o),
(720,473,cs),
(731,478,o),
(725,491,o),
(721,499,cs)
);
}
);
width = 881;
},
{
anchors = (
{
name = bottom;
pos = (558,92);
},
{
name = bottom.mark;
pos = (589,97);
},
{
name = top;
pos = (610,781);
},
{
name = top.mark;
pos = (633,791);
}
);
layerId = "EF321139-F770-433D-B2B6-C3EFA1B16465";
shapes = (
{
closed = 1;
nodes = (
(781,637,o),
(818,600,o),
(818,558,cs),
(818,545,o),
(815,533,o),
(808,521,cs),
(771,451,o),
(727,395,o),
(660,355,cs),
(594,316,o),
(513,294,o),
(423,280,c),
(410,226,o),
(387,175,o),
(354,127,cs),
(318,74,o),
(271,37,o),
(214,16,cs),
(185,6,o),
(158,0,o),
(133,0,cs),
(110,0,o),
(88,6,o),
(67,16,c),
(67,15,l),
(24,36,o),
(2,86,o),
(-5,146,cs),
(-5,148,o),
(-5,150,o),
(-5,153,cs),
(-5,161,ls),
(-5,192,o),
(2,229,o),
(17,272,cs),
(32,315,o),
(53,362,o),
(81,413,cs),
(87,423,o),
(94,428,o),
(101,428,cs),
(112,428,o),
(118,420,o),
(118,410,cs),
(118,403,o),
(116,397,o),
(114,391,cs),
(96,351,o),
(70,313,o),
(59,265,cs),
(56,254,o),
(54,241,o),
(54,230,cs),
(54,195,o),
(64,180,o),
(95,167,c),
(116,163,o),
(134,162,o),
(151,162,cs),
(184,162,o),
(214,167,o),
(242,178,cs),
(286,194,o),
(320,214,o),
(351,242,c),
(351,245,ls),
(351,298,o),
(338,337,o),
(326,378,c),
(380,503,ls),
(382,508,o),
(386,510,o),
(391,510,cs),
(396,510,o),
(399,508,o),
(402,503,c),
(436,427,ls),
(438,421,o),
(444,418,o),
(454,418,cs),
(459,418,o),
(464,418,o),
(470,419,c),
(524,481,o),
(583,546,o),
(643,602,cs),
(662,620,o),
(697,637,o),
(738,637,cs)
);
},
{
closed = 1;
nodes = (
(697,482,o),
(696,484,o),
(694,488,cs),
(688,499,o),
(671,508,o),
(654,508,cs),
(646,508,o),
(639,506,o),
(633,502,c),
(600,485,o),
(576,459,o),
(550,434,c),
(603,445,o),
(655,459,o),
(698,479,c)
);
}
);
width = 881;
},
{
associatedMasterId = "1467EB51-6BD4-4CFC-AEAA-3E4EB1A95CFA";
attr = {
color = 1;
};
layerId = "63878B5F-07E9-4133-848F-5AFA1231AFFB";
name = "2 Jan 22, 05:35";
shapes = (
{
attr = {
gradient = {
colors = (
(
(210,46,31,128),
0
),
(
(210,46,31,255),
1
)
);
end = (0.6361,0.3741);
start = (-0.0072,0.1894);
};
};
closed = 1;
nodes = (
(416,457,l),
(432,421,o),
(441,402,o),
(486,412,c),
(486,412,o),
(557,498,o),
(667,603,cs),
(698,632,o),
(775,652,o),
(809,612,cs),
(851,562,o),
(806,503,o),
(772,458,cs),
(719,387,o),
(629,336,o),
(542,314,cs),
(502,304,o),
(452,294,o),
(419,289,c)
);
},
{
attr = {
gradient = {
colors = (
(
(210,46,31,128),
0
),
(
(210,46,31,255),
1
)
);
end = (0.6361,0.3741);
start = (-0.0072,0.1894);
};
};
closed = 1;
nodes = (
(709,521,o),
(670,534,o),
(642,519,cs),
(595,494,o),
(561,455,o),
(525,418,c),
(595,432,o),
(663,446,o),
(720,473,cs),
(731,478,o),
(725,491,o),
(721,499,cs)
);
},
{
attr = {
gradient = {
colors = (
(
(210,46,31,128),
0
),
(
(210,46,31,255),
1
)
);
end = (0.5169,0.3742);
start = (0.1636,0.5296);
};
};
closed = 1;
nodes = (
(419,283,l),
(411,241,o),
(386,179,o),
(349,126,cs),
(203,-85,o),
(-169,-56,o),
(87,410,cs),
(95,426,o),
(108,422,o),
(99,398,cs),
(68,329,o),
(-18,186,o),
(87,149,cs),
(185,114,o),
(316,182,o),
(378,243,cs)
);
},
{
attr = {
gradient = {
colors = (
(
(210,46,31,128),
0
),
(
(210,46,31,255),
1
)
);
end = (0.791,0.3368);
start = (0.2079,0.0027);
};
};
closed = 1;
nodes = (
(367,215,l),
(373,280,o),
(359,330,o),
(343,379,c),
(397,504,l),
(436,426,o),
(433,361,o),
(419,283,c)
);
}
);
width = 881;
},
{
associatedMasterId = "EF321139-F770-433D-B2B6-C3EFA1B16465";
attr = {
color = 1;
};
layerId = "2801E7C7-8D70-4B63-B220-879C0047976D";
name = "2 Jan 22, 05:35";
shapes = (
{
attr = {
gradient = {
colors = (
(
(210,46,31,128),
0
),
(
(210,46,31,255),
1
)
);
end = (0.5169,0.3742);
start = (0.1636,0.5296);
};
};
closed = 1;
nodes = (
(436,319,l),
(426,252,o),
(394,185,o),
(354,127,cs),
(318,74,o),
(271,37,o),
(214,16,cs),
(185,6,o),
(158,0,o),
(133,0,cs),
(39,0,o),
(-5,81,o),
(-5,153,cs),
(-5,192,o),
(2,229,o),
(17,272,cs),
(32,315,o),
(53,362,o),
(81,413,cs),
(87,423,o),
(94,428,o),
(101,428,cs),
(112,428,o),
(118,420,o),
(118,410,cs),
(118,403,o),
(116,397,o),
(114,391,cs),
(96,351,o),
(70,313,o),
(59,265,cs),
(56,254,o),
(54,241,o),
(54,230,cs),
(54,167,o),
(97,162,o),
(151,162,cs),
(184,162,o),
(214,167,o),
(242,178,cs),
(292,196,o),
(328,219,o),
(363,253,c)
);
},
{
attr = {
gradient = {
colors = (
(
(210,46,31,128),
0
),
(
(210,46,31,255),
1
)
);
end = (0.6361,0.3741);
start = (-0.0072,0.1894);
};
};
closed = 1;
nodes = (
(697,482,o),
(696,484,o),
(694,488,cs),
(688,499,o),
(671,508,o),
(654,508,cs),
(646,508,o),
(639,506,o),
(633,502,c),
(600,485,o),
(576,459,o),
(550,434,c),
(603,445,o),
(655,459,o),
(698,479,c)
);
},
{
attr = {
gradient = {
colors = (
(
(210,46,31,128),
0
),
(
(210,46,31,255),
1
)
);
end = (0.6361,0.3741);
start = (-0.0072,0.1894);
};
};
closed = 1;
nodes = (
(428,445,l),
(439,419,o),
(437,418,o),
(454,418,cs),
(459,418,o),
(464,418,o),
(470,419,c),
(524,481,o),
(583,546,o),
(643,602,cs),
(662,620,o),
(697,637,o),
(738,637,cs),
(781,637,o),
(818,600,o),
(818,558,cs),
(818,545,o),
(815,533,o),
(808,521,cs),
(771,451,o),
(727,395,o),
(660,355,cs),
(595,317,o),
(515,294,o),
(427,280,c)
);
},
{
attr = {
gradient = {
colors = (
(
(210,46,31,128),
0
),
(
(210,46,31,255),
1
)
);
end = (0.791,0.3368);
start = (0.2079,0.0027);
};
};
closed = 1;
nodes = (
(350,222,l),
(354,289,o),
(339,332,o),
(326,378,c),
(380,503,ls),
(382,508,o),
(386,510,o),
(391,510,cs),
(396,510,o),
(399,508,o),
(402,503,cs),
(438,444,o),
(446,381,o),
(436,319,c)
);
}
);
width = 881;
}
);
unicode = 1589;
}
{
glyphname = "tah-ar";
layers = (
{
anchors = (
{
name = bottom;
pos = (286,-207);
},
{
name = bottom.mark;
pos = (325,-145);
},
{
name = top;
pos = (510,475);
},
{
name = top.mark;
pos = (356,677);
}
);
attr = {
color = 1;
};
layerId = "1467EB51-6BD4-4CFC-AEAA-3E4EB1A95CFA";
name = Regular;
shapes = (
{
attr = {
gradient = {
colors = (
(
(210,46,31,128),
0
),
(
(210,46,31,255),
1
)
);
end = (0.6361,0.3741);
start = (-0.0072,0.1894);
};
};
closed = 1;
nodes = (
(520,234,o),
(480,246,o),
(452,231,cs),
(405,206,o),
(371,167,o),
(335,130,c),
(405,144,o),
(473,158,o),
(530,185,cs),
(541,190,o),
(536,204,o),
(532,212,cs)
);
},
{
attr = {
gradient = {
colors = (
(
(210,46,31,128),
0
),
(
(210,46,31,255),
1
)
);
end = (0.6361,0.3741);
start = (-0.0072,0.1894);
};
};
closed = 1;
nodes = (
(514,100,o),
(415,47,o),
(284,13,cs),
(240,2,o),
(207,-2,o),
(179,1,cs),
(114,7,o),
(77,46,o),
(3,90,cs),
(-2,93,o),
(2,102,o),
(7,102,cs),
(109,99,o),
(206,107,o),
(294,122,c),
(352,189,o),
(412,254,o),
(477,315,cs),
(508,344,o),
(585,364,o),
(619,324,cs),
(661,274,o),
(615,235,o),
(581,190,cs)
);
},
{
pos = (295,-25);
ref = _tah.alef;
}
);
width = 681;
},
{
anchors = (
{
name = bottom;
pos = (286,-207);
},
{
name = bottom.mark;
pos = (325,-145);
},
{
name = top;
pos = (510,475);
},
{
name = top.mark;
pos = (356,677);
}
);
attr = {
color = 1;
};
layerId = "EF321139-F770-433D-B2B6-C3EFA1B16465";
name = Bold;
shapes = (
{
attr = {
gradient = {
colors = (
(
(210,46,31,128),
0
),
(
(210,46,31,255),
1
)
);
end = (0.6361,0.3741);
start = (-0.0072,0.1894);
};
};
closed = 1;
nodes = (
(417,167,o),
(512,152,o),
(512,201,cs),
(512,202,ls),
(512,203,o),
(510,206,o),
(507,212,cs),
(503,220,o),
(484,230,o),
(468,230,cs),
(462,230,o),
(455,229,o),
(448,225,cs),
(416,207,o),
(389,181,o),
(364,156,c)
);
},
{
attr = {
gradient = {
colors = (
(
(210,46,31,128),
0
),
(
(210,46,31,255),
1
)
);
end = (0.6361,0.3741);
start = (-0.0072,0.1894);
};
};
closed = 1;
nodes = (
(29,121,o),
(44,121,o),
(60,121,cs),
(139,121,o),
(215,130,o),
(284,141,c),
(339,205,o),
(397,267,o),
(459,325,c),
(493,351,o),
(524,363,o),
(550,361,cs),
(577,359,o),
(599,349,o),
(614,330,c),
(621,319,o),
(625,306,o),
(625,292,cs),
(625,256,o),
(603,222,o),
(584,197,c),
(547,149,o),
(503,107,o),
(451,78,cs),
(401,50,o),
(345,30,o),
(282,13,cs),
(249,4,o),
(220,0,o),
(195,0,cs),
(190,0,o),
(184,0,o),
(179,1,cs),
(107,16,o),
(49,47,o),
(2,88,c),
(-7,93,o),
(-6,112,o),
(2,118,cs),
(5,120,o),
(8,122,o),
(13,122,cs)
);
},
{
pos = (278,-24);
ref = _tah.alef;
}
);
width = 681;
}
);
unicode = 1591;
}
{
glyphname = "ain-ar";
layers = (
{
anchors = (
{
name = bottom;
pos = (299,-532);
},
{
name = bottom.mark;
pos = (303,-523);
},
{
name = top;
pos = (193,756);
},
{
name = top.mark;
pos = (224,765);
}
);
layerId = "1467EB51-6BD4-4CFC-AEAA-3E4EB1A95CFA";
shapes = (
{
closed = 1;
nodes = (
(195,272,o),
(185,283,o),
(176,295,cs),
(85,408,o),
(143,614,o),
(242,612,cs),
(277,611,o),
(306,603,o),
(339,595,c),
(297,465,l),
(266,475,o),
(232,482,o),
(192,486,c),
(200,437,o),
(216,412,o),
(248,385,c),
(295,339,o),
(392,398,o),
(452,456,c),
(407,340,ls),
(393,304,o),
(328,262,o),
(288,227,cs),
(233,179,o),
(-14,-31,o),
(64,-119,cs),
(200,-272,o),
(460,-234,o),
(635,-188,cs),
(640,-187,o),
(652,-184,o),
(648,-188,cs),
(485,-386,o),
(60,-453,o),
(5,-192,cs),
(-25,-50,o),
(89,170,o),
(206,262,c)
);
}
);
width = 683;
},
{
anchors = (
{
name = bottom;
pos = (299,-532);
},
{
name = bottom.mark;
pos = (303,-523);
},
{
name = top;
pos = (193,756);
},
{
name = top.mark;
pos = (224,765);
}
);
layerId = "EF321139-F770-433D-B2B6-C3EFA1B16465";
shapes = (
{
closed = 1;
nodes = (
(566,-269,o),
(413,-351,o),
(253,-351,cs),
(163,-351,o),
(77,-317,o),
(35,-261,cs),
(9,-227,o),
(-7,-180,o),
(-7,-121,cs),
(-7,-50,o),
(18,13,o),
(44,68,cs),
(81,144,o),
(128,214,o),
(186,264,c),
(180,272,o),
(173,280,o),
(167,289,c),
(137,325,o),
(120,368,o),
(120,432,cs),
(120,452,o),
(122,472,o),
(127,493,cs),
(141,548,o),
(175,614,o),
(239,614,cs),
(268,613,o),
(292,607,o),
(317,601,cs),
(336,597,ls),
(342,596,o),
(347,590,o),
(344,582,cs),
(304,456,ls),
(302,451,o),
(296,447,o),
(289,449,cs),
(261,457,o),
(234,463,o),
(206,467,c),
(214,429,o),
(227,413,o),
(255,389,cs),
(264,381,o),
(275,377,o),
(288,377,cs),
(300,377,o),
(315,382,o),
(333,390,c),
(371,409,o),
(404,431,o),
(434,459,cs),
(436,461,o),
(438,463,o),
(441,463,cs),
(449,463,o),
(456,456,o),
(453,447,cs),
(409,335,ls),
(394,297,o),
(353,272,o),
(323,248,cs),
(312,239,o),
(301,230,o),
(292,222,cs),
(280,212,o),
(268,201,o),
(255,189,cs),
(225,161,l),
(225,162,l),
(168,111,o),
(106,44,o),
(73,-27,cs),
(67,-40,o),
(64,-52,o),
(64,-63,cs),
(64,-77,o),
(70,-88,o),
(77,-96,cs),
(136,-162,o),
(225,-197,o),
(342,-197,cs),
(354,-197,ls),
(446,-197,o),
(541,-178,o),
(616,-159,cs),
(622,-157,o),
(626,-156,o),
(630,-156,cs),
(639,-156,o),
(644,-160,o),
(644,-168,cs),
(644,-173,o),
(643,-175,o),
(640,-178,cs),
(641,-177,ls)
);
}
);
width = 683;
},
{
associatedMasterId = "1467EB51-6BD4-4CFC-AEAA-3E4EB1A95CFA";
attr = {
color = 1;
};
layerId = "CCC4D244-0CC2-4EFC-9307-0977FDBC0AE1";
name = "2 Jan 22, 05:55";
shapes = (
{
attr = {
gradient = {
colors = (
(
(210,46,31,128),
0
),
(
(210,46,31,255),
1
)
);
end = (0.4213,0.0512);
start = (-0.0109,0.2378);
};
};
closed = 1;
nodes = (
(185,588,l),
(202,603,o),
(221,612,o),
(242,612,cs),
(277,611,o),
(306,603,o),
(339,595,c),
(297,465,l),
(261,476,o),
(222,484,o),
(174,488,c)
);
},
{
attr = {
gradient = {
colors = (
(
(210,46,31,128),
0
),
(
(210,46,31,255),
1
)
);
end = (0.2691,0.6415);
start = (0.0235,0.1876);
};
};
closed = 1;
nodes = (
(273,298,o),
(451,455,c),
(413,352,o),
(409,345,o),
(406,338,cs),
(390,302,o),
(327,261,o),
(288,227,cs),
(240,185,o),
(49,23,o),
(49,-78,cs),
(49,-93,o),
(54,-107,o),
(64,-119,cs),
(138,-202,o),
(247,-229,o),
(360,-229,cs),
(456,-229,o),
(555,-209,o),
(635,-188,cs),
(638,-187,o),
(643,-186,o),
(647,-186,cs),
(648,-186,o),
(649,-186,o),
(649,-187,cs),
(649,-187,o),
(649,-187,o),
(648,-188,cs),
(560,-295,o),
(397,-363,o),
(256,-363,cs),
(90,-363,o),
(-21,-257,o),
(4,-102,cs),
(54,209,o)
);
},
{
attr = {
gradient = {
colors = (
(
(210,46,31,128),
0
),
(
(210,46,31,255),
1
)
);
end = (0.1605,0.509);
start = (0.4054,0.1874);
};
};
closed = 1;
nodes = (
(218,252,l),
(202,264,o),
(188,279,o),
(176,295,cs),
(144,335,o),
(131,386,o),
(131,435,cs),
(131,497,o),
(152,556,o),
(185,588,c),
(188,463,o),
(199,426,o),
(248,385,c),
(260,373,o),
(275,369,o),
(291,369,cs),
(341,369,o),
(407,413,o),
(452,456,c),
(407,340,l)
);
}
);
width = 683;
},
{
associatedMasterId = "EF321139-F770-433D-B2B6-C3EFA1B16465";
attr = {
color = 1;
};
layerId = "EB6B41F9-6548-4F75-A334-426C5DE21FD8";
name = "2 Jan 22, 05:56";
shapes = (
{
attr = {
gradient = {
colors = (
(
(210,46,31,128),
0
),
(
(210,46,31,255),
1
)
);
end = (0.4213,0.0512);
start = (-0.0109,0.2378);
};
};
closed = 1;
nodes = (
(197,603,l),
(209,610,o),
(223,614,o),
(239,614,cs),
(268,613,o),
(292,607,o),
(336,597,cs),
(342,596,o),
(347,590,o),
(344,582,cs),
(304,456,ls),
(302,451,o),
(296,447,o),
(289,449,cs),
(256,459,o),
(224,465,o),
(190,469,c)
);
},
{
attr = {
gradient = {
colors = (
(
(210,46,31,128),
0
),
(
(210,46,31,255),
1
)
);
end = (0.2691,0.6415);
start = (0.0235,0.1876);
};
};
closed = 1;
nodes = (
(409,335,l),
(393,294,o),
(315,243,o),
(292,222,cs),
(226,167,o),
(115,63,o),
(73,-27,cs),
(67,-40,o),
(64,-52,o),
(64,-63,cs),
(64,-77,o),
(70,-88,o),
(77,-96,cs),
(136,-162,o),
(225,-197,o),
(342,-197,cs),
(446,-197,o),
(541,-178,o),
(616,-159,cs),
(644,-150,o),
(650,-168,o),
(641,-177,cs),
(566,-269,o),
(413,-351,o),
(253,-351,cs),
(163,-351,o),
(77,-317,o),
(35,-261,cs),
(9,-227,o),
(-7,-180,o),
(-7,-121,cs),
(-7,-50,o),
(18,13,o),
(44,68,cs),
(88,158,o),
(154,235,o),
(221,295,cs),
(293,360,o),
(375,404,o),
(434,459,cs),
(443,468,o),
(457,461,o),
(453,447,c)
);
},
{
attr = {
gradient = {
colors = (
(
(210,46,31,128),
0
),
(
(210,46,31,255),
1
)
);
end = (0.1605,0.509);
start = (0.4054,0.1874);
};
};
closed = 1;
nodes = (
(197,249,l),
(149,315,o),
(120,339,o),
(120,432,cs),
(120,452,o),
(122,472,o),
(127,493,cs),
(138,534,o),
(159,582,o),
(197,603,c),
(202,488,l),
(210,434,o),
(222,417,o),
(255,389,cs),
(264,381,o),
(275,377,o),
(288,377,cs),
(327,377,o),
(403,430,o),
(434,459,c),
(409,335,l)
);
}
);
width = 683;
}
);
unicode = 1593;
}
{
glyphname = "qaf-ar";
layers = (
{
anchors = (
{
name = bottom;
pos = (334,-167);
},
{
name = bottom.mark;
pos = (321,-180);
},
{
name = top;
pos = (365,637);
},
{
name = top.mark;
pos = (444,655);
}
);
layerId = "1467EB51-6BD4-4CFC-AEAA-3E4EB1A95CFA";
shapes = (
{
closed = 1;
nodes = (
(381,-47,o),
(108,-58,o),
(156,194,cs),
(159,212,o),
(162,230,o),
(161,250,cs),
(161,259,o),
(159,277,o),
(148,275,cs),
(84,265,o),
(38,232,o),
(6,189,c),
(22,238,o),
(38,286,o),
(57,333,c),
(94,367,o),
(136,394,o),
(196,403,cs),
(204,404,o),
(214,396,o),
(214,388,cs),
(212,343,o),
(194,281,o),
(199,229,cs),
(214,63,o),
(446,165,o),
(519,232,c),
(520,257,o),
(519,318,o),
(512,339,cs),
(511,342,o),
(508,353,o),
(501,347,cs),
(480,329,o),
(443,314,o),
(411,330,cs),
(392,339,o),
(393,373,o),
(403,392,cs),
(425,433,o),
(444,479,o),
(471,516,cs),
(516,578,o),
(578,476,o),
(585,417,cs),
(594,338,o),
(545,190,o),
(500,125,cs)
);
}
);
width = 634;
},
{
anchors = (
{
name = bottom;
pos = (334,-167);
},
{
name = bottom.mark;
pos = (321,-180);
},
{
name = top;
pos = (365,637);
},
{
name = top.mark;
pos = (444,655);
}
);
layerId = "EF321139-F770-433D-B2B6-C3EFA1B16465";
shapes = (
{
closed = 1;
nodes = (
(386,340,o),
(380,349,o),
(380,365,cs),
(380,376,o),
(385,388,o),
(392,402,cs),
(403,423,o),
(411,444,o),
(421,466,cs),
(432,488,o),
(445,511,o),
(461,529,cs),
(471,539,o),
(483,546,o),
(501,539,cs),
(512,534,o),
(522,528,o),
(531,521,c),
(562,489,o),
(583,447,o),
(583,387,cs),
(583,364,o),
(580,343,o),
(575,322,cs),
(544,180,o),
(494,82,o),
(387,28,cs),
(354,12,o),
(319,0,o),
(277,0,cs),
(269,0,ls),
(221,0,o),
(185,27,o),
(163,56,cs),
(147,78,o),
(138,107,o),
(138,143,cs),
(138,179,o),
(149,217,o),
(149,255,c),
(147,265,l),
(94,256,o),
(53,231,o),
(21,188,cs),
(14,178,o),
(-4,186,o),
(0,199,cs),
(16,248,o),
(30,295,o),
(50,342,c),
(88,376,o),
(131,404,o),
(193,414,cs),
(214,416,o),
(224,407,o),
(224,387,cs),
(222,361,o),
(219,335,o),
(213,310,c),
(214,310,l),
(211,292,o),
(209,276,o),
(209,257,cs),
(209,246,ls),
(209,185,o),
(237,159,o),
(295,159,cs),
(305,159,o),
(317,160,o),
(329,162,cs),
(387,173,o),
(458,210,o),
(495,241,c),
(495,264,o),
(494,294,o),
(487,312,c),
(477,310,o),
(466,309,o),
(456,309,cs),
(448,309,ls),
(424,309,o),
(406,317,o),
(394,330,cs)
);
}
);
width = 634;
},
{
associatedMasterId = "1467EB51-6BD4-4CFC-AEAA-3E4EB1A95CFA";
attr = {
color = 1;
};
layerId = "385165BF-3240-40EF-ACA1-700AEDF20E6F";
name = "9 Jan 22, 19:21";
shapes = (
{
attr = {
gradient = {
colors = (
(
(210,46,31,128),
0
),
(
(210,46,31,255),
1
)
);
end = (0.431,0.6935);
start = (0.2079,0.0027);
};
};
closed = 1;
nodes = (
(551,248,o),
(534,241,o),
(518,224,c),
(520,238,o),
(520,315,o),
(512,339,cs),
(511,342,o),
(508,353,o),
(501,347,cs),
(480,329,o),
(443,314,o),
(411,330,cs),
(392,339,o),
(393,373,o),
(403,392,cs),
(425,433,o),
(444,479,o),
(471,516,cs),
(516,578,o),
(578,476,o),
(585,417,cs),
(589,380,o),
(581,327,o),
(565,275,c)
);
},
{
attr = {
gradient = {
colors = (
(
(210,46,31,128),
0
),
(
(210,46,31,255),
1
)
);
end = (0.8227,0.423);
start = (-0.0488,0.8418);
};
};
closed = 1;
nodes = (
(215,56,o),
(475,168,o),
(565,275,c),
(549,217,o),
(524,159,o),
(500,125,cs),
(381,-47,o),
(108,-58,o),
(156,194,cs),
(159,212,o),
(162,230,o),
(161,250,cs),
(161,259,o),
(159,277,o),
(148,275,cs),
(84,265,o),
(38,232,o),
(6,189,c),
(22,238,o),
(38,286,o),
(57,333,c),
(94,367,o),
(136,394,o),
(196,403,cs),
(204,404,o),
(214,396,o),
(214,388,cs),
(212,343,o),
(194,281,o),
(199,229,cs)
);
}
);
width = 634;
},
{
associatedMasterId = "EF321139-F770-433D-B2B6-C3EFA1B16465";
attr = {
color = 1;
};
layerId = "9B8B6DA8-CCD3-46A5-A58F-7147F0FA10B3";
name = "9 Jan 22, 19:25";
shapes = (
{
attr = {
gradient = {
colors = (
(
(210,46,31,128),
0
),
(
(210,46,31,255),
1
)
);
end = (0.8227,0.423);
start = (-0.0488,0.8418);
};
};
closed = 1;
nodes = (
(569,294,c),
(537,167,o),
(487,78,o),
(387,28,cs),
(354,12,o),
(319,0,o),
(277,0,cs),
(221,0,o),
(185,27,o),
(163,56,cs),
(147,78,o),
(138,107,o),
(138,143,cs),
(138,179,o),
(149,217,o),
(149,255,c),
(147,265,l),
(94,256,o),
(53,231,o),
(21,188,cs),
(14,178,o),
(-4,186,o),
(0,199,cs),
(16,248,o),
(30,295,o),
(50,342,c),
(88,376,o),
(131,404,o),
(193,414,cs),
(214,416,o),
(224,407,o),
(224,387,cs),
(222,361,o),
(219,335,o),
(214,310,c),
(211,292,o),
(209,276,o),
(209,257,cs),
(209,246,ls),
(209,185,o),
(237,159,o),
(295,159,cs),
(305,159,o),
(317,160,o),
(329,162,cs),
(392,174,o),
(470,217,o)
);
},
{
attr = {
gradient = {
colors = (
(
(210,46,31,128),
0
),
(
(210,46,31,255),
1
)
);
end = (0.431,0.6935);
start = (0.2079,0.0027);
};
};
closed = 1;
nodes = (
(495,227,l),
(495,250,o),
(496,290,o),
(487,312,c),
(477,310,o),
(466,309,o),
(456,309,cs),
(448,309,ls),
(424,309,o),
(406,317,o),
(394,330,cs),
(386,340,o),
(380,349,o),
(380,365,cs),
(380,376,o),
(385,388,o),
(392,402,cs),
(403,423,o),
(411,444,o),
(421,466,cs),
(432,488,o),
(445,511,o),
(461,529,cs),
(471,539,o),
(483,546,o),
(501,539,cs),
(512,534,o),
(522,528,o),
(531,521,c),
(562,489,o),
(583,447,o),
(583,387,cs),
(583,364,o),
(580,343,o),
(575,322,cs),
(573,313,o),
(571,303,o),
(569,294,c)
);
}
);
width = 634;
}
);
unicode = 1602;
}
{
glyphname = "kaf-ar";
layers = (
{
anchors = (
{
name = bottom;
pos = (255,-127);
},
{
name = bottom.mark;
pos = (237,-149);
},
{
name = top;
pos = (308,769);
},
{
name = top.gaf;
pos = (308,769);
},
{
name = top.mark;
pos = (316,721);
}
);
layerId = "1467EB51-6BD4-4CFC-AEAA-3E4EB1A95CFA";
shapes = (
{
closed = 1;
nodes = (
(494,221,o),
(493,226,o),
(492,239,cs),
(464,608,l),
(537,730,l),
(567,343,ls),
(571,282,o),
(540,226,o),
(507,176,cs),
(409,26,o),
(80,-93,o),
(8,99,cs),
(-25,188,o),
(45,303,o),
(94,380,cs),
(406,867,o),
(507,334,o),
(185,219,c),
(228,350,l),
(266,358,o),
(274,364,o),
(308,380,c),
(287,509,o),
(176,443,o),
(128,373,cs),
(82,306,o),
(14,234,o),
(103,165,cs),
(197,91,o),
(399,170,o),
(488,217,c)
);
}
);
width = 568;
},
{
anchors = (
{
name = bottom;
pos = (255,-127);
},
{
name = bottom.mark;
pos = (237,-149);
},
{
name = top;
pos = (308,769);
},
{
name = top.gaf;
pos = (308,769);
},
{
name = top.mark;
pos = (316,721);
}
);
layerId = "EF321139-F770-433D-B2B6-C3EFA1B16465";
shapes = (
{
closed = 1;
nodes = (
(357,583,o),
(386,542,o),
(386,481,cs),
(386,435,o),
(370,394,o),
(354,357,cs),
(321,287,o),
(265,241,o),
(188,213,cs),
(178,210,o),
(170,218,o),
(173,228,cs),
(214,354,l),
(218,363,o),
(237,364,o),
(245,367,cs),
(251,369,o),
(256,371,o),
(260,373,cs),
(290,386,l),
(283,423,o),
(270,441,o),
(250,441,cs),
(242,441,o),
(236,441,o),
(230,438,cs),
(193,423,o),
(160,397,o),
(139,366,cs),
(118,334,o),
(97,302,o),
(78,268,cs),
(73,259,o),
(71,250,o),
(71,242,cs),
(71,222,o),
(85,202,o),
(112,181,cs),
(133,164,o),
(162,155,o),
(197,155,cs),
(202,155,ls),
(231,155,o),
(260,158,o),
(290,165,cs),
(326,174,o),
(358,183,o),
(390,196,cs),
(423,210,o),
(445,218,o),
(454,223,cs),
(463,228,o),
(468,233,o),
(468,237,cs),
(468,242,l),
(441,602,l),
(514,724,ls),
(520,733,o),
(535,731,o),
(536,719,cs),
(564,346,ls),
(564,344,o),
(565,343,o),
(565,341,cs),
(565,334,ls),
(565,283,o),
(546,248,o),
(528,214,cs),
(521,201,o),
(512,187,o),
(505,175,cs),
(478,134,o),
(440,102,o),
(396,74,cs),
(348,44,o),
(298,22,o),
(247,10,cs),
(221,4,o),
(196,1,o),
(171,1,cs),
(147,1,o),
(124,4,o),
(102,10,cs),
(40,26,o),
(2,78,o),
(-7,148,cs),
(-8,153,o),
(-8,158,o),
(-8,162,cs),
(-8,197,o),
(2,226,o),
(14,253,cs),
(35,298,o),
(61,347,o),
(86,386,cs),
(163,507,o),
(227,572,o),
(278,581,cs),
(286,582,o),
(294,583,o),
(303,583,cs)
);
}
);
width = 568;
},
{
associatedMasterId = "1467EB51-6BD4-4CFC-AEAA-3E4EB1A95CFA";
attr = {
color = 1;
};
layerId = "A5161B16-44B8-44EF-BBBC-CF2D9805AC30";
name = "9 Jan 22, 20:28";
shapes = (
{
attr = {
gradient = {
colors = (
(
(210,46,31,128),
0
),
(
(210,46,31,255),
1
)
);
end = (0.8227,0.423);
start = (-0.0488,0.8418);
};
};
closed = 1;
nodes = (
(548,249,l),
(537,223,o),
(522,199,o),
(507,176,cs),
(409,26,o),
(80,-93,o),
(8,99,cs),
(-25,188,o),
(45,303,o),
(94,380,cs),
(406,867,o),
(507,334,o),
(185,219,c),
(228,350,l),
(266,358,o),
(274,364,o),
(308,380,c),
(287,509,o),
(176,443,o),
(128,373,cs),
(82,306,o),
(14,234,o),
(103,165,cs),
(201,88,o),
(415,177,o),
(498,222,cs)
);
},
{
attr = {
gradient = {
colors = (
(
(210,46,31,128),
0
),
(
(210,46,31,255),
1
)
);
end = (-0.3618,0.3448);
start = (1.0152,0.1787);
};
};
closed = 1;
nodes = (
(464,195,l),
(493,214,o),
(494,217,o),
(492,239,cs),
(464,608,l),
(537,730,l),
(567,343,ls),
(570,310,o),
(561,279,o),
(548,249,c)
);
}
);
width = 568;
},
{
associatedMasterId = "EF321139-F770-433D-B2B6-C3EFA1B16465";
attr = {
color = 1;
};
layerId = "5FF9E071-05E4-47A4-AFCD-BAD08F1212C0";
name = "9 Jan 22, 20:33";
shapes = (
{
attr = {
gradient = {
colors = (
(
(210,46,31,128),
0
),
(
(210,46,31,255),
1
)
);
end = (-0.3618,0.3448);
start = (1.0152,0.1787);
};
};
closed = 1;
nodes = (
(468,221,l),
(468,242,l),
(441,602,l),
(514,724,ls),
(520,733,o),
(535,731,o),
(536,719,cs),
(564,346,ls),
(564,344,o),
(565,343,o),
(565,341,cs),
(565,334,ls),
(565,317,o),
(563,302,o),
(560,288,c)
);
},
{
attr = {
gradient = {
colors = (
(
(210,46,31,128),
0
),
(
(210,46,31,255),
1
)
);
end = (0.8227,0.423);
start = (-0.0488,0.8418);
};
};
closed = 1;
nodes = (
(560,288,c),
(553,260,o),
(540,237,o),
(528,214,cs),
(521,201,o),
(512,187,o),
(505,175,cs),
(478,134,o),
(440,102,o),
(396,74,cs),
(348,44,o),
(298,22,o),
(247,10,cs),
(221,4,o),
(196,1,o),
(171,1,cs),
(147,1,o),
(124,4,o),
(102,10,cs),
(40,26,o),
(2,78,o),
(-7,148,cs),
(-8,153,o),
(-8,158,o),
(-8,162,cs),
(-8,197,o),
(2,226,o),
(14,253,cs),
(35,298,o),
(61,347,o),
(86,386,cs),
(163,507,o),
(227,572,o),
(278,581,cs),
(286,582,o),
(294,583,o),
(303,583,cs),
(357,583,o),
(386,542,o),
(386,481,cs),
(386,435,o),
(370,394,o),
(354,357,cs),
(321,287,o),
(265,241,o),
(188,213,cs),
(178,210,o),
(170,218,o),
(173,228,cs),
(214,354,l),
(218,363,o),
(237,364,o),
(245,367,cs),
(251,369,o),
(256,371,o),
(260,373,cs),
(290,386,l),
(283,423,o),
(270,441,o),
(250,441,cs),
(242,441,o),
(236,441,o),
(230,438,cs),
(193,423,o),
(160,397,o),
(139,366,cs),
(118,334,o),
(97,302,o),
(78,268,cs),
(73,259,o),
(71,250,o),
(71,242,cs),
(71,222,o),
(85,202,o),
(112,181,cs),
(133,164,o),
(162,155,o),
(197,155,cs),
(202,155,ls),
(231,155,o),
(260,158,o),
(290,165,cs),
(326,174,o),
(358,183,o),
(390,196,cs),
(429,213,o),
(457,228,o)
);
}
);
width = 568;
}
);
unicode = 1603;
}
{
glyphname = "lam-ar";
layers = (
{
anchors = (
{
name = bottom;
pos = (176,-189);
},
{
name = bottom.mark;
pos = (180,-163);
},
{
name = top;
pos = (198,844);
},
{
name = top.mark;
pos = (242,848);
}
);
layerId = "1467EB51-6BD4-4CFC-AEAA-3E4EB1A95CFA";
shapes = (
{
closed = 1;
nodes = (
(402,784,l),
(428,366,l),
(428,281,o),
(398,197,o),
(349,126,cs),
(203,-85,o),
(-169,-57,o),
(87,409,cs),
(95,425,o),
(107,422,o),
(98,398,cs),
(67,329,o),
(-21,195,o),
(86,149,c),
(197,129,o),
(292,169,o),
(356,223,c),
(328,666,l)
);
}
);
width = 445;
},
{
anchors = (
{
name = bottom;
pos = (176,-189);
},
{
name = bottom.mark;
pos = (180,-163);
},
{
name = top;
pos = (198,844);
},
{
name = top.mark;
pos = (242,848);
}
);
layerId = "EF321139-F770-433D-B2B6-C3EFA1B16465";
shapes = (
{
closed = 1;
nodes = (
(108,428,o),
(114,420,o),
(114,410,cs),
(114,391,o),
(104,379,o),
(97,364,cs),
(82,334,o),
(63,302,o),
(55,265,cs),
(52,254,o),
(51,241,o),
(51,230,cs),
(51,195,o),
(62,180,o),
(92,167,c),
(110,164,o),
(128,162,o),
(147,162,cs),
(178,162,o),
(206,168,o),
(231,176,cs),
(272,190,o),
(307,209,o),
(336,232,c),
(309,658,l),
(382,775,ls),
(389,785,o),
(403,782,o),
(404,770,c),
(429,366,l),
(429,270,o),
(394,189,o),
(352,127,cs),
(315,74,o),
(267,37,o),
(211,16,cs),
(182,6,o),
(155,0,o),
(130,0,cs),
(29,0,o),
(-9,88,o),
(-9,153,cs),
(-9,192,o),
(-1,229,o),
(14,272,cs),
(29,315,o),
(50,362,o),
(78,413,cs),
(84,423,o),
(90,428,o),
(97,428,cs)
);
}
);
width = 445;
},
{
associatedMasterId = "1467EB51-6BD4-4CFC-AEAA-3E4EB1A95CFA";
attr = {
color = 1;
};
layerId = "9BB1F967-C29F-4119-909A-9FD12D1FBE0A";
name = "2 Jan 22, 22:46";
shapes = (
{
attr = {
gradient = {
colors = (
(
(210,46,31,128),
0
),
(
(210,46,31,255),
1
)
);
end = (0.5169,0.3742);
start = (0.1636,0.5296);
};
};
closed = 1;
nodes = (
(420,287,l),
(408,230,o),
(383,175,o),
(349,126,cs),
(203,-85,o),
(-169,-57,o),
(87,409,cs),
(95,425,o),
(107,422,o),
(98,398,cs),
(67,329,o),
(-21,195,o),
(86,149,c),
(203,128,o),
(302,174,o),
(366,232,c)
);
},
{
attr = {
gradient = {
colors = (
(
(210,46,31,128),
0
),
(
(210,46,31,255),
1
)
);
end = (0.7487,0.2931);
start = (0.2079,0.0027);
};
};
closed = 1;
nodes = (
(357,207,l),
(328,666,l),
(402,784,l),
(428,366,l),
(428,340,o),
(425,313,o),
(420,287,c)
);
}
);
width = 445;
},
{
associatedMasterId = "EF321139-F770-433D-B2B6-C3EFA1B16465";
attr = {
color = 1;
};
layerId = "9FA469AC-4117-405A-89E9-8C826FC3E230";
name = "2 Jan 22, 22:47";
shapes = (
{
attr = {
gradient = {
colors = (
(
(210,46,31,128),
0
),
(
(210,46,31,255),
1
)
);
end = (0.7487,0.2931);
start = (0.2079,0.0027);
};
};
closed = 1;
nodes = (
(337,216,l),
(309,658,l),
(382,775,ls),
(389,785,o),
(403,782,o),
(404,770,cs),
(429,366,l),
(429,345,o),
(427,325,o),
(424,306,c)
);
},
{
attr = {
gradient = {
colors = (
(
(210,46,31,128),
0
),
(
(210,46,31,255),
1
)
);
end = (0.5169,0.3742);
start = (0.1636,0.5296);
};
};
closed = 1;
nodes = (
(424,306,l),
(414,236,o),
(385,176,o),
(352,127,cs),
(315,74,o),
(267,37,o),
(211,16,cs),
(182,6,o),
(155,0,o),
(130,0,cs),
(29,0,o),
(-9,88,o),
(-9,153,cs),
(-9,192,o),
(-1,229,o),
(14,272,cs),
(29,315,o),
(50,362,o),
(78,413,cs),
(84,423,o),
(90,428,o),
(97,428,cs),
(108,428,o),
(114,420,o),
(114,410,cs),
(114,391,o),
(104,379,o),
(97,364,cs),
(82,334,o),
(63,302,o),
(55,265,cs),
(52,254,o),
(51,241,o),
(51,230,cs),
(51,195,o),
(62,180,o),
(92,167,c),
(110,164,o),
(128,162,o),
(147,162,cs),
(178,162,o),
(206,168,o),
(231,176,cs),
(277,192,o),
(316,214,o),
(347,241,cs)
);
}
);
width = 445;
}
);
unicode = 1604;
}
{
glyphname = "meem-ar";
layers = (
{
anchors = (
{
name = bottom;
pos = (299,-9);
},
{
name = bottom.mark;
pos = (317,-24);
},
{
name = top;
pos = (166,586);
},
{
name = top.mark;
pos = (225,625);
}
);
attr = {
color = 1;
};
layerId = "1467EB51-6BD4-4CFC-AEAA-3E4EB1A95CFA";
shapes = (
{
attr = {
gradient = {
colors = (
(
(210,46,31,128),
0
),
(
(210,46,31,255),
1
)
);
end = (0.7204,0.6792);
start = (0.0235,0.1876);
};
};
closed = 1;
nodes = (
(451,350,o),
(405,303,o),
(309,254,cs),
(244,221,o),
(153,212,o),
(88,177,cs),
(62,163,o),
(31,145,o),
(38,102,cs),
(80,-159,l),
(88,-225,o),
(82,-302,o),
(66,-358,c),
(47,-218,o),
(4,-94,o),
(3,52,cs),
(3,125,o),
(19,196,o),
(44,252,c),
(78,304,o),
(138,323,o),
(211,343,cs),
(281,361,l),
(333,476,o),
(336,477,o),
(354,494,cs),
(376,514,o),
(422,505,o),
(458,501,cs),
(477,499,o),
(478,481,o),
(475,468,cs)
);
}
);
width = 505;
},
{
anchors = (
{
name = bottom;
pos = (299,-9);
},
{
name = bottom.mark;
pos = (317,-24);
},
{
name = top;
pos = (166,586);
},
{
name = top.mark;
pos = (225,625);
}
);
attr = {
color = 1;
};
layerId = "EF321139-F770-433D-B2B6-C3EFA1B16465";
shapes = (
{
attr = {
gradient = {
colors = (
(
(210,46,31,128),
0
),
(
(210,46,31,255),
1
)
);
end = (0.7204,0.6792);
start = (0.0235,0.1876);
};
};
closed = 1;
nodes = (
(463,403,o),
(446,358,o),
(416,324,cs),
(365,268,o),
(283,226,o),
(195,207,cs),
(141,196,o),
(93,176,o),
(58,146,cs),
(52,140,o),
(49,133,o),
(49,122,cs),
(49,116,ls),
(49,114,o),
(49,113,o),
(50,110,c),
(90,-143,ls),
(93,-165,o),
(94,-188,o),
(94,-211,cs),
(94,-256,o),
(89,-298,o),
(77,-339,cs),
(73,-350,o),
(55,-350,o),
(54,-337,cs),
(45,-269,o),
(32,-205,o),
(17,-143,cs),
(2,-81,o),
(-7,-15,o),
(-8,60,cs),
(-8,135,o),
(10,205,o),
(33,258,c),
(62,302,o),
(98,317,o),
(150,335,cs),
(187,348,o),
(228,358,o),
(267,370,c),
(301,446,ls),
(310,466,o),
(320,480,o),
(329,490,cs),
(338,500,o),
(349,505,o),
(360,506,c),
(370,509,o),
(385,511,o),
(404,511,cs),
(415,511,ls),
(459,511,o),
(482,496,o),
(475,458,cs)
);
}
);
width = 505;
}
);
unicode = 1605;
}
{
glyphname = "noon-ar";
layers = (
{
anchors = (
{
name = bottom;
pos = (185,-101);
},
{
name = bottom.mark;
pos = (205,-171);
},
{
name = top;
pos = (237,664);
},
{
name = top.mark;
pos = (277,650);
}
);
layerId = "1467EB51-6BD4-4CFC-AEAA-3E4EB1A95CFA";
shapes = (
{
closed = 1;
nodes = (
(368,296,o),
(356,336,o),
(343,378,c),
(397,503,l),
(418,459,o),
(429,414,o),
(429,367,cs),
(429,348,o),
(428,328,o),
(424,309,cs),
(412,241,o),
(387,180,o),
(350,126,cs),
(313,73,o),
(267,37,o),
(211,16,cs),
(182,6,o),
(155,0,o),
(131,0,cs),
(108,0,o),
(87,6,o),
(68,15,cs),
(26,35,o),
(0,84,o),
(0,155,cs),
(0,217,o),
(28,302,o),
(87,409,cs),
(103,439,o),
(124,475,o),
(141,504,c),
(156,496,l),
(236,442,l),
(225,422,o),
(215,403,o),
(204,384,cs),
(172,327,l),
(98,377,l),
(80,337,o),
(60,297,o),
(42,248,cs),
(37,236,o),
(35,224,o),
(35,214,cs),
(35,185,o),
(52,164,o),
(87,149,c),
(108,145,o),
(129,143,o),
(149,143,cs),
(184,143,o),
(217,149,o),
(248,161,cs),
(296,180,o),
(336,204,o),
(368,233,c),
(368,242,ls)
);
}
);
width = 463;
},
{
anchors = (
{
name = bottom;
pos = (185,-101);
},
{
name = bottom.mark;
pos = (205,-171);
},
{
name = top;
pos = (237,664);
},
{
name = top.mark;
pos = (277,650);
}
);
layerId = "EF321139-F770-433D-B2B6-C3EFA1B16465";
shapes = (
{
closed = 1;
nodes = (
(348,298,o),
(334,337,o),
(322,378,c),
(377,503,ls),
(381,513,o),
(394,513,o),
(398,503,cs),
(419,458,o),
(430,413,o),
(430,366,cs),
(430,306,o),
(415,258,o),
(397,213,cs),
(385,183,o),
(371,154,o),
(352,127,cs),
(315,74,o),
(267,37,o),
(211,16,cs),
(182,6,o),
(155,0,o),
(130,0,cs),
(107,0,o),
(85,6,o),
(64,16,c),
(64,15,l),
(21,36,o),
(-1,86,o),
(-8,146,cs),
(-8,148,o),
(-9,150,o),
(-9,153,cs),
(-9,161,ls),
(-9,192,o),
(-1,229,o),
(14,272,cs),
(36,335,o),
(79,417,o),
(115,480,cs),
(129,505,ls),
(132,510,o),
(139,513,o),
(145,509,cs),
(159,501,l),
(160,501,l),
(239,449,ls),
(243,446,o),
(246,439,o),
(242,433,cs),
(180,322,ls),
(177,316,o),
(170,314,o),
(163,318,cs),
(102,358,l),
(85,323,o),
(70,286,o),
(55,247,c),
(56,248,l),
(53,239,o),
(49,230,o),
(49,219,cs),
(49,197,o),
(64,180,o),
(92,167,c),
(113,163,o),
(131,162,o),
(148,162,cs),
(208,162,o),
(260,183,o),
(299,206,cs),
(317,216,o),
(333,229,o),
(348,242,c),
(348,245,ls)
);
}
);
width = 463;
},
{
associatedMasterId = "1467EB51-6BD4-4CFC-AEAA-3E4EB1A95CFA";
attr = {
color = 1;
};
layerId = "ACFCC174-D8B7-4FCA-ACC2-FD6F1EAF9871";
name = "10 Jan 22, 21:41";
shapes = (
{
attr = {
gradient = {
colors = (
(
(210,46,31,128),
0
),
(
(210,46,31,255),
1
)
);
end = (0.4591,0.4499);
start = (0.837,0.281);
};
};
closed = 1;
nodes = (
(143,505,l),
(236,442,l),
(225,422,o),
(215,403,o),
(204,384,cs),
(172,327,l),
(78,391,l)
);
},
{
attr = {
gradient = {
colors = (
(
(210,46,31,128),
0
),
(
(210,46,31,255),
1
)
);
end = (0.7487,0.2931);
start = (0.2079,0.0027);
};
};
closed = 1;
nodes = (
(368,218,l),
(368,242,ls),
(368,296,o),
(356,336,o),
(343,378,c),
(397,503,l),
(418,459,o),
(429,414,o),
(429,367,cs),
(429,348,o),
(428,328,o),
(424,309,cs),
(421,290,o),
(416,271,o),
(411,253,c)
);
},
{
attr = {
gradient = {
colors = (
(
(210,46,31,128),
0
),
(
(210,46,31,255),
1
)
);
end = (0.5169,0.3742);
start = (0.1636,0.5296);
};
};
closed = 1;
nodes = (
(80,341,o),
(61,299,o),
(42,248,cs),
(37,236,o),
(35,224,o),
(35,214,cs),
(35,185,o),
(52,164,o),
(87,149,c),
(108,145,o),
(129,143,o),
(149,143,cs),
(184,143,o),
(217,149,o),
(248,161,cs),
(301,182,o),
(352,210,o),
(419,282,c),
(405,224,o),
(382,172,o),
(350,126,cs),
(313,73,o),
(267,37,o),
(211,16,cs),
(182,6,o),
(155,0,o),
(131,0,cs),
(108,0,o),
(87,6,o),
(68,15,cs),
(26,35,o),
(0,84,o),
(0,155,cs),
(0,217,o),
(28,302,o),
(87,409,cs),
(103,439,o),
(124,475,o),
(141,504,c),
(154,497,l)
);
}
);
width = 463;
},
{
associatedMasterId = "EF321139-F770-433D-B2B6-C3EFA1B16465";
attr = {
color = 1;
};
layerId = "E048AB20-A5D8-4A5C-B6B9-AA8B2069A70A";
name = "10 Jan 22, 21:46";
shapes = (
{
attr = {
gradient = {
colors = (
(
(210,46,31,128),
0
),
(
(210,46,31,255),
1
)
);
end = (0.4591,0.4499);
start = (0.837,0.281);
};
};
closed = 1;
nodes = (
(135,518,l),
(239,449,ls),
(243,446,o),
(246,439,o),
(242,433,cs),
(180,322,ls),
(177,316,o),
(170,314,o),
(163,318,cs),
(64,383,l)
);
},
{
attr = {
gradient = {
colors = (
(
(210,46,31,128),
0
),
(
(210,46,31,255),
1
)
);
end = (0.7487,0.2931);
start = (0.2079,0.0027);
};
};
closed = 1;
nodes = (
(348,226,l),
(348,245,ls),
(348,298,o),
(334,337,o),
(322,378,c),
(377,503,ls),
(381,513,o),
(394,513,o),
(398,503,cs),
(419,458,o),
(430,413,o),
(430,366,cs),
(430,339,o),
(427,315,o),
(422,292,c)
);
},
{
attr = {
gradient = {
colors = (
(
(210,46,31,128),
0
),
(
(210,46,31,255),
1
)
);
end = (0.5169,0.3742);
start = (0.1636,0.5296);
};
};
closed = 1;
nodes = (
(109,372,ls),
(88,333,o),
(72,291,o),
(55,247,c),
(56,248,l),
(53,239,o),
(49,230,o),
(49,219,cs),
(49,197,o),
(64,180,o),
(92,167,c),
(113,163,o),
(131,162,o),
(148,162,cs),
(208,162,o),
(260,183,o),
(299,206,cs),
(322,219,o),
(341,236,o),
(422,292,c),
(416,264,o),
(407,238,o),
(397,213,cs),
(385,183,o),
(371,154,o),
(352,127,cs),
(315,74,o),
(267,37,o),
(211,16,cs),
(182,6,o),
(155,0,o),
(130,0,cs),
(107,0,o),
(85,6,o),
(64,16,c),
(64,15,l),
(21,36,o),
(-1,86,o),
(-8,146,cs),
(-8,148,o),
(-9,150,o),
(-9,153,cs),
(-9,161,ls),
(-9,192,o),
(-1,229,o),
(14,272,cs),
(36,335,o),
(80,417,o),
(115,480,cs),
(129,505,ls),
(132,510,o),
(139,512,o),
(145,509,cs),
(174,493,l)
);
}
);
width = 463;
}
);
unicode = 1606;
}
{
glyphname = "heh-ar";
layers = (
{
anchors = (
{
name = bottom;
pos = (75,-132);
},
{
name = bottom.mark;
pos = (97,-167);
},
{
name = top;
pos = (145,558);
},
{
name = top.mark;
pos = (158,558);
}
);
layerId = "1467EB51-6BD4-4CFC-AEAA-3E4EB1A95CFA";
shapes = (
{
closed = 1;
nodes = (
(90,298,o),
(48,179,o),
(44,164,c),
(42,160,o),
(51,152,o),
(57,149,cs),
(96,132,o),
(142,149,o),
(171,167,cs),
(188,178,o),
(151,256,o),
(138,265,cs)
);
},
{
closed = 1;
nodes = (
(201,93,o),
(174,25,o),
(90,3,cs),
(-30,-28,o),
(-9,104,o),
(31,220,cs),
(145,553,o),
(267,393,o),
(217,167,cs)
);
}
);
width = 247;
},
{
anchors = (
{
name = bottom;
pos = (75,-132);
},
{
name = bottom.mark;
pos = (97,-167);
},
{
name = top;
pos = (145,558);
},
{
name = top.mark;
pos = (158,558);
}
);
layerId = "EF321139-F770-433D-B2B6-C3EFA1B16465";
shapes = (
{
closed = 1;
nodes = (
(143,237,o),
(135,265,o),
(115,265,cs),
(100,265,o),
(90,246,o),
(84,233,cs),
(76,217,o),
(70,203,o),
(65,192,cs),
(55,169,o),
(71,162,o),
(91,162,cs),
(117,162,o),
(145,176,o),
(160,185,c),
(160,185,o),
(161,186,o),
(161,187,cs),
(161,196,o),
(154,209,o),
(151,218,cs)
);
},
{
closed = 1;
nodes = (
(234,192,o),
(214,123,o),
(185,71,cs),
(167,39,o),
(136,16,o),
(92,5,cs),
(77,1,o),
(64,0,o),
(53,0,cs),
(12,0,o),
(-9,21,o),
(-9,66,cs),
(-9,69,o),
(-9,70,o),
(-8,72,c),
(-6,191,o),
(57,348,o),
(105,393,cs),
(124,412,o),
(143,421,o),
(161,421,cs),
(170,421,o),
(180,419,o),
(188,413,cs),
(209,398,o),
(223,368,o),
(231,322,cs),
(233,306,o),
(234,289,o),
(234,271,cs)
);
}
);
width = 247;
},
{
associatedMasterId = "1467EB51-6BD4-4CFC-AEAA-3E4EB1A95CFA";
attr = {
color = 1;
};
layerId = "C3482145-586D-4254-8756-D786645E1B38";
name = "10 Jan 22, 22:05";
shapes = (
{
attr = {
gradient = {
colors = (
(
(210,46,31,255),
0
),
(
(210,46,31,255),
1
)
);
end = (0.2732,0.4338);
start = (0.8407,0.2198);
};
};
closed = 1;
nodes = (
(209,188,o),
(191,174,o),
(171,167,c),
(188,178,o),
(151,256,o),
(138,265,cs),
(95,295,o),
(55,198,o),
(43,159,c),
(35,171,o),
(28,182,o),
(24,198,c),
(26,205,o),
(28,213,o),
(31,220,cs),
(137,530,o),
(250,413,o),
(225,214,c)
);
},
{
attr = {
gradient = {
colors = (
(
(210,46,31,128),
0
),
(
(210,46,31,255),
1
)
);
end = (0.6269,0.4077);
start = (0.034,0.5188);
};
};
closed = 1;
nodes = (
(225,214,l),
(223,198,o),
(221,183,o),
(217,167,cs),
(201,93,o),
(174,25,o),
(90,3,cs),
(-22,-26,o),
(-11,88,o),
(24,198,c),
(33,167,o),
(48,153,o),
(57,149,cs),
(96,132,o),
(142,149,o),
(171,167,c)
);
}
);
width = 247;
},
{
associatedMasterId = "EF321139-F770-433D-B2B6-C3EFA1B16465";
attr = {
color = 1;
};
layerId = "5493A51D-EB46-4440-86DD-1C5DEF5F4D80";
name = "10 Jan 22, 22:12";
shapes = (
{
attr = {
gradient = {
colors = (
(
(210,46,31,128),
0
),
(
(210,46,31,255),
1
)
);
end = (0.6269,0.4077);
start = (0.034,0.5188);
};
};
closed = 1;
nodes = (
(55,169,o),
(71,162,o),
(91,162,cs),
(123,162,o),
(159,183,o),
(232,226,c),
(226,166,o),
(208,113,o),
(185,71,cs),
(167,39,o),
(136,16,o),
(92,5,cs),
(77,1,o),
(64,0,o),
(53,0,cs),
(12,0,o),
(-9,21,o),
(-9,66,cs),
(-9,106,o),
(2,166,o),
(20,226,c)
);
},
{
attr = {
gradient = {
colors = (
(
(210,46,31,255),
0
),
(
(210,46,31,255),
1
)
);
end = (0.2732,0.4338);
start = (0.8407,0.2198);
};
};
closed = 1;
nodes = (
(43,189,o),
(32,206,o),
(20,226,c),
(40,294,o),
(70,360,o),
(105,393,cs),
(124,412,o),
(143,421,o),
(161,421,cs),
(170,421,o),
(180,419,o),
(188,413,cs),
(209,398,o),
(223,368,o),
(231,322,cs),
(233,306,o),
(234,289,o),
(234,271,cs),
(234,255,o),
(233,240,o),
(232,226,c),
(161,175,l),
(166,191,o),
(139,265,o),
(115,265,cs),
(100,265,o),
(90,246,o),
(84,233,cs),
(76,217,o),
(70,203,o),
(65,192,cs),
(59,178,o),
(60,176,o),
(63,170,c)
);
}
);
width = 247;
}
);
unicode = 1607;
}
{
glyphname = "waw-ar";
layers = (
{
anchors = (
{
name = bottom;
pos = (224,-92);
},
{
name = bottom.mark;
pos = (288,-171);
},
{
name = top;
pos = (386,606);
},
{
name = top.mark;
pos = (396,633);
}
);
layerId = "1467EB51-6BD4-4CFC-AEAA-3E4EB1A95CFA";
shapes = (
{
closed = 1;
nodes = (
(157,-6,o),
(78,1,o),
(5,8,cs),
(-2,9,o),
(-2,19,o),
(4,22,cs),
(108,80,o),
(229,120,o),
(344,167,cs),
(375,179,o),
(400,198,o),
(420,221,cs),
(427,228,o),
(420,248,o),
(413,258,c),
(381,251,o),
(338,253,o),
(321,272,cs),
(306,289,o),
(309,313,o),
(319,333,cs),
(341,377,o),
(357,425,o),
(389,461,cs),
(404,478,o),
(432,465,o),
(444,453,cs),
(573,322,o),
(410,43,o),
(230,8,cs)
);
}
);
width = 491;
},
{
anchors = (
{
name = bottom;
pos = (224,-92);
},
{
name = bottom.mark;
pos = (288,-171);
},
{
name = top;
pos = (386,606);
},
{
name = top.mark;
pos = (396,633);
}
);
layerId = "EF321139-F770-433D-B2B6-C3EFA1B16465";
shapes = (
{
closed = 1;
nodes = (
(297,275,o),
(291,285,o),
(291,301,cs),
(291,325,o),
(308,351,o),
(317,370,cs),
(333,405,o),
(347,438,o),
(371,465,cs),
(379,473,o),
(387,478,o),
(397,478,cs),
(415,478,o),
(432,466,o),
(441,457,cs),
(473,424,o),
(489,385,o),
(489,339,cs),
(489,333,ls),
(489,279,o),
(471,232,o),
(451,193,cs),
(406,111,o),
(327,28,o),
(228,8,cs),
(199,3,o),
(170,0,o),
(137,0,cs),
(127,0,ls),
(87,0,o),
(46,5,o),
(8,8,cs),
(-2,9,o),
(-8,14,o),
(-8,25,cs),
(-8,32,o),
(-5,39,o),
(1,43,cs),
(102,99,o),
(221,140,o),
(332,185,cs),
(359,196,o),
(382,212,o),
(400,232,c),
(400,237,o),
(399,243,o),
(396,248,c),
(387,246,o),
(378,245,o),
(367,245,cs),
(339,245,o),
(317,252,o),
(305,266,c)
);
}
);
width = 491;
},
{
associatedMasterId = "1467EB51-6BD4-4CFC-AEAA-3E4EB1A95CFA";
attr = {
color = 1;
};
layerId = "12868A4E-81ED-46A1-979B-652D48297CE3";
name = "11 Jan 22, 20:21";
shapes = (
{
attr = {
gradient = {
colors = (
(
(210,46,31,128),
0
),
(
(210,46,31,255),
1
)
);
end = (0.8227,0.423);
start = (-0.0488,0.8418);
};
};
closed = 1;
nodes = (
(380,181,o),
(408,205,o),
(486,288,c),
(463,164,o),
(350,31,o),
(230,8,cs),
(157,-6,o),
(78,1,o),
(5,8,cs),
(-2,9,o),
(-2,19,o),
(4,22,cs),
(108,80,o),
(229,120,o),
(344,167,cs)
);
},
{
attr = {
gradient = {
colors = (
(
(210,46,31,128),
0
),
(
(210,46,31,255),
1
)
);
end = (0.431,0.6935);
start = (0.2079,0.0027);
};
};
closed = 1;
nodes = (
(468,258,o),
(449,233,o),
(421,222,c),
(425,233,o),
(421,246,o),
(413,258,c),
(381,251,o),
(338,253,o),
(321,272,cs),
(306,289,o),
(309,313,o),
(319,333,cs),
(341,377,o),
(357,425,o),
(389,461,cs),
(404,478,o),
(432,465,o),
(444,453,cs),
(487,410,o),
(497,350,o),
(486,288,c)
);
}
);
width = 491;
},
{
associatedMasterId = "EF321139-F770-433D-B2B6-C3EFA1B16465";
attr = {
color = 1;
};
layerId = "7A37A257-3187-43E3-AE91-976500F42565";
name = "11 Jan 22, 20:22";
shapes = (
{
attr = {
gradient = {
colors = (
(
(210,46,31,128),
0
),
(
(210,46,31,255),
1
)
);
end = (0.8227,0.423);
start = (-0.0488,0.8418);
};
};
closed = 1;
nodes = (
(489,333,c),
(489,279,o),
(471,232,o),
(451,193,cs),
(406,111,o),
(327,28,o),
(228,8,cs),
(199,3,o),
(170,0,o),
(137,0,cs),
(127,0,ls),
(87,0,o),
(46,5,o),
(8,8,cs),
(-2,9,o),
(-8,14,o),
(-8,25,cs),
(-8,32,o),
(-5,39,o),
(1,43,cs),
(102,99,o),
(221,140,o),
(332,185,cs),
(364,198,o),
(405,226,o)
);
},
{
attr = {
gradient = {
colors = (
(
(210,46,31,128),
0
),
(
(210,46,31,255),
1
)
);
end = (0.431,0.6935);
start = (0.2079,0.0027);
};
};
closed = 1;
nodes = (
(469,289,o),
(431,252,o),
(398,222,c),
(400,225,o),
(402,238,o),
(396,248,c),
(387,246,o),
(378,245,o),
(367,245,cs),
(339,245,o),
(317,252,o),
(305,266,c),
(297,275,o),
(291,285,o),
(291,301,cs),
(291,325,o),
(308,351,o),
(317,370,cs),
(333,405,o),
(347,438,o),
(371,465,cs),
(379,473,o),
(387,478,o),
(397,478,cs),
(415,478,o),
(432,466,o),
(441,457,cs),
(473,424,o),
(489,385,o),
(489,339,cs),
(489,333,l)
);
}
);
width = 491;
}
);
unicode = 1608;
}
{
glyphname = "alefMaksura-ar";
layers = (
{
anchors = (
{
name = bottom;
pos = (259,-97);
},
{
name = bottom.mark;
pos = (308,-141);
},
{
name = top;
pos = (286,620);
},
{
name = top.mark;
pos = (321,681);
}
);
layerId = "1467EB51-6BD4-4CFC-AEAA-3E4EB1A95CFA";
shapes = (
{
closed = 1;
nodes = (
(-95,119,o),
(65,391,o),
(132,485,cs),
(135,490,o),
(144,489,o),
(140,481,cs),
(101,400,o),
(-3,249,o),
(100,168,cs),
(145,133,o),
(235,131,o),
(304,144,cs),
(387,159,o),
(456,189,o),
(516,228,c),
(449,235,o),
(385,255,o),
(370,309,cs),
(354,365,o),
(437,499,o),
(479,539,cs),
(498,557,o),
(526,586,o),
(561,587,cs),
(565,587,o),
(579,586,o),
(575,577,cs),
(558,541,o),
(547,502,o),
(527,470,c),
(478,485,o),
(361,412,o),
(521,367,cs),
(549,359,o),
(582,360,o),
(600,341,cs),
(625,314,o),
(618,276,o),
(592,237,cs),
(508,107,o),
(235,-62,o),
(78,24,cs)
);
}
);
width = 615;
},
{
anchors = (
{
name = bottom;
pos = (259,-97);
},
{
name = bottom.mark;
pos = (308,-141);
},
{
name = top;
pos = (286,620);
},
{
name = top.mark;
pos = (321,681);
}
);
layerId = "EF321139-F770-433D-B2B6-C3EFA1B16465";
shapes = (
{
closed = 1;
nodes = (
(573,568,o),
(572,567,o),
(571,563,c),
(555,529,o),
(543,490,o),
(524,459,cs),
(520,452,o),
(513,455,o),
(505,455,cs),
(499,455,ls),
(492,455,o),
(484,454,o),
(475,451,cs),
(463,446,o),
(441,434,o),
(441,421,cs),
(441,416,o),
(445,412,o),
(447,408,c),
(459,392,o),
(485,384,o),
(511,377,cs),
(523,373,o),
(537,371,o),
(551,369,cs),
(585,364,o),
(611,338,o),
(611,302,cs),
(611,282,o),
(602,260,o),
(586,234,cs),
(548,177,o),
(489,127,o),
(429,88,cs),
(407,74,o),
(383,61,o),
(359,49,cs),
(316,27,o),
(265,10,o),
(212,2,cs),
(200,0,o),
(188,0,o),
(175,0,cs),
(83,0,o),
(8,55,o),
(-2,128,cs),
(-4,141,o),
(-5,155,o),
(-5,169,cs),
(-5,232,o),
(13,280,o),
(32,327,cs),
(49,370,o),
(74,410,o),
(96,446,cs),
(106,463,o),
(116,477,o),
(125,489,cs),
(139,503,o),
(153,492,o),
(153,479,cs),
(153,475,o),
(152,473,o),
(151,470,cs),
(128,422,o),
(99,375,o),
(81,321,cs),
(76,303,o),
(71,283,o),
(71,261,cs),
(71,183,o),
(138,156,o),
(222,156,cs),
(248,156,o),
(274,159,o),
(296,163,cs),
(358,174,o),
(416,194,o),
(469,224,c),
(413,236,o),
(366,256,o),
(351,306,cs),
(349,313,o),
(348,321,o),
(348,329,cs),
(348,393,o),
(431,514,o),
(458,541,cs),
(469,552,o),
(480,560,o),
(493,570,cs),
(508,582,o),
(525,588,o),
(546,590,cs),
(555,590,o),
(573,589,o),
(573,572,cs)
);
}
);
width = 615;
},
{
associatedMasterId = "1467EB51-6BD4-4CFC-AEAA-3E4EB1A95CFA";
attr = {
color = 1;
};
layerId = "330F8EF7-9578-4AE9-B67F-2E5C033EDD08";
name = "11 Jan 22, 20:32";
shapes = (
{
attr = {
gradient = {
colors = (
(
(210,46,31,128),
0
),
(
(210,46,31,255),
1
)
);
end = (0.6361,0.3741);
start = (-0.0072,0.1894);
};
};
closed = 1;
nodes = (
(423,434,o),
(423,455,o),
(430,477,c),
(448,503,o),
(465,526,o),
(479,539,cs),
(498,557,o),
(526,586,o),
(561,587,cs),
(565,587,o),
(579,586,o),
(575,577,cs),
(558,541,o),
(547,502,o),
(527,470,c),
(495,480,o),
(434,452,o),
(440,419,c)
);
},
{
attr = {
gradient = {
colors = (
(
(210,46,31,128),
0
),
(
(210,46,31,255),
1
)
);
end = (0.5169,0.3742);
start = (0.1636,0.5296);
};
};
closed = 1;
nodes = (
(614,285,c),
(611,270,o),
(603,253,o),
(592,237,cs),
(508,107,o),
(235,-62,o),
(78,24,cs),
(-95,119,o),
(65,391,o),
(132,485,cs),
(135,490,o),
(144,489,o),
(140,481,cs),
(101,400,o),
(-3,249,o),
(100,168,cs),
(145,133,o),
(235,131,o),
(304,144,cs),
(393,160,o),
(466,193,o)
);
},
{
attr = {
gradient = {
colors = (
(
(210,46,31,128),
0
),
(
(210,46,31,255),
1
)
);
end = (0.3819,0.37);
start = (0.7706,0.0461);
};
};
closed = 1;
nodes = (
(498,225,o),
(390,237,o),
(370,309,cs),
(359,347,o),
(394,421,o),
(430,477,c),
(432,415,o),
(447,388,o),
(521,367,cs),
(549,359,o),
(582,360,o),
(600,341,cs),
(628,311,o),
(616,268,o),
(583,225,c)
);
}
);
width = 615;
},
{
associatedMasterId = "EF321139-F770-433D-B2B6-C3EFA1B16465";
attr = {
color = 1;
};
layerId = "296F6A4E-7F23-4041-9CBB-85B00385690C";
name = "11 Jan 22, 20:40";
shapes = (
{
attr = {
gradient = {
colors = (
(
(210,46,31,128),
0
),
(
(210,46,31,255),
1
)
);
end = (0.5169,0.3742);
start = (0.1636,0.5296);
};
};
closed = 1;
nodes = (
(611,302,c),
(611,282,o),
(602,260,o),
(586,234,cs),
(548,177,o),
(489,127,o),
(429,88,cs),
(407,74,o),
(383,61,o),
(359,49,cs),
(316,27,o),
(265,10,o),
(212,2,cs),
(200,0,o),
(188,0,o),
(175,0,cs),
(83,0,o),
(8,55,o),
(-2,128,cs),
(-4,141,o),
(-5,155,o),
(-5,169,cs),
(-5,232,o),
(13,280,o),
(32,327,cs),
(49,370,o),
(74,410,o),
(96,446,cs),
(106,463,o),
(116,477,o),
(125,489,cs),
(139,503,o),
(153,492,o),
(153,479,cs),
(153,475,o),
(152,473,o),
(151,470,cs),
(128,422,o),
(99,375,o),
(81,321,cs),
(76,303,o),
(71,283,o),
(71,261,cs),
(71,183,o),
(138,156,o),
(222,156,cs),
(248,156,o),
(274,159,o),
(296,163,cs),
(363,175,o),
(435,198,o)
);
},
{
attr = {
gradient = {
colors = (
(
(210,46,31,128),
0
),
(
(210,46,31,255),
1
)
);
end = (0.6361,0.3741);
start = (-0.0072,0.1894);
};
};
closed = 1;
nodes = (
(421,439,o),
(420,467,o),
(423,497,c),
(437,517,o),
(450,533,o),
(458,541,cs),
(469,552,o),
(480,560,o),
(493,570,cs),
(508,582,o),
(525,588,o),
(546,590,cs),
(555,590,o),
(573,589,o),
(573,572,cs),
(573,568,o),
(572,567,o),
(571,563,c),
(555,529,o),
(543,490,o),
(524,459,cs),
(520,452,o),
(513,455,o),
(505,455,cs),
(499,455,ls),
(492,455,o),
(484,454,o),
(475,451,cs),
(463,446,o),
(441,434,o),
(441,421,c)
);
},
{
attr = {
gradient = {
colors = (
(
(210,46,31,128),
0
),
(
(210,46,31,255),
1
)
);
end = (0.3819,0.37);
start = (0.7706,0.0461);
};
};
closed = 1;
nodes = (
(441,416,o),
(440,419,o),
(447,408,c),
(459,392,o),
(485,384,o),
(511,377,cs),
(523,373,o),
(537,371,o),
(551,369,cs),
(610,360,o),
(645,287,o),
(560,209,c),
(470,223,o),
(374,230,o),
(351,306,cs),
(349,313,o),
(348,321,o),
(348,329,cs),
(348,374,o),
(389,448,o),
(423,497,c)
);
}
);
width = 615;
}
);
unicode = 1609;
}
{
category = Mark;
glyphname = "dammatan-ar";
layers = (
{
anchors = (
{
name = _top.mark;
},
{
name = _top.mkmk;
}
);
attr = {
color = 1;
};
layerId = "1467EB51-6BD4-4CFC-AEAA-3E4EB1A95CFA";
name = Regular;
shapes = (
{
attr = {
gradient = {
colors = (
(
(0,116,182,255),
0
),
(
(0,116,182,128),
1
)
);
end = (0.0016,0);
start = (1.0025,0.9906);
};
};
closed = 1;
nodes = (
(98,295,o),
(155,283,o),
(145,220,cs),
(142,200,o),
(133,184,o),
(122,172,cs),
(120,169,o),
(114,164,o),
(113,169,cs),
(113,171,o),
(113,175,o),
(115,181,cs),
(127,233,o),
(104,248,o),
(52,237,cs),
(8,228,o),
(-31,198,o),
(-60,172,cs),
(-80,154,o),
(-99,132,o),
(-110,108,cs),
(-114,98,o),
(-115,89,o),
(-113,81,cs),
(-106,39,o),
(-46,63,o),
(-24,75,c),
(-47,26,l),
(-69,11,o),
(-101,2,o),
(-125,22,cs),
(-154,46,o),
(-149,99,o),
(-130,131,c),
(-97,203,o),
(-32,255,o),
(47,280,cs)
);
},
{
ref = "damma-ar";
}
);
width = 0;
},
{
anchors = (
{
name = _top.mark;
},
{
name = _top.mkmk;
}
);
attr = {
color = 1;
};
layerId = "EF321139-F770-433D-B2B6-C3EFA1B16465";
name = Bold;
shapes = (
{
attr = {
gradient = {
colors = (
(
(0,116,182,255),
0
),
(
(0,116,182,128),
1
)
);
end = (0.0016,0);
start = (1.0025,0.9906);
};
};
closed = 1;
nodes = (
(142,259,o),
(143,238,o),
(133,215,cs),
(123,192,o),
(114,179,o),
(107,176,cs),
(97,172,o),
(93,178,o),
(97,194,cs),
(109,241,o),
(93,256,o),
(41,245,cs),
(8,238,o),
(-29,217,o),
(-69,181,cs),
(-92,160,o),
(-108,143,o),
(-114,128,cs),
(-123,107,o),
(-125,100,o),
(-119,87,cs),
(-112,72,o),
(-93,70,o),
(-61,82,cs),
(-52,85,o),
(-44,89,o),
(-38,92,cs),
(-25,100,l),
(-55,36,l),
(-104,4,o),
(-143,20,o),
(-159,60,cs),
(-171,90,o),
(-160,125,o),
(-147,147,c),
(-113,222,o),
(-51,272,o),
(39,300,cs),
(83,314,o),
(114,306,o),
(130,279,cs)
);
},
{
ref = "damma-ar";
}
);
width = 0;
}
);
subCategory = Nonspacing;
unicode = 1612;
}
{
category = Mark;
glyphname = "fatha-ar";
layers = (
{
anchors = (
{
name = _top.mark;
},
{
name = _top.mkmk;
},
{
name = top.mkmk;
pos = (-20,122);
}
);
attr = {
color = 1;
};
layerId = "1467EB51-6BD4-4CFC-AEAA-3E4EB1A95CFA";
shapes = (
{
attr = {
gradient = {
colors = (
(
(0,116,182,255),
0
),
(
(0,116,182,128),
1
)
);
end = (0.0016,0);
start = (1.0025,0.9906);
};
};
closed = 1;
nodes = (
(-35,3,o),
(41,29,o),
(108,53,c),
(79,7,l),
(10,-17,o),
(-71,-45,o),
(-132,-75,c),
(-99,-23,l)
);
}
);
width = 0;
},
{
anchors = (
{
name = _top.mark;
},
{
name = _top.mkmk;
},
{
name = top.mkmk;
pos = (-20,122);
}
);
attr = {
color = 1;
};
layerId = "EF321139-F770-433D-B2B6-C3EFA1B16465";
shapes = (
{
attr = {
gradient = {
colors = (
(
(0,116,182,255),
0
),
(
(0,116,182,128),
1
)
);
end = (0.0016,0);
start = (1.0025,0.9906);
};
};
closed = 1;
nodes = (
(-41,22,o),
(35,49,o),
(101,72,cs),
(110,75,o),
(119,67,o),
(113,57,cs),
(83,8,l),
(-26,-31,ls),
(-61,-43,o),
(-93,-57,o),
(-124,-72,cs),
(-133,-77,o),
(-142,-66,o),
(-137,-57,cs),
(-104,-4,l)
);
}
);
width = 0;
}
);
subCategory = Nonspacing;
unicode = 1614;
}
{
category = Mark;
glyphname = "damma-ar";
layers = (
{
anchors = (
{
name = _top.mark;
},
{
name = _top.mkmk;
}
);
attr = {
color = 1;
};
layerId = "1467EB51-6BD4-4CFC-AEAA-3E4EB1A95CFA";
shapes = (
{
attr = {
gradient = {
colors = (
(
(0,116,182,255),
0
),
(
(0,116,182,128),
1
)
);
end = (0.0016,0);
start = (1.0025,0.9906);
};
};
closed = 1;
nodes = (
(85,76,o),
(90,71,o),
(91,62,cs),
(91,61,ls),
(91,47,o),
(84,36,o),
(76,24,c),
(71,31,o),
(65,32,o),
(58,37,c),
(15,-21,o),
(-40,-48,o),
(-121,-68,cs),
(-127,-69,l),
(-127,-68,o),
(-125,-66,o),
(-118,-62,cs),
(-76,-35,o),
(-25,-3,o),
(16,26,cs),
(26,33,o),
(34,40,o),
(40,46,c),
(21,57,o),
(-7,72,o),
(-7,100,cs),
(-7,129,o),
(25,162,o),
(47,171,cs),
(52,173,o),
(57,175,o),
(62,175,cs),
(82,175,o),
(90,157,o),
(90,134,cs),
(90,120,o),
(86,102,o),
(79,80,c)
);
},
{
attr = {
gradient = {
colors = (
(
(0,116,182,255),
0
),
(
(0,116,182,128),
1
)
);
end = (0.0016,0);
start = (1.0025,0.9906);
};
};
closed = 1;
nodes = (
(34,133,o),
(23,127,o),
(23,118,cs),
(23,104,o),
(50,94,o),
(60,89,c),
(62,97,o),
(62,103,o),
(62,109,cs),
(62,123,o),
(57,134,o),
(45,134,cs),
(42,134,ls)
);
}
);
width = 0;
},
{
anchors = (
{
name = _top.mark;
},
{
name = _top.mkmk;
}
);
attr = {
color = 1;
};
layerId = "EF321139-F770-433D-B2B6-C3EFA1B16465";
shapes = (
{
attr = {
gradient = {
colors = (
(
(0,116,182,255),
0
),
(
(0,116,182,128),
1
)
);
end = (0.0016,0);
start = (1.0025,0.9906);
};
};
closed = 1;
nodes = (
(-129,-67,o),
(-134,-62,o),
(-134,-56,cs),
(-134,-51,o),
(-129,-46,o),
(-120,-40,cs),
(-98,-26,ls),
(-59,-1,o),
(-13,25,o),
(21,54,c),
(3,65,o),
(-18,79,o),
(-18,107,cs),
(-18,143,o),
(21,190,o),
(60,190,cs),
(84,190,o),
(97,169,o),
(97,145,cs),
(97,140,ls),
(97,126,o),
(94,110,o),
(88,91,c),
(93,86,o),
(97,78,o),
(98,69,cs),
(98,51,o),
(89,41,o),
(82,28,cs),
(75,16,o),
(64,28,o),
(59,32,c),
(16,-22,o),
(-39,-47,o),
(-117,-66,cs),
(-124,-67,ls)
);
},
{
attr = {
gradient = {
colors = (
(
(0,116,182,255),
0
),
(
(0,116,182,128),
1
)
);
end = (0.0016,0);
start = (1.0025,0.9906);
};
};
closed = 1;
nodes = (
(38,120,o),
(43,117,o),
(49,113,c),
(49,117,ls),
(49,124,o),
(48,132,o),
(42,130,cs),
(38,129,o),
(35,127,o),
(33,124,c)
);
}
);
width = 0;
}
);
subCategory = Nonspacing;
unicode = 1615;
}
{
category = Mark;
glyphname = "shadda-ar";
layers = (
{
anchors = (
{
name = _top.mark;
},
{
name = _top.mkmk;
},
{
name = bottom.mkmk;
pos = (-5,-195);
},
{
name = top.mkmk;
pos = (-10,171);
}
);
attr = {
color = 1;
};
layerId = "1467EB51-6BD4-4CFC-AEAA-3E4EB1A95CFA";
shapes = (
{
attr = {
gradient = {
colors = (
(
(0,116,182,255),
0
),
(
(0,116,182,128),
1
)
);
end = (0.0016,0);
start = (1.0025,0.9906);
};
};
closed = 1;
nodes = (
(-16,-48,o),
(-44,-69,o),
(-71,-72,c),
(-103,-70,o),
(-115,-50,o),
(-115,-19,cs),
(-115,1,o),
(-108,25,o),
(-104,40,cs),
(-104,41,o),
(-103,41,o),
(-103,42,cs),
(-103,43,o),
(-102,44,o),
(-102,45,c),
(-100,50,o),
(-95,65,o),
(-87,65,c),
(-87,64,ls),
(-87,52,o),
(-92,38,o),
(-92,24,cs),
(-92,19,ls),
(-91,3,o),
(-82,-9,o),
(-64,-9,cs),
(-51,-9,o),
(-34,-4,o),
(-27,5,cs),
(-17,17,o),
(-9,38,o),
(-8,58,c),
(7,73,l),
(7,72,ls),
(7,70,o),
(6,70,o),
(6,68,cs),
(6,56,ls),
(6,41,o),
(9,29,o),
(17,21,cs),
(25,13,o),
(32,8,o),
(39,8,cs),
(41,8,ls),
(62,11,o),
(72,37,o),
(72,62,cs),
(72,66,l),
(90,83,l),
(86,35,o),
(82,-20,o),
(55,-46,cs),
(49,-52,o),
(42,-55,o),
(33,-55,cs),
(9,-55,o),
(-4,-37,o),
(-12,-22,c)
);
}
);
width = 0;
},
{
anchors = (
{
name = _top.mark;
},
{
name = _top.mkmk;
},
{
name = bottom.mkmk;
pos = (-5,-195);
},
{
name = top.mkmk;
pos = (-10,171);
}
);
attr = {
color = 1;
};
layerId = "EF321139-F770-433D-B2B6-C3EFA1B16465";
shapes = (
{
attr = {
gradient = {
colors = (
(
(0,116,182,255),
0
),
(
(0,116,182,128),
1
)
);
end = (0.0016,0);
start = (1.0025,0.9906);
};
};
closed = 1;
nodes = (
(-21,-50,o),
(-44,-67,o),
(-67,-70,cs),
(-69,-70,ls),
(-103,-68,o),
(-123,-48,o),
(-123,-13,cs),
(-123,-8,ls),
(-123,14,o),
(-117,34,o),
(-111,51,c),
(-111,52,o),
(-110,52,o),
(-110,53,cs),
(-110,56,o),
(-109,57,o),
(-108,60,c),
(-109,58,ls),
(-105,69,o),
(-99,84,o),
(-83,83,cs),
(-78,82,o),
(-75,77,o),
(-75,72,cs),
(-75,70,o),
(-74,71,o),
(-75,68,cs),
(-76,63,ls),
(-78,54,o),
(-79,44,o),
(-79,34,cs),
(-79,28,l),
(-77,19,o),
(-73,14,o),
(-64,11,c),
(-64,11,o),
(-64,12,o),
(-62,12,cs),
(-52,12,o),
(-39,16,o),
(-33,24,cs),
(-25,35,o),
(-19,54,o),
(-18,72,c),
(0,88,ls),
(7,95,o),
(17,90,o),
(17,81,cs),
(17,78,l),
(17,75,ls),
(17,73,o),
(16,72,o),
(16,70,cs),
(16,64,ls),
(16,53,o),
(17,44,o),
(23,39,cs),
(30,32,o),
(35,29,o),
(38,29,cs),
(39,29,l),
(49,32,o),
(55,43,o),
(58,54,c),
(57,53,l),
(59,60,o),
(60,66,o),
(60,71,cs),
(60,75,ls),
(60,77,o),
(62,82,o),
(63,83,cs),
(81,99,ls),
(88,106,o),
(98,100,o),
(98,91,cs),
(98,88,o),
(97,86,o),
(97,83,cs),
(93,30,o),
(87,-34,o),
(47,-51,cs),
(42,-53,o),
(38,-54,o),
(32,-54,cs),
(14,-54,o),
(-1,-43,o),
(-10,-33,c)
);
}
);
width = 0;
}
);
subCategory = Nonspacing;
unicode = 1617;
}
{
category = Mark;
glyphname = "sukun-ar";
layers = (
{
anchors = (
{
name = _top.mark;
},
{
name = _top.mkmk;
}
);
attr = {
color = 1;
};
layerId = "1467EB51-6BD4-4CFC-AEAA-3E4EB1A95CFA";
shapes = (
{
attr = {
gradient = {
colors = (
(
(0,116,182,255),
0
),
(
(0,116,182,128),
1
)
);
end = (0.0645,-0.4109);
start = (0.0261,0.4859);
};
};
closed = 1;
nodes = (
(62,13,l),
(56,18,o),
(36,22,o),
(0,26,cs),
(-10,27,o),
(-20,27,o),
(-28,27,cs),
(-62,27,o),
(-70,21,o),
(-86,6,cs),
(-92,1,o),
(-95,-2,o),
(-97,-3,c),
(-98,-3,l),
(-98,2,o),
(-94,14,o),
(-85,35,cs),
(-76,56,o),
(-64,76,o),
(-48,96,cs),
(-40,106,o),
(-19,111,o),
(13,111,cs),
(31,111,ls),
(74,109,o),
(100,102,o),
(110,92,cs),
(116,86,o),
(120,77,o),
(120,67,cs),
(120,55,o),
(115,40,o),
(106,22,cs),
(76,-37,o),
(18,-68,o),
(-65,-74,c),
(-75,-73,l),
(-73,-68,o),
(-52,-56,o),
(-13,-37,cs),
(26,-18,o),
(52,-1,o),
(62,11,c)
);
}
);
width = 0;
},
{
anchors = (
{
name = _top.mark;
},
{
name = _top.mkmk;
}
);
attr = {
color = 1;
};
layerId = "EF321139-F770-433D-B2B6-C3EFA1B16465";
shapes = (
{
attr = {
gradient = {
colors = (
(
(0,116,182,255),
0
),
(
(0,116,182,128),
1
)
);
end = (0.0645,-0.4109);
start = (0.0261,0.4859);
};
};
closed = 1;
nodes = (
(24,23,o),
(-2,26,o),
(-27,26,cs),
(-44,26,o),
(-56,25,o),
(-63,20,c),
(-70,13,o),
(-90,-11,o),
(-101,-1,cs),
(-103,1,o),
(-105,4,o),
(-105,8,cs),
(-105,13,o),
(-100,26,o),
(-91,48,cs),
(-83,69,o),
(-70,90,o),
(-54,110,cs),
(-44,122,o),
(-22,128,o),
(13,128,cs),
(30,128,ls),
(75,126,o),
(103,119,o),
(115,107,cs),
(123,100,o),
(126,90,o),
(126,76,cs),
(126,61,o),
(121,45,o),
(112,27,cs),
(82,-32,o),
(22,-67,o),
(-63,-72,c),
(-73,-71,ls),
(-81,-71,o),
(-86,-65,o),
(-82,-56,cs),
(-79,-49,o),
(-57,-36,o),
(-17,-16,cs),
(7,-4,o),
(27,5,o),
(44,19,c)
);
}
);
width = 0;
}
);
subCategory = Nonspacing;
unicode = (1618,1761);
}
{
category = Mark;
glyphname = "madda-ar";
layers = (
{
anchors = (
{
name = _top;
},
{
name = _top.mkmk;
}
);
attr = {
color = 1;
};
layerId = "1467EB51-6BD4-4CFC-AEAA-3E4EB1A95CFA";
shapes = (
{
attr = {
gradient = {
colors = (
(
(0,116,182,255),
0
),
(
(0,116,182,128),
1
)
);
end = (0.0016,0);
start = (1.0025,0.9906);
};
};
closed = 1;
nodes = (
(128,-3,l),
(79,-35,o),
(-13,-60,o),
(-85,-23,cs),
(-97,-17,o),
(-108,-28,o),
(-117,-33,cs),
(-136,-44,o),
(-191,-112,o),
(-151,-42,cs),
(-131,-7,o),
(-109,13,o),
(-73,31,cs),
(-63,36,o),
(-65,33,o),
(-55,28,cs),
(21,-11,o),
(122,16,o),
(168,56,cs),
(170,58,o),
(172,55,o),
(172,54,c)
);
}
);
width = 0;
},
{
anchors = (
{
name = _top;
},
{
name = _top.mkmk;
}
);
attr = {
color = 1;
};
layerId = "EF321139-F770-433D-B2B6-C3EFA1B16465";
shapes = (
{
attr = {
gradient = {
colors = (
(
(0,116,182,255),
0
),
(
(0,116,182,128),
1
)
);
end = (0.0016,0);
start = (1.0025,0.9906);
};
};
closed = 1;
nodes = (
(157,78,o),
(161,79,o),
(165,79,cs),
(174,79,o),
(178,73,o),
(178,60,c),
(133,1,l),
(98,-21,o),
(50,-41,o),
(-6,-41,cs),
(-38,-41,o),
(-64,-33,o),
(-87,-21,c),
(-88,-21,o),
(-88,-20,o),
(-89,-20,cs),
(-90,-20,o),
(-91,-21,o),
(-91,-21,c),
(-106,-29,ls),
(-115,-35,o),
(-127,-46,o),
(-142,-62,cs),
(-148,-68,o),
(-163,-79,o),
(-171,-67,cs),
(-172,-65,o),
(-173,-63,o),
(-173,-61,cs),
(-173,-55,o),
(-168,-41,o),
(-156,-21,c),
(-156,-22,l),
(-137,10,o),
(-109,35,o),
(-72,54,cs),
(-70,55,o),
(-67,55,o),
(-64,55,cs),
(-59,55,o),
(-53,53,o),
(-47,50,cs),
(-23,38,o),
(2,32,o),
(28,32,cs),
(41,32,o),
(52,34,o),
(64,36,cs),
(103,44,o),
(134,57,o),
(155,75,c),
(154,75,l)
);
}
);
width = 0;
}
);
subCategory = Nonspacing;
unicode = 1619;
}
{
category = Mark;
glyphname = "hamzaabove-ar";
layers = (
{
anchors = (
{
name = _top;
},
{
name = top.mkmk;
pos = (0,239);
}
);
attr = {
color = 1;
};
layerId = "1467EB51-6BD4-4CFC-AEAA-3E4EB1A95CFA";
shapes = (
{
attr = {
gradient = {
colors = (
(
(210,46,31,128),
0
),
(
(210,46,31,255),
1
)
);
end = (0.774,0.7988);
start = (0.0947,0.0606);
};
};
closed = 1;
nodes = (
(37,107,ls),
(29,89,o),
(3,86,o),
(-12,65,c),
(0,51,o),
(24,50,o),
(39,40,cs),
(67,22,o),
(47,-21,o),
(10,-47,cs),
(-21,-69,o),
(-56,-71,o),
(-92,-77,c),
(-61,-63,o),
(-28,-50,o),
(1,-34,cs),
(4,-32,o),
(12,-27,o),
(6,-23,cs),
(-5,-16,o),
(-21,-10,o),
(-32,-4,cs),
(-82,24,o),
(6,118,o),
(32,138,cs),
(40,144,o),
(49,148,o),
(58,152,c),
(58,152,o),
(58,151,o),
(58,152,c)
);
}
);
width = 0;
},
{
anchors = (
{
name = _top;
},
{
name = top.mkmk;
pos = (0,239);
}
);
attr = {
color = 1;
};
layerId = "EF321139-F770-433D-B2B6-C3EFA1B16465";
shapes = (
{
attr = {
gradient = {
colors = (
(
(210,46,31,128),
0
),
(
(210,46,31,255),
1
)
);
end = (0.774,0.7988);
start = (0.0947,0.0606);
};
};
closed = 1;
nodes = (
(39,95,o),
(26,89,o),
(12,81,cs),
(9,79,o),
(7,78,o),
(5,76,c),
(11,72,o),
(24,70,o),
(31,67,cs),
(48,60,o),
(62,47,o),
(62,28,cs),
(62,20,o),
(61,13,o),
(58,7,cs),
(45,-27,o),
(5,-59,o),
(-36,-66,cs),
(-53,-68,o),
(-69,-71,o),
(-86,-74,cs),
(-98,-76,o),
(-105,-56,o),
(-93,-51,cs),
(-72,-42,ls),
(-53,-33,o),
(-31,-25,o),
(-13,-15,c),
(-20,-9,o),
(-29,-7,o),
(-37,-2,cs),
(-53,7,o),
(-61,19,o),
(-61,35,cs),
(-61,65,o),
(-19,111,o),
(-2,129,cs),
(18,151,o),
(26,158,o),
(51,170,cs),
(61,175,o),
(71,165,o),
(67,154,c),
(46,110,ls)
);
}
);
width = 0;
}
);
subCategory = Nonspacing;
unicode = 1620;
}
{
category = Mark;
glyphname = "noonghunnaabove-ar";
layers = (
{
anchors = (
{
name = _top.mark;
},
{
name = _top.mkmk;
}
);
attr = {
color = 1;
};
layerId = "1467EB51-6BD4-4CFC-AEAA-3E4EB1A95CFA";
shapes = (
{
attr = {
gradient = {
colors = (
(
(0,116,182,255),
0
),
(
(0,116,182,128),
1
)
);
end = (0.0016,0);
start = (1.0025,0.9906);
};
};
closed = 1;
nodes = (
(-31,-69,o),
(-48,-53,o),
(-50,-20,cs),
(-51,-8,o),
(-50,6,o),
(-46,22,cs),
(-36,54,o),
(-27,76,o),
(-12,97,cs),
(-6,105,o),
(-2,108,o),
(1,108,cs),
(2,108,o),
(3,108,o),
(3,107,cs),
(3,104,l),
(-9,87,o),
(-17,73,o),
(-20,61,cs),
(-23,48,o),
(-23,36,o),
(-19,27,cs),
(-15,17,o),
(-9,10,o),
(-1,5,c),
(7,-2,o),
(16,-5,o),
(25,-5,cs),
(34,-6,o),
(45,-6,o),
(54,-2,cs),
(63,1,o),
(71,7,o),
(78,15,cs),
(83,22,o),
(85,17,o),
(82,10,cs),
(68,-22,o),
(56,-48,o),
(30,-64,cs),
(21,-70,o),
(12,-73,o),
(3,-72,cs)
);
}
);
width = 0;
},
{
anchors = (
{
name = _top.mark;
},
{
name = _top.mkmk;
}
);
attr = {
color = 1;
};
layerId = "EF321139-F770-433D-B2B6-C3EFA1B16465";
shapes = (
{
attr = {
gradient = {
colors = (
(
(0,116,182,255),
0
),
(
(0,116,182,128),
1
)
);
end = (0.0016,0);
start = (1.0025,0.9906);
};
};
closed = 1;
nodes = (
(9,128,o),
(16,123,o),
(16,115,cs),
(16,110,o),
(16,107,o),
(13,104,c),
(3,89,o),
(-8,75,o),
(-8,54,cs),
(-8,17,o),
(43,10,o),
(64,34,c),
(70,43,o),
(77,45,o),
(86,41,c),
(93,34,o),
(91,24,o),
(87,14,cs),
(78,-9,ls),
(67,-33,o),
(45,-59,o),
(20,-66,cs),
(14,-68,o),
(9,-68,o),
(3,-68,cs),
(2,-68,ls),
(-51,-65,o),
(-70,-19,o),
(-55,37,cs),
(-47,65,o),
(-34,93,o),
(-21,112,c),
(-21,111,l),
(-13,122,o),
(-6,128,o),
(1,128,cs)
);
}
);
width = 0;
}
);
subCategory = Nonspacing;
unicode = 1624;
}
{
category = Mark;
glyphname = "vabove-ar";
layers = (
{
anchors = (
{
name = _top.mark;
}
);
attr = {
color = 1;
};
layerId = "1467EB51-6BD4-4CFC-AEAA-3E4EB1A95CFA";
shapes = (
{
attr = {
gradient = {
colors = (
(
(210,46,31,128),
0
),
(
(210,46,31,255),
1
)
);
end = (0.0528,0.8713);
start = (1.0152,0.1787);
};
};
closed = 1;
nodes = (
(38,32,o),
(63,68,o),
(90,103,c),
(90,103,o),
(90,103,o),
(91,103,cs),
(93,103,l),
(89,89,o),
(86,75,o),
(86,62,c),
(59,31,o),
(41,-4,o),
(24,-43,cs),
(20,-52,o),
(17,-75,o),
(3,-75,cs),
(2,-75,o),
(2,-75,o),
(2,-74,c),
(-16,-20,o),
(-50,21,o),
(-83,61,c),
(-76,76,o),
(-69,90,o),
(-61,104,c),
(-29,66,o),
(-3,27,o),
(18,-10,c)
);
}
);
width = 0;
},
{
anchors = (
{
name = _top.mark;
}
);
attr = {
color = 1;
};
layerId = "EF321139-F770-433D-B2B6-C3EFA1B16465";
shapes = (
{
attr = {
gradient = {
colors = (
(
(210,46,31,128),
0
),
(
(210,46,31,255),
1
)
);
end = (0.0528,0.8713);
start = (1.0152,0.1787);
};
};
closed = 1;
nodes = (
(83,97,o),
(81,83,o),
(81,68,c),
(68,52,o),
(58,35,o),
(49,17,cs),
(33,-16,o),
(25,-29,o),
(21,-44,cs),
(18,-56,o),
(14,-74,o),
(-1,-74,cs),
(-5,-74,o),
(-8,-73,o),
(-9,-70,cs),
(-25,-15,o),
(-57,26,o),
(-88,67,c),
(-82,82,o),
(-73,98,o),
(-66,112,cs),
(-64,115,o),
(-57,117,o),
(-55,113,c),
(-29,78,o),
(-6,43,o),
(12,9,c),
(29,46,o),
(49,80,o),
(72,112,cs),
(73,114,o),
(76,115,o),
(80,115,cs),
(81,115,ls),
(82,115,o),
(82,114,o),
(83,114,c),
(87,110,l)
);
}
);
width = 0;
}
);
subCategory = Nonspacing;
unicode = 1626;
}
{
glyphname = "zero-ar";
layers = (
{
attr = {
color = 1;
};
layerId = "1467EB51-6BD4-4CFC-AEAA-3E4EB1A95CFA";
shapes = (
{
attr = {
gradient = {
colors = (
(
(210,46,31,128),
0
),
(
(210,46,31,255),
1
)
);
end = (0.2902,0.7216);
start = (0.7235,0.2946);
};
};
closed = 1;
nodes = (
(104,355,ls),
(106,357,o),
(108,358,o),
(110,358,cs),
(112,358,o),
(115,357,o),
(117,355,cs),
(200,285,ls),
(203,283,o),
(205,280,o),
(205,278,cs),
(205,276,o),
(204,274,o),
(202,272,cs),
(127,181,ls),
(125,179,o),
(124,177,o),
(122,177,cs),
(120,177,o),
(117,178,o),
(115,180,cs),
(32,250,ls),
(29,252,o),
(27,255,o),
(27,258,cs),
(27,260,o),
(28,261,o),
(30,263,cs)
);
}
);
width = 231;
},
{
attr = {
color = 1;
};
layerId = "EF321139-F770-433D-B2B6-C3EFA1B16465";
shapes = (
{
attr = {
gradient = {
colors = (
(
(210,46,31,128),
0
),
(
(210,46,31,255),
1
)
);
end = (0.2902,0.7216);
start = (0.7235,0.2946);
};
};
closed = 1;
nodes = (
(93,362,ls),
(96,366,o),
(102,370,o),
(108,370,cs),
(115,370,o),
(118,367,o),
(122,364,cs),
(203,296,ls),
(208,292,o),
(211,288,o),
(211,280,cs),
(211,274,o),
(209,272,o),
(206,268,cs),
(134,179,l),
(135,179,l),
(130,174,o),
(126,171,o),
(120,171,cs),
(115,171,o),
(110,173,o),
(106,176,cs),
(25,245,ls),
(19,250,o),
(17,255,o),
(17,261,cs),
(17,265,o),
(18,269,o),
(21,273,cs)
);
}
);
width = 231;
}
);
unicode = (1632,1776);
}
{
glyphname = "one-ar";
layers = (
{
attr = {
color = 1;
};
layerId = "1467EB51-6BD4-4CFC-AEAA-3E4EB1A95CFA";
shapes = (
{
attr = {
gradient = {
colors = (
(
(210,46,31,128),
0
),
(
(210,46,31,255),
1
)
);
end = (-0.3618,0.3448);
start = (1.0152,0.1787);
};
};
closed = 1;
nodes = (
(167,172,o),
(141,83,o),
(108,14,cs),
(105,8,o),
(100,-3,o),
(92,0,c),
(113,173,o),
(79,328,o),
(25,445,c),
(40,489,o),
(58,539,o),
(77,585,c),
(111,500,o),
(141,409,o),
(154,301,cs),
(154,297,o),
(156,285,o),
(156,281,cs)
);
}
);
width = 188;
},
{
attr = {
color = 1;
};
layerId = "EF321139-F770-433D-B2B6-C3EFA1B16465";
shapes = (
{
attr = {
gradient = {
colors = (
(
(210,46,31,128),
0
),
(
(210,46,31,255),
1
)
);
end = (-0.3618,0.3448);
start = (1.0152,0.1787);
};
};
closed = 1;
nodes = (
(165,268,o),
(167,249,o),
(167,230,cs),
(167,148,o),
(143,74,o),
(117,21,cs),
(110,7,o),
(102,0,o),
(92,0,cs),
(85,0,o),
(77,6,o),
(78,14,cs),
(82,49,o),
(84,83,o),
(84,116,cs),
(84,246,o),
(53,352,o),
(12,442,c),
(27,486,o),
(47,541,o),
(65,583,cs),
(69,595,o),
(82,592,o),
(86,582,cs),
(120,495,o),
(153,402,o),
(164,293,cs),
(164,286,ls)
);
}
);
width = 188;
}
);
unicode = (1633,1777);
}
{
glyphname = "two-ar";
layers = (
{
layerId = "1467EB51-6BD4-4CFC-AEAA-3E4EB1A95CFA";
shapes = (
{
closed = 1;
nodes = (
(232,459,ls),
(230,452,o),
(224,445,o),
(219,446,cs),
(178,458,o),
(126,467,o),
(81,454,c),
(110,382,o),
(164,298,o),
(186,219,c),
(195,141,o),
(164,78,o),
(147,14,cs),
(146,9,o),
(143,4,o),
(137,0,c),
(149,107,o),
(98,208,o),
(59,274,cs),
(7,363,o),
(15,575,o),
(128,588,cs),
(176,594,o),
(219,584,o),
(260,574,c),
(260,574,o),
(262,573,o),
(262,571,c)
);
}
);
width = 286;
},
{
layerId = "EF321139-F770-433D-B2B6-C3EFA1B16465";
shapes = (
{
closed = 1;
nodes = (
(233,438,o),
(226,431,o),
(216,431,cs),
(212,431,o),
(210,431,o),
(207,433,c),
(184,439,o),
(154,446,o),
(126,446,cs),
(116,446,o),
(107,445,o),
(97,443,c),
(127,374,o),
(172,299,o),
(193,226,c),
(194,216,o),
(195,204,o),
(195,193,cs),
(195,142,o),
(179,106,o),
(168,67,cs),
(163,51,o),
(160,36,o),
(156,21,cs),
(153,12,o),
(142,-8,o),
(128,1,cs),
(118,7,o),
(125,33,o),
(125,48,cs),
(125,85,o),
(118,120,o),
(105,155,cs),
(88,195,o),
(70,235,o),
(50,271,cs),
(29,306,o),
(18,354,o),
(18,409,cs),
(18,467,o),
(32,510,o),
(53,546,cs),
(74,578,o),
(106,595,o),
(158,595,cs),
(198,595,o),
(228,587,o),
(261,578,c),
(263,575,o),
(267,569,o),
(267,564,c),
(238,453,ls)
);
}
);
width = 286;
},
{
associatedMasterId = "1467EB51-6BD4-4CFC-AEAA-3E4EB1A95CFA";
attr = {
color = 1;
};
layerId = "AF068530-7F07-4859-B8B9-C1BE18E254DF";
name = "11 Jan 22, 20:46";
shapes = (
{
attr = {
gradient = {
colors = (
(
(210,46,31,128),
0
),
(
(210,46,31,255),
1
)
);
end = (-0.3618,0.3448);
start = (1.0152,0.1787);
};
};
closed = 1;
nodes = (
(90,403,o),
(164,303,o),
(186,219,c),
(195,141,o),
(164,78,o),
(147,14,cs),
(146,9,o),
(143,4,o),
(137,0,c),
(149,107,o),
(98,208,o),
(59,274,cs),
(22,337,o),
(15,463,o),
(55,535,c)
);
},
{
attr = {
gradient = {
colors = (
(
(210,46,31,128),
0
),
(
(210,46,31,255),
1
)
);
end = (0.6361,0.3741);
start = (0.1255,0.3402);
};
};
closed = 1;
nodes = (
(55,535,l),
(71,564,o),
(95,584,o),
(128,588,cs),
(176,594,o),
(219,584,o),
(260,574,c),
(260,574,o),
(262,573,o),
(262,571,c),
(232,459,ls),
(230,452,o),
(224,445,o),
(219,446,cs),
(173,459,o),
(114,469,o),
(66,449,c)
);
}
);
width = 286;
},
{
associatedMasterId = "EF321139-F770-433D-B2B6-C3EFA1B16465";
attr = {
color = 1;
};
layerId = "2D5F92EE-C684-49CA-BD08-DF494A3790AF";
name = "11 Jan 22, 20:51";
shapes = (
{
attr = {
gradient = {
colors = (
(
(210,46,31,128),
0
),
(
(210,46,31,255),
1
)
);
end = (-0.3618,0.3448);
start = (1.0152,0.1787);
};
};
closed = 1;
nodes = (
(100,399,o),
(177,304,o),
(193,226,c),
(194,216,o),
(195,204,o),
(195,193,cs),
(195,142,o),
(179,106,o),
(168,67,cs),
(163,51,o),
(160,36,o),
(156,21,cs),
(153,12,o),
(142,-8,o),
(128,1,cs),
(118,7,o),
(125,33,o),
(125,48,cs),
(125,85,o),
(118,120,o),
(105,155,cs),
(88,195,o),
(70,235,o),
(50,271,cs),
(29,306,o),
(18,354,o),
(18,409,cs),
(18,480,o),
(37,522,o),
(61,556,c)
);
},
{
attr = {
gradient = {
colors = (
(
(210,46,31,128),
0
),
(
(210,46,31,255),
1
)
);
end = (0.6361,0.3741);
start = (0.1255,0.3402);
};
};
closed = 1;
nodes = (
(46,532,l),
(66,573,o),
(99,595,o),
(158,595,cs),
(198,595,o),
(228,587,o),
(261,578,c),
(263,575,o),
(267,569,o),
(267,564,c),
(238,453,ls),
(234,438,o),
(226,431,o),
(216,431,cs),
(212,431,o),
(210,431,o),
(207,433,c),
(184,439,o),
(154,446,o),
(126,446,cs),
(111,446,o),
(97,444,o),
(79,439,c)
);
}
);
width = 286;
}
);
unicode = 1634;
}
{
glyphname = "three-ar";
layers = (
{
layerId = "1467EB51-6BD4-4CFC-AEAA-3E4EB1A95CFA";
shapes = (
{
closed = 1;
nodes = (
(383,506,o),
(372,437,o),
(331,399,cs),
(314,384,o),
(279,365,o),
(251,382,cs),
(244,386,o),
(240,392,o),
(235,398,c),
(225,390,o),
(206,375,o),
(210,368,cs),
(274,258,o),
(290,115,o),
(219,4,cs),
(217,0,o),
(208,-4,o),
(208,-2,cs),
(222,140,o),
(159,239,o),
(107,324,cs),
(80,369,o),
(46,409,o),
(25,461,c),
(40,502,o),
(55,545,o),
(74,585,c),
(89,554,o),
(104,515,o),
(131,496,cs),
(168,470,o),
(229,489,o),
(250,518,cs),
(255,525,o),
(262,551,o),
(267,559,cs),
(270,565,o),
(275,555,o),
(274,552,c),
(271,531,o),
(283,514,o),
(297,511,cs),
(340,501,o),
(373,530,o),
(380,566,cs),
(381,570,o),
(390,588,o),
(389,580,cs)
);
}
);
width = 414;
},
{
layerId = "EF321139-F770-433D-B2B6-C3EFA1B16465";
shapes = (
{
closed = 1;
nodes = (
(386,590,o),
(392,584,o),
(392,576,cs),
(392,575,ls),
(392,522,o),
(380,464,o),
(359,426,cs),
(352,413,o),
(342,401,o),
(332,392,c),
(320,381,o),
(296,364,o),
(271,364,cs),
(256,364,o),
(238,372,o),
(229,383,c),
(225,380,o),
(221,377,o),
(218,373,c),
(247,323,o),
(265,265,o),
(271,195,cs),
(271,191,o),
(272,187,o),
(272,183,cs),
(272,171,ls),
(272,115,o),
(257,62,o),
(225,12,cs),
(220,3,o),
(193,-8,o),
(193,13,cs),
(194,27,o),
(195,43,o),
(195,58,cs),
(195,107,o),
(185,151,o),
(169,186,cs),
(147,231,o),
(122,281,o),
(97,321,cs),
(68,367,o),
(37,406,o),
(14,460,c),
(29,503,o),
(45,545,o),
(64,585,cs),
(66,590,o),
(69,592,o),
(74,592,cs),
(79,592,o),
(83,590,o),
(85,585,cs),
(108,538,ls),
(119,515,o),
(139,493,o),
(170,493,cs),
(197,493,o),
(231,508,o),
(238,528,cs),
(243,541,o),
(247,569,o),
(264,569,cs),
(274,569,o),
(280,560,o),
(280,550,cs),
(280,545,ls),
(280,543,o),
(280,541,o),
(280,539,cs),
(280,522,o),
(291,519,o),
(308,519,cs),
(319,519,o),
(328,522,o),
(336,528,cs),
(350,540,o),
(357,553,o),
(362,571,cs),
(364,578,o),
(371,590,o),
(379,590,cs)
);
}
);
width = 414;
},
{
associatedMasterId = "1467EB51-6BD4-4CFC-AEAA-3E4EB1A95CFA";
attr = {
color = 1;
};
layerId = "AE185989-198A-4A38-B6C5-6D2F5DC79FB0";
name = "11 Jan 22, 20:51";
shapes = (
{
attr = {
gradient = {
colors = (
(
(210,46,31,128),
0
),
(
(210,46,31,255),
1
)
);
end = (0.469,0.6891);
start = (0.8312,0.0709);
};
};
closed = 1;
nodes = (
(210,368,l),
(274,258,o),
(290,115,o),
(219,4,cs),
(217,0,o),
(208,-4,o),
(208,-2,cs),
(222,140,o),
(159,239,o),
(107,324,cs),
(80,369,o),
(46,409,o),
(25,461,c),
(40,502,o),
(55,545,o),
(74,585,c),
(84,565,o),
(93,542,o),
(106,523,cs)
);
},
{
attr = {
gradient = {
colors = (
(
(210,46,31,128),
0
),
(
(210,46,31,255),
1
)
);
end = (0.6082,0.3178);
start = (-0.0252,0.5163);
};
};
closed = 1;
nodes = (
(274,547,l),
(271,534,o),
(279,515,o),
(297,511,cs),
(340,501,o),
(373,530,o),
(380,566,cs),
(381,570,o),
(390,588,o),
(389,580,cs),
(383,506,o),
(372,437,o),
(331,399,cs),
(314,384,o),
(279,365,o),
(251,382,cs),
(239,389,o),
(228,406,o),
(228,415,c)
);
},
{
attr = {
gradient = {
colors = (
(
(210,46,31,128),
0
),
(
(210,46,31,255),
1
)
);
end = (0.609,0.3208);
start = (0.0381,0.4638);
};
};
closed = 1;
nodes = (
(159,407,o),
(129,461,o),
(106,523,c),
(113,512,o),
(121,503,o),
(131,496,cs),
(168,470,o),
(229,489,o),
(250,518,cs),
(255,525,o),
(263,551,o),
(267,559,cs),
(271,567,o),
(276,553,o),
(274,547,c),
(280,496,o),
(273,447,o),
(241,403,cs),
(236,396,o),
(204,378,o),
(210,368,c)
);
}
);
width = 414;
},
{
associatedMasterId = "EF321139-F770-433D-B2B6-C3EFA1B16465";
attr = {
color = 1;
};
layerId = "5D742C30-8EE4-4649-A6BF-F16C26333CC7";
name = "11 Jan 22, 20:57";
shapes = (
{
attr = {
gradient = {
colors = (
(
(210,46,31,128),
0
),
(
(210,46,31,255),
1
)
);
end = (0.469,0.6891);
start = (0.8312,0.0709);
};
};
closed = 1;
nodes = (
(141,479,o),
(176,437,o),
(210,386,cs),
(245,334,o),
(264,271,o),
(271,195,cs),
(271,191,o),
(272,187,o),
(272,183,cs),
(272,171,ls),
(272,115,o),
(257,62,o),
(225,12,cs),
(220,3,o),
(193,-8,o),
(193,13,cs),
(194,27,o),
(195,43,o),
(195,58,cs),
(195,107,o),
(185,151,o),
(169,186,cs),
(147,231,o),
(122,281,o),
(97,321,cs),
(68,367,o),
(37,406,o),
(14,460,c),
(29,503,o),
(45,545,o),
(64,585,cs),
(66,590,o),
(69,592,o),
(74,592,cs),
(79,592,o),
(83,590,o),
(85,585,cs),
(108,538,l)
);
},
{
attr = {
gradient = {
colors = (
(
(210,46,31,128),
0
),
(
(210,46,31,255),
1
)
);
end = (0.6082,0.3178);
start = (-0.0252,0.5163);
};
};
closed = 1;
nodes = (
(280,539,l),
(280,522,o),
(291,519,o),
(308,519,cs),
(319,519,o),
(328,522,o),
(336,528,cs),
(350,540,o),
(357,553,o),
(362,571,cs),
(364,578,o),
(371,590,o),
(379,590,cs),
(386,590,o),
(392,584,o),
(392,576,cs),
(392,575,ls),
(392,522,o),
(380,464,o),
(359,426,cs),
(352,413,o),
(342,401,o),
(332,392,c),
(320,381,o),
(296,364,o),
(271,364,cs),
(251,364,o),
(226,378,o),
(223,395,c)
);
},
{
attr = {
gradient = {
colors = (
(
(210,46,31,128),
0
),
(
(210,46,31,255),
1
)
);
end = (0.609,0.3208);
start = (0.0381,0.4638);
};
};
closed = 1;
nodes = (
(117,516,o),
(138,493,o),
(170,493,cs),
(197,493,o),
(231,508,o),
(238,528,cs),
(243,541,o),
(247,569,o),
(264,569,cs),
(274,569,o),
(280,560,o),
(280,550,cs),
(280,545,ls),
(280,543,o),
(280,541,o),
(280,539,c),
(266,386,o),
(216,379,o),
(217,371,c),
(177,432,o),
(123,485,o),
(97,554,c),
(108,538,l)
);
}
);
width = 414;
}
);
unicode = (1635,1779);
}
{
glyphname = "four-ar";
layers = (
{
layerId = "1467EB51-6BD4-4CFC-AEAA-3E4EB1A95CFA";
shapes = (
{
closed = 1;
nodes = (
(311,113,o),
(292,74,o),
(269,38,c),
(221,-7,o),
(101,-16,o),
(48,31,cs),
(30,47,o),
(21,83,o),
(35,108,cs),
(58,147,o),
(83,183,o),
(99,232,c),
(72,303,o),
(-18,257,o),
(54,394,cs),
(88,459,o),
(135,534,o),
(199,574,cs),
(206,578,o),
(212,582,o),
(222,585,c),
(203,556,o),
(190,521,o),
(175,487,c),
(151,469,o),
(114,458,o),
(103,426,cs),
(100,417,o),
(104,407,o),
(112,402,cs),
(221,334,o),
(158,272,o),
(100,179,c),
(107,143,o),
(146,128,o),
(184,121,cs),
(240,112,o),
(289,128,o),
(326,151,c),
(326,151,o),
(328,152,o),
(333,149,c)
);
}
);
width = 358;
},
{
layerId = "EF321139-F770-433D-B2B6-C3EFA1B16465";
shapes = (
{
closed = 1;
nodes = (
(254,138,o),
(289,154,o),
(315,170,c),
(321,170,ls),
(325,170,o),
(329,168,o),
(332,166,c),
(335,150,l),
(314,115,o),
(295,76,o),
(273,42,c),
(247,17,o),
(204,0,o),
(152,0,cs),
(145,0,ls),
(101,0,o),
(67,13,o),
(42,33,cs),
(31,42,o),
(25,56,o),
(21,74,c),
(21,72,l),
(19,77,o),
(18,83,o),
(18,89,cs),
(18,102,o),
(21,114,o),
(27,123,c),
(43,148,l),
(59,176,o),
(75,204,o),
(87,237,c),
(82,249,o),
(74,257,o),
(66,261,cs),
(42,274,o),
(18,286,o),
(18,323,cs),
(18,350,o),
(55,418,o),
(73,447,cs),
(104,496,ls),
(127,530,o),
(155,557,o),
(189,578,cs),
(196,582,o),
(205,586,o),
(214,589,cs),
(225,593,o),
(235,580,o),
(228,571,cs),
(211,547,o),
(201,518,o),
(188,490,cs),
(185,485,o),
(184,480,o),
(182,476,c),
(168,466,o),
(155,456,o),
(139,448,cs),
(128,442,o),
(113,430,o),
(113,416,cs),
(113,414,o),
(115,412,o),
(118,411,c),
(162,384,o),
(184,356,o),
(184,326,cs),
(184,314,o),
(181,306,o),
(177,297,cs),
(160,263,o),
(139,225,o),
(113,183,c),
(121,150,o),
(173,138,o),
(214,138,cs)
);
}
);
width = 358;
},
{
associatedMasterId = "1467EB51-6BD4-4CFC-AEAA-3E4EB1A95CFA";
attr = {
color = 1;
};
layerId = "89B0E204-2F09-41F1-B532-5A37B793CFC6";
name = "11 Jan 22, 21:00";
shapes = (
{
attr = {
gradient = {
colors = (
(
(210,46,31,128),
0
),
(
(210,46,31,255),
1
)
);
end = (0.6361,0.3741);
start = (-0.0072,0.1894);
};
};
closed = 1;
nodes = (
(95,436,o),
(94,452,o),
(104,478,c),
(131,516,o),
(162,551,o),
(199,574,cs),
(206,578,o),
(212,582,o),
(222,585,c),
(203,556,o),
(190,521,o),
(175,487,c),
(151,469,o),
(114,458,o),
(103,426,c)
);
},
{
attr = {
gradient = {
colors = (
(
(210,46,31,255),
0
),
(
(210,46,31,128),
1
)
);
end = (0.9957,0.9893);
start = (0.1237,0.5416);
};
};
closed = 1;
nodes = (
(94,140,o),
(143,129,o),
(184,121,cs),
(240,112,o),
(289,128,o),
(326,151,c),
(326,151,o),
(328,152,o),
(333,149,c),
(311,113,o),
(292,74,o),
(269,38,c),
(221,-7,o),
(101,-16,o),
(48,31,cs),
(30,47,o),
(21,83,o),
(35,108,cs),
(56,143,o),
(78,175,o),
(94,217,c)
);
},
{
attr = {
gradient = {
colors = (
(
(210,46,31,128),
0
),
(
(210,46,31,255),
1
)
);
end = (0.3819,0.37);
start = (0.7706,0.0461);
};
};
closed = 1;
nodes = (
(89,202,l),
(92,212,o),
(96,222,o),
(99,232,c),
(72,303,o),
(-18,257,o),
(54,394,cs),
(68,421,o),
(85,451,o),
(104,478,c),
(100,417,o),
(104,407,o),
(112,402,cs),
(224,332,o),
(154,268,o),
(95,171,c)
);
}
);
width = 358;
},
{
associatedMasterId = "EF321139-F770-433D-B2B6-C3EFA1B16465";
attr = {
color = 1;
};
layerId = "E81B7470-3C26-4983-B6E9-E0A7E19CD53B";
name = "11 Jan 22, 21:04";
shapes = (
{
attr = {
gradient = {
colors = (
(
(210,46,31,128),
0
),
(
(210,46,31,255),
1
)
);
end = (0.6361,0.3741);
start = (-0.0072,0.1894);
};
};
closed = 1;
nodes = (
(83,410,o),
(80,432,o),
(73,447,c),
(104,496,ls),
(126,531,o),
(155,557,o),
(189,578,cs),
(196,582,o),
(205,586,o),
(214,589,cs),
(225,593,o),
(235,580,o),
(228,571,cs),
(211,547,o),
(201,518,o),
(188,490,cs),
(185,485,o),
(184,480,o),
(182,476,c),
(168,466,o),
(155,456,o),
(139,448,cs),
(128,442,o),
(113,431,o),
(113,414,c)
);
},
{
attr = {
gradient = {
colors = (
(
(210,46,31,255),
0
),
(
(210,46,31,128),
1
)
);
end = (0.9957,0.9893);
start = (0.1237,0.5416);
};
};
closed = 1;
nodes = (
(116,143,o),
(166,138,o),
(214,138,cs),
(254,138,o),
(289,154,o),
(315,170,c),
(321,170,ls),
(325,170,o),
(329,168,o),
(332,166,c),
(335,150,l),
(314,115,o),
(295,76,o),
(273,42,c),
(247,17,o),
(204,0,o),
(152,0,cs),
(145,0,ls),
(101,0,o),
(67,13,o),
(42,33,cs),
(31,42,o),
(25,56,o),
(21,74,c),
(21,72,l),
(19,77,o),
(18,83,o),
(18,89,cs),
(18,102,o),
(21,114,o),
(27,123,c),
(43,148,l),
(58,174,o),
(74,201,o),
(86,233,c)
);
},
{
attr = {
gradient = {
colors = (
(
(210,46,31,128),
0
),
(
(210,46,31,255),
1
)
);
end = (0.3819,0.37);
start = (0.7706,0.0461);
};
};
closed = 1;
nodes = (
(81,216,l),
(81,221,o),
(84,229,o),
(87,237,c),
(82,249,o),
(74,257,o),
(66,261,cs),
(42,274,o),
(18,286,o),
(18,323,cs),
(18,350,o),
(55,418,o),
(73,447,c),
(113,414,o),
(115,413,o),
(118,411,c),
(162,384,o),
(184,356,o),
(184,326,cs),
(184,314,o),
(181,306,o),
(177,297,cs),
(158,260,o),
(135,217,o),
(105,170,c)
);
}
);
width = 358;
}
);
unicode = 1636;
}
{
glyphname = "five-ar";
layers = (
{
layerId = "1467EB51-6BD4-4CFC-AEAA-3E4EB1A95CFA";
shapes = (
{
closed = 1;
nodes = (
(245,215,o),
(209,307,o),
(178,330,cs),
(164,340,o),
(146,338,o),
(134,327,cs),
(106,301,o),
(41,180,o),
(81,154,cs),
(136,118,o),
(262,152,o),
(255,177,cs)
);
},
{
closed = 1;
nodes = (
(187,5,o),
(91,-21,o),
(44,23,cs),
(-9,72,o),
(88,364,o),
(117,427,cs),
(173,548,o),
(241,446,o),
(280,351,cs),
(324,242,o),
(307,130,o),
(223,43,cs)
);
}
);
width = 338;
},
{
layerId = "EF321139-F770-433D-B2B6-C3EFA1B16465";
shapes = (
{
closed = 1;
nodes = (
(79,163,o),
(117,156,o),
(143,156,cs),
(174,156,o),
(236,172,o),
(239,180,c),
(231,206,o),
(221,230,o),
(209,258,cs),
(199,283,o),
(185,308,o),
(168,322,cs),
(163,326,o),
(159,327,o),
(155,327,cs),
(151,327,o),
(147,325,o),
(142,320,cs),
(136,314,o),
(129,306,o),
(121,292,cs),
(111,274,o),
(91,237,o),
(83,212,cs),
(81,204,o),
(79,197,o),
(79,190,cs)
);
},
{
closed = 1;
nodes = (
(206,21,o),
(160,0,o),
(108,0,cs),
(80,0,o),
(57,8,o),
(38,26,cs),
(25,38,o),
(19,58,o),
(19,87,cs),
(19,153,o),
(39,230,o),
(56,290,cs),
(68,330,o),
(95,407,o),
(105,430,cs),
(125,473,o),
(148,495,o),
(172,495,cs),
(185,495,o),
(197,488,o),
(210,475,cs),
(241,443,o),
(266,404,o),
(286,356,cs),
(299,322,o),
(309,285,o),
(309,241,cs),
(309,224,o),
(308,207,o),
(305,192,cs),
(296,139,o),
(271,90,o),
(228,45,cs)
);
}
);
width = 338;
},
{
associatedMasterId = "1467EB51-6BD4-4CFC-AEAA-3E4EB1A95CFA";
attr = {
color = 1;
};
layerId = "6BDA9E5E-5E96-49CB-A603-B40AD8C1E88F";
name = "11 Jan 22, 21:07";
shapes = (
{
attr = {
gradient = {
colors = (
(
(210,46,31,255),
0
),
(
(210,46,31,255),
1
)
);
end = (0.2732,0.4338);
start = (0.8407,0.2198);
};
};
closed = 1;
nodes = (
(296,200,o),
(288,173,o),
(269,156,c),
(238,156,l),
(250,163,o),
(257,169,o),
(255,177,cs),
(245,215,o),
(209,307,o),
(178,330,cs),
(164,340,o),
(146,338,o),
(134,327,cs),
(108,303,o),
(52,200,o),
(72,163,c),
(59,183,o),
(54,206,o),
(52,229,c),
(73,313,o),
(103,397,o),
(117,427,cs),
(173,548,o),
(241,446,o),
(280,351,cs),
(296,311,o),
(304,270,o),
(303,230,c)
);
},
{
attr = {
gradient = {
colors = (
(
(210,46,31,128),
0
),
(
(210,46,31,255),
1
)
);
end = (0.6269,0.4077);
start = (0.034,0.5188);
};
};
closed = 1;
nodes = (
(303,230,c),
(302,163,o),
(276,98,o),
(223,43,cs),
(187,5,o),
(91,-21,o),
(44,23,cs),
(17,48,o),
(29,139,o),
(52,229,c),
(57,182,o),
(72,160,o),
(81,154,cs),
(134,119,o),
(276,139,o)
);
}
);
width = 338;
},
{
associatedMasterId = "EF321139-F770-433D-B2B6-C3EFA1B16465";
attr = {
color = 1;
};
layerId = "685E387B-FFF8-495A-8937-076CC2943520";
name = "11 Jan 22, 21:12";
shapes = (
{
attr = {
gradient = {
colors = (
(
(210,46,31,128),
0
),
(
(210,46,31,255),
1
)
);
end = (0.6269,0.4077);
start = (0.034,0.5188);
};
};
closed = 1;
nodes = (
(60,163,o),
(117,156,o),
(143,156,cs),
(179,156,o),
(257,169,o),
(308,236,c),
(309,219,o),
(308,205,o),
(305,192,cs),
(296,139,o),
(271,90,o),
(228,45,cs),
(206,21,o),
(160,0,o),
(108,0,cs),
(80,0,o),
(57,8,o),
(38,26,cs),
(25,38,o),
(19,58,o),
(19,87,cs),
(19,145,o),
(35,212,o),
(50,267,c)
);
},
{
attr = {
gradient = {
colors = (
(
(210,46,31,255),
0
),
(
(210,46,31,255),
1
)
);
end = (0.2732,0.4338);
start = (0.8407,0.2198);
};
};
closed = 1;
nodes = (
(80,182,c),
(62,204,o),
(54,230,o),
(49,263,c),
(52,273,o),
(54,282,o),
(56,290,cs),
(68,330,o),
(95,407,o),
(105,430,cs),
(125,473,o),
(148,495,o),
(172,495,cs),
(185,495,o),
(197,488,o),
(210,475,cs),
(241,443,o),
(266,404,o),
(286,356,cs),
(299,322,o),
(309,285,o),
(309,241,cs),
(309,228,o),
(308,215,o),
(307,202,c),
(243,165,l),
(235,197,o),
(223,225,o),
(209,258,cs),
(199,283,o),
(185,308,o),
(168,322,cs),
(163,326,o),
(159,327,o),
(155,327,cs),
(151,327,o),
(147,325,o),
(142,320,cs),
(136,314,o),
(129,306,o),
(121,292,cs),
(111,274,o),
(91,237,o),
(83,212,cs),
(80,199,o),
(77,191,o)
);
}
);
width = 338;
}
);
unicode = 1637;
}
{
glyphname = "six-ar";
layers = (
{
layerId = "1467EB51-6BD4-4CFC-AEAA-3E4EB1A95CFA";
shapes = (
{
closed = 1;
nodes = (
(342,83,o),
(326,42,o),
(309,4,cs),
(307,0,o),
(297,-2,o),
(295,3,cs),
(255,102,o),
(232,228,o),
(246,369,cs),
(247,375,o),
(248,392,o),
(249,400,c),
(161,402,o),
(94,423,o),
(36,454,cs),
(27,459,o),
(29,471,o),
(32,479,cs),
(45,513,o),
(62,551,o),
(73,585,c),
(136,550,o),
(213,525,o),
(312,529,c),
(290,391,o),
(301,230,o),
(350,132,c),
(351,131,o),
(355,125,o),
(355,124,c)
);
}
);
width = 379;
},
{
layerId = "EF321139-F770-433D-B2B6-C3EFA1B16465";
shapes = (
{
closed = 1;
nodes = (
(229,376,o),
(229,382,o),
(230,386,cs),
(230,387,l),
(148,390,o),
(87,411,o),
(32,441,cs),
(23,446,o),
(19,454,o),
(19,463,cs),
(19,468,o),
(20,473,o),
(23,480,cs),
(38,518,ls),
(47,539,o),
(55,560,o),
(62,582,cs),
(64,588,o),
(71,593,o),
(79,588,cs),
(109,571,o),
(142,558,o),
(179,548,cs),
(209,539,o),
(244,536,o),
(283,536,cs),
(293,536,ls),
(305,536,o),
(318,537,o),
(316,522,cs),
(309,478,o),
(306,436,o),
(306,392,cs),
(306,367,o),
(308,342,o),
(310,318,cs),
(315,248,o),
(329,191,o),
(352,145,c),
(352,146,l),
(354,142,o),
(359,136,o),
(357,129,cs),
(344,87,o),
(329,47,o),
(312,10,c),
(308,4,o),
(304,1,o),
(295,0,cs),
(287,0,o),
(281,4,o),
(278,11,cs),
(247,89,o),
(225,181,o),
(225,288,cs),
(225,315,o),
(227,345,o),
(229,371,cs)
);
}
);
width = 379;
},
{
associatedMasterId = "1467EB51-6BD4-4CFC-AEAA-3E4EB1A95CFA";
attr = {
color = 1;
};
layerId = "DD5501CF-6CCE-4982-9162-A7F3C3DAC879";
name = "11 Jan 22, 21:16";
shapes = (
{
attr = {
gradient = {
colors = (
(
(210,46,31,255),
0
),
(
(210,46,31,128),
1
)
);
end = (0.9957,0.9893);
start = (0.2456,0.9199);
};
};
closed = 1;
nodes = (
(268,400,l),
(171,399,o),
(98,421,o),
(36,454,cs),
(27,459,o),
(29,471,o),
(32,479,cs),
(45,513,o),
(62,551,o),
(73,585,c),
(133,551,o),
(207,527,o),
(300,529,c)
);
},
{
attr = {
gradient = {
colors = (
(
(210,46,31,128),
0
),
(
(210,46,31,255),
1
)
);
end = (0.469,0.6891);
start = (0.8312,0.0709);
};
};
closed = 1;
nodes = (
(282,529,c),
(292,529,o),
(307,529,o),
(312,529,c),
(290,391,o),
(301,230,o),
(350,132,c),
(351,131,o),
(355,125,o),
(355,124,c),
(342,83,o),
(326,42,o),
(309,4,cs),
(307,0,o),
(297,-2,o),
(295,3,cs),
(255,102,o),
(232,228,o),
(246,369,cs),
(248,378,o),
(247,441,o)
);
}
);
width = 379;
},
{
associatedMasterId = "EF321139-F770-433D-B2B6-C3EFA1B16465";
attr = {
color = 1;
};
layerId = "4F54545B-146E-4EF3-8D0B-D1334667609C";
name = "11 Jan 22, 21:17";
shapes = (
{
attr = {
gradient = {
colors = (
(
(210,46,31,255),
0
),
(
(210,46,31,128),
1
)
);
end = (0.9957,0.9893);
start = (0.2456,0.9199);
};
};
closed = 1;
nodes = (
(230,387,l),
(148,390,o),
(87,411,o),
(32,441,cs),
(23,446,o),
(19,454,o),
(19,463,cs),
(19,468,o),
(20,473,o),
(23,480,cs),
(38,518,ls),
(46,539,o),
(55,560,o),
(62,582,cs),
(64,588,o),
(71,593,o),
(79,588,cs),
(109,571,o),
(142,558,o),
(179,548,cs),
(209,539,o),
(244,536,o),
(283,536,c)
);
},
{
attr = {
gradient = {
colors = (
(
(210,46,31,128),
0
),
(
(210,46,31,255),
1
)
);
end = (0.469,0.6891);
start = (0.8312,0.0709);
};
};
closed = 1;
nodes = (
(277,536,c),
(293,536,ls),
(305,536,o),
(318,537,o),
(316,522,cs),
(309,478,o),
(306,436,o),
(306,392,cs),
(306,367,o),
(308,342,o),
(310,318,cs),
(315,248,o),
(329,191,o),
(352,145,c),
(352,146,l),
(354,142,o),
(359,136,o),
(357,129,cs),
(344,87,o),
(329,47,o),
(312,10,c),
(308,4,o),
(304,1,o),
(295,0,cs),
(287,0,o),
(281,4,o),
(278,11,cs),
(247,89,o),
(225,181,o),
(225,288,cs),
(225,375,o),
(230,456,o)
);
}
);
width = 379;
}
);
unicode = 1638;
}
{
glyphname = "seven-ar";
layers = (
{
attr = {
color = 1;
};
layerId = "1467EB51-6BD4-4CFC-AEAA-3E4EB1A95CFA";
shapes = (
{
attr = {
gradient = {
colors = (
(
(210,46,31,128),
0
),
(
(210,46,31,255),
1
)
);
end = (0.469,0.6891);
start = (0.8312,0.0709);
};
};
closed = 1;
nodes = (
(345,543,o),
(340,497,o),
(340,449,c),
(290,346,o),
(256,229,o),
(224,106,cs),
(216,74,o),
(214,37,o),
(199,10,cs),
(196,5,o),
(185,-5,o),
(183,3,cs),
(153,172,o),
(90,308,o),
(25,446,c),
(37,490,o),
(53,538,o),
(68,585,c),
(126,464,o),
(177,331,o),
(213,214,c),
(249,348,o),
(296,468,o),
(346,582,cs),
(347,585,o),
(349,585,o),
(352,584,c)
);
}
);
width = 376;
},
{
attr = {
color = 1;
};
layerId = "EF321139-F770-433D-B2B6-C3EFA1B16465";
shapes = (
{
attr = {
gradient = {
colors = (
(
(210,46,31,128),
0
),
(
(210,46,31,255),
1
)
);
end = (0.469,0.6891);
start = (0.8312,0.0709);
};
};
closed = 1;
nodes = (
(348,533,o),
(344,490,o),
(344,444,c),
(295,342,o),
(262,231,o),
(231,111,cs),
(222,79,o),
(220,43,o),
(206,16,cs),
(204,11,o),
(199,7,o),
(193,3,c),
(194,3,l),
(190,1,o),
(186,0,o),
(183,0,cs),
(175,0,o),
(170,5,o),
(168,13,cs),
(138,179,o),
(76,308,o),
(14,442,c),
(24,481,o),
(40,527,o),
(52,566,cs),
(57,581,ls),
(60,592,o),
(74,594,o),
(79,583,cs),
(130,474,o),
(174,367,o),
(209,260,c),
(242,376,o),
(281,476,o),
(326,579,c),
(328,586,o),
(334,589,o),
(341,589,cs),
(344,589,o),
(346,588,o),
(349,587,c),
(355,575,l)
);
}
);
width = 376;
}
);
unicode = 1639;
}
{
glyphname = "eight-ar";
layers = (
{
attr = {
color = 1;
};
layerId = "1467EB51-6BD4-4CFC-AEAA-3E4EB1A95CFA";
shapes = (
{
attr = {
gradient = {
colors = (
(
(210,46,31,255),
0
),
(
(210,46,31,128),
1
)
);
end = (0.4896,0.9031);
start = (0.8312,0.0709);
};
};
closed = 1;
nodes = (
(31,42,o),
(36,87,o),
(36,135,c),
(86,238,o),
(120,355,o),
(152,478,cs),
(160,510,o),
(162,548,o),
(177,575,cs),
(180,580,o),
(191,589,o),
(193,581,cs),
(223,412,o),
(286,277,o),
(351,139,c),
(339,95,o),
(324,47,o),
(309,0,c),
(251,121,o),
(199,254,o),
(163,371,c),
(127,237,o),
(80,117,o),
(30,3,cs),
(29,0,o),
(27,0,o),
(24,1,c)
);
}
);
width = 376;
},
{
attr = {
color = 1;
};
layerId = "EF321139-F770-433D-B2B6-C3EFA1B16465";
shapes = (
{
attr = {
gradient = {
colors = (
(
(210,46,31,255),
0
),
(
(210,46,31,128),
1
)
);
end = (0.4896,0.9031);
start = (0.8312,0.0709);
};
};
closed = 1;
nodes = (
(19,1,o),
(14,7,o),
(15,15,cs),
(22,57,o),
(26,100,o),
(26,146,c),
(75,245,o),
(109,361,o),
(140,478,cs),
(150,515,o),
(148,567,o),
(176,586,c),
(178,588,o),
(183,590,o),
(187,590,cs),
(195,590,o),
(200,585,o),
(202,577,cs),
(232,410,o),
(294,281,o),
(356,147,c),
(344,103,o),
(327,51,o),
(313,8,c),
(311,4,o),
(307,0,o),
(302,0,cs),
(297,0,o),
(293,3,o),
(291,7,cs),
(240,114,o),
(196,222,o),
(161,329,c),
(129,214,o),
(88,113,o),
(44,11,cs),
(42,5,o),
(37,1,o),
(29,1,cs),
(27,1,ls)
);
}
);
width = 376;
}
);
unicode = (1640,1784);
}
{
glyphname = "nine-ar";
layers = (
{
attr = {
color = 1;
};
layerId = "1467EB51-6BD4-4CFC-AEAA-3E4EB1A95CFA";
shapes = (
{
attr = {
gradient = {
colors = (
(
(210,46,31,128),
0
),
(
(210,46,31,255),
1
)
);
end = (0.469,0.6891);
start = (0.8312,0.0709);
};
};
closed = 1;
nodes = (
(178,427,o),
(164,452,o),
(145,455,cs),
(112,460,o),
(101,434,o),
(90,413,cs),
(86,406,o),
(88,398,o),
(94,393,cs),
(117,375,o),
(163,382,o),
(186,398,cs),
(188,399,o),
(181,411,o),
(183,411,c)
);
},
{
attr = {
gradient = {
colors = (
(
(210,46,31,128),
0
),
(
(210,46,31,255),
1
)
);
end = (0.469,0.6891);
start = (0.8312,0.0709);
};
};
closed = 1;
nodes = (
(236,-2,l),
(207,98,o),
(191,181,o),
(190,306,c),
(166,271,o),
(112,234,o),
(58,259,cs),
(-33,300,o),
(103,521,o),
(142,563,cs),
(156,578,o),
(185,593,o),
(211,579,cs),
(237,565,o),
(253,538,o),
(254,506,cs),
(259,362,o),
(256,250,o),
(290,139,c),
(293,134,l)
);
}
);
width = 317;
},
{
attr = {
color = 1;
};
layerId = "EF321139-F770-433D-B2B6-C3EFA1B16465";
shapes = (
{
attr = {
gradient = {
colors = (
(
(210,46,31,128),
0
),
(
(210,46,31,255),
1
)
);
end = (0.469,0.6891);
start = (0.8312,0.0709);
};
};
closed = 1;
nodes = (
(164,424,o),
(160,445,o),
(136,443,cs),
(126,442,o),
(117,436,o),
(110,423,cs),
(103,410,o),
(100,403,o),
(101,403,c),
(113,388,o),
(155,389,o),
(169,401,c)
);
},
{
attr = {
gradient = {
colors = (
(
(210,46,31,128),
0
),
(
(210,46,31,255),
1
)
);
end = (0.469,0.6891);
start = (0.8312,0.0709);
};
};
closed = 1;
nodes = (
(50,243,o),
(17,269,o),
(17,313,cs),
(17,318,ls),
(17,354,o),
(31,386,o),
(42,415,cs),
(61,460,o),
(86,505,o),
(113,542,cs),
(120,552,o),
(126,560,o),
(131,566,cs),
(142,577,o),
(163,591,o),
(185,591,cs),
(193,591,o),
(202,589,o),
(212,584,cs),
(242,567,o),
(258,540,o),
(260,503,cs),
(267,314,ls),
(270,255,o),
(279,201,o),
(294,152,c),
(296,149,o),
(298,144,o),
(297,138,c),
(241,7,ls),
(237,-4,o),
(222,-2,o),
(219,8,cs),
(194,92,o),
(177,173,o),
(174,278,c),
(156,262,o),
(129,243,o),
(97,243,cs)
);
}
);
width = 317;
}
);
unicode = (1641,1785);
}
{
glyphname = "percent-ar";
layers = (
{
layerId = "1467EB51-6BD4-4CFC-AEAA-3E4EB1A95CFA";
shapes = (
{
closed = 1;
nodes = (
(92,542,l),
(175,494,l),
(107,379,l),
(24,429,l)
);
},
{
closed = 1;
nodes = (
(325,480,l),
(396,514,l),
(132,-30,l),
(62,-62,l)
);
},
{
closed = 1;
nodes = (
(334,123,l),
(417,74,l),
(349,-41,l),
(266,10,l)
);
}
);
width = 440;
},
{
layerId = "EF321139-F770-433D-B2B6-C3EFA1B16465";
shapes = (
{
closed = 1;
nodes = (
(16,420,o),
(14,427,o),
(18,433,cs),
(83,542,ls),
(86,547,o),
(92,550,o),
(99,546,cs),
(179,500,ls),
(184,497,o),
(187,490,o),
(183,483,cs),
(118,372,ls),
(115,367,o),
(108,364,o),
(102,368,cs),
(21,417,ls)
);
},
{
closed = 1;
nodes = (
(59,-64,o),
(48,-54,o),
(53,-43,cs),
(309,485,l),
(382,519,ls),
(392,524,o),
(402,513,o),
(397,503,cs),
(140,-26,l),
(69,-60,ls)
);
},
{
closed = 1;
nodes = (
(250,14,o),
(247,21,o),
(251,27,cs),
(316,137,ls),
(319,142,o),
(327,145,o),
(333,141,cs),
(412,94,ls),
(417,91,o),
(421,84,o),
(417,77,cs),
(352,-34,ls),
(349,-39,o),
(341,-41,o),
(335,-38,cs),
(255,11,ls)
);
}
);
width = 440;
},
{
associatedMasterId = "1467EB51-6BD4-4CFC-AEAA-3E4EB1A95CFA";
attr = {
color = 1;
};
layerId = "BC159F5A-F604-4930-B923-EED256B16A87";
name = "11 Jan 22, 23:40";
shapes = (
{
attr = {
gradient = {
colors = (
(
(210,46,31,128),
0
),
(
(210,46,31,255),
1
)
);
end = (0.2902,0.7216);
start = (0.7235,0.2946);
};
};
closed = 1;
nodes = (
(92,542,l),
(175,494,l),
(107,379,l),
(24,429,l)
);
},
{
attr = {
gradient = {
colors = (
(
(210,46,31,255),
0
),
(
(210,46,31,128),
1
)
);
end = (0.1253,0.0319);
start = (0.8776,0.9416);
};
};
closed = 1;
nodes = (
(325,480,l),
(396,514,l),
(132,-30,l),
(62,-62,l)
);
},
{
attr = {
gradient = {
colors = (
(
(210,46,31,128),
0
),
(
(210,46,31,255),
1
)
);
end = (0.2902,0.7216);
start = (0.7235,0.2946);
};
};
closed = 1;
nodes = (
(334,123,l),
(417,74,l),
(349,-41,l),
(266,10,l)
);
}
);
width = 440;
},
{
associatedMasterId = "EF321139-F770-433D-B2B6-C3EFA1B16465";
attr = {
color = 1;
};
layerId = "3B596B7A-95D5-41E6-A608-1F9A87B1D5A2";
name = "11 Jan 22, 23:42";
shapes = (
{
attr = {
gradient = {
colors = (
(
(210,46,31,128),
0
),
(
(210,46,31,255),
1
)
);
end = (0.2902,0.7216);
start = (0.7235,0.2946);
};
};
closed = 1;
nodes = (
(16,420,o),
(14,427,o),
(18,433,cs),
(83,542,ls),
(86,547,o),
(92,550,o),
(99,546,cs),
(179,500,ls),
(184,497,o),
(187,490,o),
(183,483,cs),
(118,372,ls),
(115,367,o),
(108,364,o),
(102,368,cs),
(21,417,ls)
);
},
{
attr = {
gradient = {
colors = (
(
(210,46,31,255),
0
),
(
(210,46,31,128),
1
)
);
end = (0.1253,0.0319);
start = (0.8776,0.9416);
};
};
closed = 1;
nodes = (
(59,-64,o),
(48,-54,o),
(53,-43,cs),
(309,485,l),
(382,519,ls),
(392,524,o),
(402,513,o),
(397,503,cs),
(140,-26,l),
(69,-60,ls)
);
},
{
attr = {
gradient = {
colors = (
(
(210,46,31,128),
0
),
(
(210,46,31,255),
1
)
);
end = (0.2902,0.7216);
start = (0.7235,0.2946);
};
};
closed = 1;
nodes = (
(250,14,o),
(247,21,o),
(251,27,cs),
(316,137,ls),
(319,142,o),
(327,145,o),
(333,141,cs),
(412,94,ls),
(417,91,o),
(421,84,o),
(417,77,cs),
(352,-34,ls),
(349,-39,o),
(341,-41,o),
(335,-38,cs),
(255,11,ls)
);
}
);
width = 440;
}
);
unicode = 1642;
}
{
glyphname = "behDotless-ar";
layers = (
{
anchors = (
{
name = bottom;
pos = (308,-136);
},
{
name = bottom.mark;
pos = (330,-185);
},
{
name = top;
pos = (397,505);
},
{
name = top.mark;
pos = (347,532);
}
);
layerId = "1467EB51-6BD4-4CFC-AEAA-3E4EB1A95CFA";
shapes = (
{
closed = 1;
nodes = (
(696,456,l),
(696,456,o),
(759,335,o),
(699,215,cs),
(646,107,o),
(441,1,o),
(275,1,cs),
(264,1,o),
(86,-13,o),
(86,152,cs),
(86,207,o),
(123,288,o),
(177,369,cs),
(188,385,o),
(196,380,o),
(192,372,cs),
(184,357,o),
(147,300,o),
(144,240,cs),
(140,155,o),
(219,124,o),
(306,124,cs),
(456,124,o),
(650,221,o),
(650,221,c),
(651,244,o),
(632,308,o),
(619,342,c)
);
}
);
width = 801;
},
{
anchors = (
{
name = bottom;
pos = (308,-136);
},
{
name = bottom.mark;
pos = (330,-185);
},
{
name = top;
pos = (397,505);
},
{
name = top.mark;
pos = (347,532);
}
);
layerId = "EF321139-F770-433D-B2B6-C3EFA1B16465";
shapes = (
{
closed = 1;
nodes = (
(192,397,o),
(200,387,o),
(200,376,cs),
(200,372,o),
(198,367,o),
(195,360,cs),
(170,312,o),
(157,274,o),
(157,244,cs),
(157,169,o),
(225,143,o),
(302,143,cs),
(401,143,o),
(499,172,o),
(569,206,cs),
(623,232,l),
(621,259,o),
(611,286,o),
(604,309,cs),
(601,320,o),
(597,330,o),
(594,339,cs),
(593,342,o),
(594,347,o),
(595,349,cs),
(669,458,ls),
(675,467,o),
(687,466,o),
(690,456,cs),
(713,385,ls),
(719,367,o),
(722,349,o),
(722,329,cs),
(722,284,o),
(709,249,o),
(693,214,cs),
(672,169,o),
(631,129,o),
(571,92,cs),
(502,50,o),
(422,17,o),
(327,5,cs),
(308,3,o),
(289,1,o),
(272,1,cs),
(171,1,o),
(103,32,o),
(76,107,cs),
(69,124,o),
(66,143,o),
(66,165,cs),
(66,192,o),
(73,221,o),
(86,252,cs),
(108,300,o),
(129,343,o),
(155,384,c),
(162,393,o),
(170,397,o),
(178,397,cs)
);
}
);
width = 801;
},
{
associatedMasterId = "1467EB51-6BD4-4CFC-AEAA-3E4EB1A95CFA";
attr = {
color = 1;
};
layerId = "9D9A98DB-AE48-40E7-8F3E-58297F62AF94";
name = "14 Dec 21, 20:29";
shapes = (
{
attr = {
gradient = {
colors = (
(
(210,46,31,128),
0
),
(
(210,46,31,255),
1
)
);
end = (0.431,0.6935);
start = (0.2079,0.0027);
};
};
closed = 1;
nodes = (
(668,167,o),
(687,191,o),
(699,215,cs),
(759,335,o),
(696,456,o),
(696,456,c),
(619,342,l),
(646,272,o),
(660,212,o),
(643,144,c)
);
},
{
attr = {
gradient = {
colors = (
(
(210,46,31,128),
0
),
(
(210,46,31,255),
1
)
);
end = (0.8227,0.423);
start = (-0.0488,0.8418);
};
};
closed = 1;
nodes = (
(712,245,o),
(706,230,o),
(699,215,cs),
(646,107,o),
(441,1,o),
(275,1,cs),
(264,1,o),
(86,-13,o),
(86,152,cs),
(86,207,o),
(123,288,o),
(177,369,cs),
(188,385,o),
(196,380,o),
(192,372,cs),
(184,357,o),
(147,300,o),
(144,240,cs),
(140,155,o),
(219,124,o),
(306,124,cs),
(459,124,o),
(672,224,o),
(716,259,c)
);
}
);
width = 801;
},
{
associatedMasterId = "EF321139-F770-433D-B2B6-C3EFA1B16465";
attr = {
color = 1;
};
layerId = "4EDA7C0F-4E5B-42D1-A672-99FF9E80578D";
name = "14 Dec 21, 20:30";
shapes = (
{
attr = {
gradient = {
colors = (
(
(210,46,31,128),
0
),
(
(210,46,31,255),
1
)
);
end = (0.431,0.6935);
start = (0.2079,0.0027);
};
};
closed = 1;
nodes = (
(634,248,o),
(613,281,o),
(604,309,cs),
(601,320,o),
(597,330,o),
(594,339,cs),
(593,342,o),
(594,347,o),
(595,349,cs),
(669,458,ls),
(675,467,o),
(687,466,o),
(690,456,cs),
(713,385,ls),
(719,367,o),
(722,349,o),
(722,329,cs),
(722,284,o),
(709,249,o),
(693,214,c),
(678,183,o),
(654,154,o),
(620,126,c)
);
},
{
attr = {
gradient = {
colors = (
(
(210,46,31,128),
0
),
(
(210,46,31,255),
1
)
);
end = (0.8227,0.423);
start = (-0.0488,0.8418);
};
};
closed = 1;
nodes = (
(652,252,o),
(683,270,o),
(721,309,c),
(718,273,o),
(706,244,o),
(693,214,c),
(672,169,o),
(631,129,o),
(571,92,c),
(502,50,o),
(422,17,o),
(327,5,cs),
(308,3,o),
(289,1,o),
(272,1,cs),
(171,1,o),
(103,32,o),
(76,107,cs),
(69,124,o),
(66,143,o),
(66,165,cs),
(66,192,o),
(73,221,o),
(86,252,c),
(108,300,o),
(129,343,o),
(155,384,c),
(162,393,o),
(170,397,o),
(178,397,cs),
(192,397,o),
(200,387,o),
(200,376,cs),
(200,372,o),
(198,367,o),
(195,360,c),
(170,312,o),
(157,274,o),
(157,244,cs),
(157,169,o),
(225,143,o),
(302,143,cs),
(401,143,o),
(499,172,o),
(569,206,cs)
);
}
);
width = 801;
}
);
unicode = 1646;
}
{
glyphname = "qafDotless-ar";
layers = (
{
anchors = (
{
name = bottom;
pos = (188,-167);
},
{
name = bottom.mark;
pos = (174,-180);
},
{
name = top;
pos = (218,637);
},
{
name = top.mark;
pos = (297,655);
}
);
layerId = "1467EB51-6BD4-4CFC-AEAA-3E4EB1A95CFA";
shapes = (
{
closed = 1;
nodes = (
(103,418,o),
(101,421,o),
(97,421,cs),
(94,421,o),
(90,418,o),
(87,412,cs),
(28,301,o),
(0,215,o),
(0,157,cs),
(0,61,o),
(41,8,o),
(119,1,cs),
(157,-3,o),
(199,6,o),
(243,28,cs),
(350,81,o),
(402,182,o),
(432,323,cs),
(450,406,o),
(435,472,o),
(389,519,cs),
(378,530,o),
(350,545,o),
(334,527,cs),
(303,492,o),
(286,442,o),
(264,398,cs),
(251,373,o),
(252,353,o),
(266,337,cs),
(283,318,o),
(326,316,o),
(358,324,c),
(369,307,o),
(373,260,o),
(373,232,c),
(334,195,o),
(255,155,o),
(186,144,cs),
(120,133,o),
(51,151,o),
(40,200,cs),
(38,209,o),
(37,219,o),
(37,229,cs),
(37,241,o),
(39,254,o),
(42,267,cs),
(52,308,o),
(84,365,o),
(99,400,cs),
(101,406,o),
(103,410,o),
(103,414,cs)
);
}
);
width = 488;
},
{
anchors = (
{
name = bottom;
pos = (189,-167);
},
{
name = bottom.mark;
pos = (176,-180);
},
{
name = top;
pos = (220,637);
},
{
name = top.mark;
pos = (299,655);
}
);
layerId = "EF321139-F770-433D-B2B6-C3EFA1B16465";
shapes = (
{
closed = 1;
nodes = (
(114,420,o),
(108,428,o),
(97,428,cs),
(90,428,o),
(84,423,o),
(78,413,cs),
(50,362,o),
(29,315,o),
(14,272,cs),
(-1,229,o),
(-9,192,o),
(-9,161,cs),
(-9,115,o),
(0,80,o),
(18,56,cs),
(40,26,o),
(76,0,o),
(125,0,cs),
(133,0,ls),
(175,0,o),
(210,12,o),
(242,28,cs),
(349,80,o),
(400,181,o),
(431,322,cs),
(436,343,o),
(438,364,o),
(438,387,cs),
(438,447,o),
(417,489,o),
(386,521,cs),
(376,530,o),
(354,547,o),
(335,541,cs),
(317,536,o),
(305,515,o),
(295,500,cs),
(288,489,o),
(282,477,o),
(276,466,cs),
(266,444,o),
(258,423,o),
(247,402,cs),
(240,388,o),
(236,376,o),
(236,365,cs),
(236,349,o),
(242,340,o),
(250,330,cs),
(259,320,o),
(280,309,o),
(304,309,cs),
(311,309,ls),
(321,309,o),
(332,310,o),
(342,312,c),
(349,295,o),
(350,263,o),
(350,241,c),
(313,210,o),
(242,173,o),
(184,162,cs),
(172,160,o),
(160,159,o),
(150,159,cs),
(142,159,o),
(132,160,o),
(122,160,cs),
(73,162,o),
(51,183,o),
(51,230,cs),
(51,284,o),
(78,327,o),
(97,364,cs),
(105,379,o),
(114,391,o),
(114,410,cs)
);
}
);
width = 490;
},
{
associatedMasterId = "1467EB51-6BD4-4CFC-AEAA-3E4EB1A95CFA";
attr = {
color = 1;
};
layerId = "2D096405-BF31-49C9-871E-EB93612AE25A";
name = "3 Jan 22, 02:59";
shapes = (
{
attr = {
gradient = {
colors = (
(
(210,46,31,128),
0
),
(
(210,46,31,255),
1
)
);
end = (0.431,0.6935);
start = (0.2079,0.0027);
};
};
closed = 1;
nodes = (
(420,275,l),
(423,291,o),
(429,307,o),
(432,323,cs),
(450,406,o),
(435,472,o),
(389,519,cs),
(378,530,o),
(350,545,o),
(334,527,cs),
(303,492,o),
(286,442,o),
(264,398,cs),
(251,373,o),
(252,353,o),
(266,337,cs),
(283,318,o),
(326,316,o),
(358,324,c),
(371,304,o),
(374,243,o),
(373,220,c)
);
},
{
attr = {
gradient = {
colors = (
(
(210,46,31,128),
0
),
(
(210,46,31,255),
1
)
);
end = (0.8227,0.423);
start = (-0.0488,0.8418);
};
};
closed = 1;
nodes = (
(409,267,o),
(334,168,o),
(186,144,cs),
(120,133,o),
(51,151,o),
(40,200,cs),
(38,209,o),
(37,219,o),
(37,229,cs),
(37,241,o),
(39,254,o),
(42,267,cs),
(52,308,o),
(84,365,o),
(99,400,cs),
(101,406,o),
(103,410,o),
(103,414,cs),
(103,418,o),
(101,421,o),
(97,421,cs),
(94,421,o),
(90,418,o),
(87,412,cs),
(28,301,o),
(0,215,o),
(0,157,cs),
(0,61,o),
(41,8,o),
(119,1,cs),
(157,-3,o),
(199,6,o),
(243,28,cs),
(347,79,o),
(399,176,o),
(429,310,c)
);
}
);
width = 488;
},
{
associatedMasterId = "EF321139-F770-433D-B2B6-C3EFA1B16465";
attr = {
color = 1;
};
layerId = "C7CF2669-8182-4CD0-9830-B8728DA70165";
name = "3 Jan 22, 03:13";
shapes = (
{
attr = {
gradient = {
colors = (
(
(210,46,31,128),
0
),
(
(210,46,31,255),
1
)
);
end = (0.431,0.6935);
start = (0.2079,0.0027);
};
};
closed = 1;
nodes = (
(431,322,l),
(436,343,o),
(438,364,o),
(438,387,cs),
(438,447,o),
(417,489,o),
(386,521,cs),
(376,530,o),
(354,547,o),
(335,541,cs),
(317,536,o),
(305,515,o),
(295,500,cs),
(288,489,o),
(282,477,o),
(276,466,cs),
(266,444,o),
(258,423,o),
(247,402,cs),
(240,388,o),
(236,376,o),
(236,365,cs),
(236,349,o),
(242,340,o),
(250,330,cs),
(259,320,o),
(280,309,o),
(304,309,cs),
(311,309,ls),
(321,309,o),
(332,310,o),
(342,312,c),
(351,291,o),
(350,248,o),
(350,228,c)
);
},
{
attr = {
gradient = {
colors = (
(
(210,46,31,128),
0
),
(
(210,46,31,255),
1
)
);
end = (0.8227,0.423);
start = (-0.0488,0.8418);
};
};
closed = 1;
nodes = (
(359,249,l),
(325,217,o),
(247,174,o),
(184,162,cs),
(172,160,o),
(160,159,o),
(150,159,cs),
(142,159,o),
(132,160,o),
(122,160,cs),
(73,162,o),
(51,183,o),
(51,230,cs),
(51,284,o),
(78,327,o),
(97,364,cs),
(105,379,o),
(114,391,o),
(114,410,cs),
(114,420,o),
(108,428,o),
(97,428,cs),
(90,428,o),
(84,423,o),
(78,413,cs),
(50,362,o),
(29,315,o),
(14,272,cs),
(-1,229,o),
(-9,192,o),
(-9,161,cs),
(-9,115,o),
(0,80,o),
(18,56,cs),
(40,26,o),
(76,0,o),
(125,0,cs),
(133,0,ls),
(175,0,o),
(210,12,o),
(242,28,cs),
(349,80,o),
(400,181,o),
(431,322,c)
);
}
);
width = 490;
}
);
unicode = 1647;
}
{
category = Mark;
glyphname = "alefabove-ar";
layers = (
{
anchors = (
{
name = _top.mark;
},
{
name = _top.mkmk;
}
);
attr = {
color = 1;
};
layerId = "1467EB51-6BD4-4CFC-AEAA-3E4EB1A95CFA";
shapes = (
{
attr = {
gradient = {
colors = (
(
(0,116,182,128),
0
),
(
(0,116,182,255),
1
)
);
end = (-0.3618,0.3448);
start = (1.0152,0.1787);
};
};
closed = 1;
nodes = (
(-24,153,o),
(-23,154,o),
(-20,155,cs),
(-19,155,ls),
(-17,155,o),
(-16,154,o),
(-15,152,cs),
(-2,117,o),
(16,82,o),
(26,44,cs),
(29,31,o),
(31,19,o),
(31,6,cs),
(31,4,ls),
(31,-27,o),
(21,-49,o),
(4,-68,cs),
(2,-70,o),
(2,-71,o),
(0,-71,cs),
(-1,-71,ls),
(-2,-71,o),
(-3,-69,o),
(-3,-68,c),
(-3,-68,o),
(-2,-68,o),
(-2,-67,cs),
(0,-54,o),
(1,-42,o),
(1,-31,cs),
(1,-23,ls),
(-1,27,o),
(-21,60,o),
(-35,98,cs),
(-37,103,o),
(-39,110,o),
(-40,116,c),
(-24,150,l)
);
}
);
width = 0;
},
{
anchors = (
{
name = _top.mark;
},
{
name = _top.mkmk;
}
);
attr = {
color = 1;
};
layerId = "EF321139-F770-433D-B2B6-C3EFA1B16465";
shapes = (
{
attr = {
gradient = {
colors = (
(
(0,116,182,128),
0
),
(
(0,116,182,255),
1
)
);
end = (-0.3618,0.3448);
start = (1.0152,0.1787);
};
};
closed = 1;
nodes = (
(-43,98,o),
(-48,110,o),
(-51,125,c),
(-35,161,l),
(-34,169,o),
(-28,173,o),
(-21,174,cs),
(-12,174,o),
(-8,171,o),
(-4,166,c),
(7,135,o),
(20,107,o),
(31,75,cs),
(38,56,o),
(41,36,o),
(42,16,cs),
(42,2,o),
(40,-10,o),
(36,-22,cs),
(32,-37,o),
(24,-50,o),
(14,-61,cs),
(10,-66,o),
(4,-68,o),
(-3,-68,c),
(-11,-65,o),
(-15,-64,o),
(-15,-54,cs),
(-15,-51,ls),
(-15,-50,o),
(-15,-49,o),
(-14,-48,c),
(-12,-37,o),
(-11,-27,o),
(-11,-18,cs),
(-11,-11,ls),
(-13,28,o),
(-26,57,o),
(-38,86,c)
);
}
);
width = 0;
}
);
subCategory = Nonspacing;
unicode = 1648;
}
{
glyphname = "fehDotless-ar";
layers = (
{
anchors = (
{
name = bottom;
pos = (334,-171);
},
{
name = bottom.mark;
pos = (290,-171);
},
{
name = top;
pos = (483,650);
},
{
name = top.mark;
pos = (532,606);
}
);
layerId = "1467EB51-6BD4-4CFC-AEAA-3E4EB1A95CFA";
shapes = (
{
closed = 1;
nodes = (
(19,80,o),
(4,178,o),
(118,352,cs),
(123,360,o),
(127,369,o),
(138,372,c),
(118,336,o),
(94,294,o),
(90,241,cs),
(73,41,o),
(528,152,o),
(600,224,c),
(600,224,o),
(579,299,o),
(568,287,c),
(547,269,o),
(509,254,o),
(477,270,cs),
(458,279,o),
(459,313,o),
(469,332,cs),
(491,373,o),
(510,418,o),
(537,455,cs),
(570,500,o),
(616,458,o),
(641,409,cs),
(686,320,o),
(646,214,o),
(579,135,cs),
(476,13,o),
(199,-40,o),
(88,34,cs)
);
}
);
width = 679;
},
{
anchors = (
{
name = bottom;
pos = (334,-171);
},
{
name = bottom.mark;
pos = (290,-171);
},
{
name = top;
pos = (483,650);
},
{
name = top.mark;
pos = (532,606);
}
);
layerId = "EF321139-F770-433D-B2B6-C3EFA1B16465";
shapes = (
{
closed = 1;
nodes = (
(464,254,o),
(441,268,o),
(441,299,cs),
(441,302,ls),
(441,316,o),
(443,328,o),
(449,338,cs),
(466,372,ls),
(481,402,o),
(495,432,o),
(515,458,cs),
(527,474,o),
(541,483,o),
(556,483,cs),
(579,483,o),
(601,461,o),
(613,447,cs),
(637,419,o),
(655,375,o),
(655,329,cs),
(655,305,o),
(652,284,o),
(646,264,cs),
(629,212,o),
(605,169,o),
(574,134,cs),
(514,69,o),
(431,28,o),
(325,11,cs),
(290,5,o),
(254,0,o),
(214,0,cs),
(103,0,o),
(16,54,o),
(16,164,cs),
(16,198,o),
(26,226,o),
(37,252,cs),
(59,300,o),
(80,342,o),
(106,383,c),
(113,392,o),
(120,397,o),
(128,397,cs),
(133,397,ls),
(144,397,o),
(150,385,o),
(150,376,cs),
(150,371,o),
(149,366,o),
(146,360,cs),
(119,310,o),
(105,269,o),
(105,237,cs),
(105,215,o),
(112,198,o),
(125,186,c),
(158,158,o),
(203,144,o),
(269,144,cs),
(311,144,o),
(396,163,o),
(433,173,cs),
(496,189,o),
(542,208,o),
(572,231,c),
(563,259,l),
(557,276,l),
(541,264,o),
(521,254,o),
(495,254,cs)
);
}
);
width = 679;
},
{
associatedMasterId = "1467EB51-6BD4-4CFC-AEAA-3E4EB1A95CFA";
attr = {
color = 1;
};
layerId = "A4F58D3E-A022-4342-906A-D196A68FD03D";
name = "3 Jan 22, 02:40";
shapes = (
{
attr = {
gradient = {
colors = (
(
(210,46,31,128),
0
),
(
(210,46,31,255),
1
)
);
end = (0.431,0.6935);
start = (0.2079,0.0027);
};
};
closed = 1;
nodes = (
(601,217,l),
(593,254,o),
(576,296,o),
(568,287,c),
(547,269,o),
(509,254,o),
(477,270,cs),
(458,279,o),
(459,313,o),
(469,332,cs),
(491,373,o),
(510,418,o),
(537,455,cs),
(570,500,o),
(616,458,o),
(641,409,cs),
(665,362,o),
(664,304,o),
(651,263,c)
);
},
{
attr = {
gradient = {
colors = (
(
(210,46,31,128),
0
),
(
(210,46,31,255),
1
)
);
end = (0.8227,0.423);
start = (-0.0488,0.8418);
};
};
closed = 1;
nodes = (
(657,287,c),
(646,232,o),
(617,179,o),
(579,135,cs),
(476,13,o),
(199,-40,o),
(88,34,cs),
(19,80,o),
(4,178,o),
(118,352,cs),
(123,360,o),
(127,369,o),
(138,372,c),
(118,336,o),
(94,294,o),
(90,241,cs),
(73,36,o),
(609,149,o)
);
}
);
width = 679;
},
{
associatedMasterId = "EF321139-F770-433D-B2B6-C3EFA1B16465";
attr = {
color = 1;
};
layerId = "2A8C9FED-E3FD-49E0-864E-8A824D264286";
name = "3 Jan 22, 03:14";
shapes = (
{
attr = {
gradient = {
colors = (
(
(210,46,31,128),
0
),
(
(210,46,31,255),
1
)
);
end = (0.8227,0.423);
start = (-0.0488,0.8418);
};
};
closed = 1;
nodes = (
(646,264,c),
(629,212,o),
(605,169,o),
(574,134,cs),
(514,69,o),
(431,28,o),
(325,11,cs),
(290,5,o),
(254,0,o),
(214,0,cs),
(103,0,o),
(16,54,o),
(16,164,cs),
(16,198,o),
(26,226,o),
(37,252,cs),
(59,300,o),
(80,342,o),
(106,383,c),
(113,392,o),
(120,397,o),
(128,397,cs),
(133,397,ls),
(144,397,o),
(150,385,o),
(150,376,cs),
(150,371,o),
(149,366,o),
(146,360,cs),
(119,310,o),
(105,269,o),
(105,237,cs),
(105,215,o),
(112,198,o),
(126,186,c),
(158,158,o),
(203,144,o),
(260,144,cs),
(319,144,o),
(398,164,o),
(433,173,cs),
(503,191,o),
(552,212,o)
);
},
{
attr = {
gradient = {
colors = (
(
(210,46,31,128),
0
),
(
(210,46,31,255),
1
)
);
end = (0.431,0.6935);
start = (0.2079,0.0027);
};
};
closed = 1;
nodes = (
(577,216,l),
(563,259,l),
(557,276,l),
(541,264,o),
(521,254,o),
(495,254,cs),
(464,254,o),
(441,268,o),
(441,299,cs),
(441,302,ls),
(441,316,o),
(443,328,o),
(449,338,cs),
(466,372,ls),
(481,402,o),
(495,432,o),
(515,458,cs),
(527,474,o),
(541,483,o),
(556,483,cs),
(579,483,o),
(601,461,o),
(613,447,cs),
(637,419,o),
(655,375,o),
(655,329,cs),
(655,305,o),
(652,284,o),
(646,264,c)
);
}
);
width = 679;
}
);
unicode = 1697;
}
{
glyphname = "keheh-ar";
layers = (
{
anchors = (
{
name = bottom;
pos = (250,-92);
},
{
name = bottom.mark;
pos = (272,-158);
},
{
name = top;
pos = (534,914);
},
{
name = top.gaf;
pos = (694,914);
},
{
name = top.mark;
pos = (517,967);
}
);
layerId = "1467EB51-6BD4-4CFC-AEAA-3E4EB1A95CFA";
shapes = (
{
closed = 1;
nodes = (
(417,64,o),
(272,-11,o),
(142,2,cs),
(61,10,o),
(18,54,o),
(5,113,cs),
(-6,165,o),
(9,246,o),
(84,361,cs),
(89,369,o),
(100,377,o),
(111,380,c),
(65,297,o),
(35,239,o),
(82,185,cs),
(154,101,o),
(309,130,o),
(491,222,c),
(491,324,o),
(479,425,o),
(472,525,c),
(532,620,l),
(564,737,l),
(888,926,l),
(893,928,o),
(900,926,o),
(899,920,c),
(866,803,l),
(547,616,l),
(563,359,ls),
(566,317,o),
(566,303,o),
(558,275,c),
(558,275,o),
(527,196,o),
(487,148,cs)
);
}
);
width = 944;
},
{
anchors = (
{
name = bottom;
pos = (250,-92);
},
{
name = bottom.mark;
pos = (272,-158);
},
{
name = top;
pos = (524,914);
},
{
name = top.gaf;
pos = (694,914);
},
{
name = top.mark;
pos = (507,967);
}
);
layerId = "EF321139-F770-433D-B2B6-C3EFA1B16465";
shapes = (
{
closed = 1;
nodes = (
(124,394,o),
(129,381,o),
(129,373,cs),
(129,369,o),
(128,363,o),
(125,357,cs),
(108,325,o),
(92,293,o),
(79,259,cs),
(77,253,o),
(76,247,o),
(76,241,cs),
(76,222,o),
(89,202,o),
(115,181,cs),
(136,164,o),
(165,155,o),
(199,155,cs),
(279,155,o),
(337,174,o),
(393,196,cs),
(425,209,o),
(452,221,o),
(472,231,c),
(470,254,o),
(456,428,o),
(450,520,c),
(511,620,l),
(540,725,l),
(541,727,o),
(544,731,o),
(545,732,c),
(859,916,ls),
(863,918,o),
(867,918,o),
(871,918,cs),
(881,918,o),
(887,913,o),
(887,902,cs),
(887,899,ls),
(887,898,o),
(887,896,o),
(886,895,c),
(853,777,l),
(798,744,o),
(738,709,o),
(682,677,cs),
(548,599,l),
(567,346,ls),
(567,344,o),
(567,343,o),
(567,341,cs),
(567,334,ls),
(567,270,o),
(534,217,o),
(508,175,cs),
(483,138,o),
(446,105,o),
(398,74,cs),
(350,44,o),
(301,22,o),
(250,10,cs),
(224,4,o),
(199,1,o),
(174,1,cs),
(150,1,o),
(126,4,o),
(104,10,cs),
(28,28,o),
(-6,107,o),
(-6,162,cs),
(-6,198,o),
(4,225,o),
(17,252,cs),
(38,298,o),
(60,341,o),
(85,380,cs),
(92,389,o),
(99,394,o),
(107,394,cs),
(112,394,ls)
);
}
);
width = 944;
},
{
associatedMasterId = "1467EB51-6BD4-4CFC-AEAA-3E4EB1A95CFA";
attr = {
color = 1;
};
layerId = "47E49E88-0E73-42A6-A8EF-3F351F828843";
name = "9 Jan 22, 21:18";
shapes = (
{
attr = {
gradient = {
colors = (
(
(210,46,31,128),
0
),
(
(210,46,31,255),
1
)
);
end = (0.8227,0.423);
start = (-0.0488,0.8418);
};
};
closed = 1;
nodes = (
(531,616,l),
(564,737,l),
(888,926,l),
(893,928,o),
(900,926,o),
(899,920,c),
(866,803,l),
(544,614,l)
);
},
{
attr = {
gradient = {
colors = (
(
(210,46,31,128),
0
),
(
(210,46,31,255),
1
)
);
end = (0.5232,0.5772);
start = (0.0752,0.5377);
};
};
closed = 1;
nodes = (
(563,359,ls),
(566,317,o),
(566,303,o),
(558,275,c),
(558,275,o),
(527,196,o),
(487,148,cs),
(417,64,o),
(272,-11,o),
(142,2,cs),
(61,10,o),
(18,54,o),
(5,113,cs),
(-6,165,o),
(9,246,o),
(84,361,cs),
(89,369,o),
(100,377,o),
(111,380,c),
(65,297,o),
(35,239,o),
(82,185,cs),
(154,101,o),
(309,130,o),
(491,222,c),
(491,324,o),
(479,425,o),
(472,525,c),
(545,641,l)
);
}
);
width = 944;
},
{
associatedMasterId = "EF321139-F770-433D-B2B6-C3EFA1B16465";
attr = {
color = 1;
};
layerId = "2B387538-622F-4BB0-960C-CEB86BF76FE7";
name = "10 Jan 22, 20:58";
shapes = (
{
attr = {
gradient = {
colors = (
(
(210,46,31,128),
0
),
(
(210,46,31,255),
1
)
);
end = (0.8227,0.423);
start = (-0.0488,0.8418);
};
};
closed = 1;
nodes = (
(508,610,l),
(540,725,l),
(541,727,o),
(544,731,o),
(545,732,c),
(859,916,ls),
(863,918,o),
(867,918,o),
(871,918,cs),
(881,918,o),
(887,913,o),
(887,902,cs),
(887,899,ls),
(887,898,o),
(887,896,o),
(886,895,c),
(853,777,l),
(798,744,o),
(738,709,o),
(682,677,cs),
(539,594,l)
);
},
{
attr = {
gradient = {
colors = (
(
(210,46,31,128),
0
),
(
(210,46,31,255),
1
)
);
end = (0.5232,0.5772);
start = (0.0752,0.5377);
};
};
closed = 1;
nodes = (
(567,346,ls),
(567,344,o),
(567,343,o),
(567,341,cs),
(567,334,ls),
(567,270,o),
(534,217,o),
(508,175,cs),
(483,138,o),
(446,105,o),
(398,74,cs),
(350,44,o),
(301,22,o),
(250,10,cs),
(224,4,o),
(199,1,o),
(174,1,cs),
(150,1,o),
(126,4,o),
(104,10,cs),
(28,28,o),
(-6,107,o),
(-6,162,cs),
(-6,198,o),
(4,225,o),
(17,252,cs),
(38,298,o),
(60,341,o),
(85,380,cs),
(92,389,o),
(99,394,o),
(107,394,cs),
(112,394,ls),
(124,394,o),
(129,381,o),
(129,373,cs),
(129,369,o),
(128,363,o),
(125,357,cs),
(108,325,o),
(92,293,o),
(79,259,cs),
(77,253,o),
(76,247,o),
(76,241,cs),
(76,222,o),
(89,202,o),
(115,181,cs),
(136,164,o),
(165,155,o),
(199,155,cs),
(279,155,o),
(337,174,o),
(393,196,cs),
(425,209,o),
(452,221,o),
(472,231,c),
(471,230,o),
(461,367,o),
(450,520,c),
(543,669,l)
);
}
);
width = 944;
}
);
unicode = 1705;
}
{
glyphname = "noonghunna-ar";
layers = (
{
anchors = (
{
name = bottom;
pos = (158,-105);
},
{
name = bottom.mark;
pos = (205,-166);
},
{
name = top;
pos = (224,576);
},
{
name = top.mark;
pos = (259,635);
}
);
layerId = "1467EB51-6BD4-4CFC-AEAA-3E4EB1A95CFA";
shapes = (
{
closed = 1;
nodes = (
(203,-86,o),
(-169,-57,o),
(87,409,cs),
(95,425,o),
(108,421,o),
(99,397,cs),
(68,328,o),
(-20,194,o),
(87,148,c),
(205,127,o),
(304,174,o),
(368,233,c),
(370,289,o),
(357,334,o),
(343,378,c),
(397,503,l),
(456,379,o),
(425,234,o),
(349,125,cs)
);
}
);
width = 463;
},
{
anchors = (
{
name = bottom;
pos = (158,-105);
},
{
name = bottom.mark;
pos = (205,-166);
},
{
name = top;
pos = (224,576);
},
{
name = top.mark;
pos = (259,635);
}
);
layerId = "EF321139-F770-433D-B2B6-C3EFA1B16465";
shapes = (
{
closed = 1;
nodes = (
(348,298,o),
(334,337,o),
(322,378,c),
(377,503,ls),
(381,513,o),
(394,513,o),
(398,503,cs),
(419,458,o),
(430,413,o),
(430,366,cs),
(430,306,o),
(415,258,o),
(397,213,cs),
(385,183,o),
(371,154,o),
(352,127,cs),
(315,74,o),
(267,37,o),
(211,16,cs),
(182,6,o),
(155,0,o),
(130,0,cs),
(34,0,o),
(-9,83,o),
(-9,153,cs),
(-9,161,ls),
(-9,192,o),
(-1,229,o),
(14,272,cs),
(29,315,o),
(50,362,o),
(78,413,cs),
(84,423,o),
(90,428,o),
(97,428,cs),
(108,428,o),
(114,420,o),
(114,410,cs),
(114,391,o),
(104,379,o),
(97,364,cs),
(82,334,o),
(63,302,o),
(55,265,cs),
(52,254,o),
(51,241,o),
(51,230,cs),
(51,195,o),
(62,180,o),
(92,167,c),
(113,163,o),
(131,162,o),
(148,162,cs),
(208,162,o),
(260,183,o),
(299,206,cs),
(317,216,o),
(333,229,o),
(348,242,c),
(348,245,ls)
);
}
);
width = 463;
},
{
associatedMasterId = "1467EB51-6BD4-4CFC-AEAA-3E4EB1A95CFA";
attr = {
color = 1;
};
layerId = "98DD1DF8-3F12-4314-9175-BB2AA98718F7";
name = "10 Jan 22, 21:30";
shapes = (
{
attr = {
gradient = {
colors = (
(
(210,46,31,128),
0
),
(
(210,46,31,255),
1
)
);
end = (0.7487,0.2931);
start = (0.2079,0.0027);
};
};
closed = 1;
nodes = (
(367,214,l),
(373,279,o),
(359,329,o),
(343,378,c),
(397,503,l),
(430,433,o),
(435,357,o),
(419,284,c)
);
},
{
attr = {
gradient = {
colors = (
(
(210,46,31,128),
0
),
(
(210,46,31,255),
1
)
);
end = (0.5169,0.3742);
start = (0.1636,0.5296);
};
};
closed = 1;
nodes = (
(419,284,c),
(407,228,o),
(382,173,o),
(349,125,cs),
(203,-86,o),
(-169,-57,o),
(87,409,cs),
(95,425,o),
(108,421,o),
(99,397,cs),
(68,328,o),
(-20,194,o),
(87,148,c),
(211,126,o),
(327,176,o)
);
}
);
width = 463;
},
{
associatedMasterId = "EF321139-F770-433D-B2B6-C3EFA1B16465";
attr = {
color = 1;
};
layerId = "A7D7EC88-D2A4-4A55-A148-B44B6DEFF84F";
name = "10 Jan 22, 21:31";
shapes = (
{
attr = {
gradient = {
colors = (
(
(210,46,31,128),
0
),
(
(210,46,31,255),
1
)
);
end = (0.5169,0.3742);
start = (0.1636,0.5296);
};
};
closed = 1;
nodes = (
(424,300,c),
(418,269,o),
(408,240,o),
(397,213,cs),
(385,183,o),
(371,154,o),
(352,127,cs),
(315,74,o),
(267,37,o),
(211,16,cs),
(182,6,o),
(155,0,o),
(130,0,cs),
(29,0,o),
(-9,88,o),
(-9,153,cs),
(-9,161,ls),
(-9,192,o),
(-1,229,o),
(14,272,cs),
(29,315,o),
(50,362,o),
(78,413,cs),
(84,423,o),
(90,428,o),
(97,428,cs),
(108,428,o),
(114,420,o),
(114,410,cs),
(114,391,o),
(104,379,o),
(97,364,cs),
(82,334,o),
(63,302,o),
(55,265,cs),
(52,254,o),
(51,241,o),
(51,230,cs),
(51,195,o),
(62,180,o),
(92,167,c),
(113,163,o),
(131,162,o),
(148,162,cs),
(208,162,o),
(260,183,o),
(299,206,cs),
(322,219,o),
(341,236,o)
);
},
{
attr = {
gradient = {
colors = (
(
(210,46,31,128),
0
),
(
(210,46,31,255),
1
)
);
end = (0.7487,0.2931);
start = (0.2079,0.0027);
};
};
closed = 1;
nodes = (
(348,226,l),
(348,245,ls),
(348,298,o),
(334,337,o),
(322,378,c),
(377,503,ls),
(381,513,o),
(394,513,o),
(398,503,cs),
(419,458,o),
(430,413,o),
(430,366,cs),
(430,342,o),
(428,321,o),
(424,300,c)
);
}
);
width = 463;
}
);
unicode = 1722;
}
{
glyphname = "hehDoachashmee-ar";
layers = (
{
anchors = (
{
name = bottom;
pos = (365,-105);
},
{
name = bottom.mark;
pos = (386,-181);
},
{
name = top;
pos = (461,751);
},
{
name = top.mark;
pos = (541,751);
}
);
layerId = "1467EB51-6BD4-4CFC-AEAA-3E4EB1A95CFA";
shapes = (
{
closed = 1;
nodes = (
(524,350,o),
(544,294,o),
(544,266,cs),
(544,253,o),
(541,241,o),
(535,229,cs),
(521,200,o),
(505,169,o),
(487,134,c),
(537,143,o),
(578,159,o),
(611,180,c),
(612,191,o),
(612,202,o),
(612,213,cs),
(612,293,o),
(599,362,o),
(571,420,cs),
(565,432,o),
(548,451,o),
(528,451,cs),
(522,451,o),
(516,449,o),
(509,446,cs),
(487,435,o),
(470,420,o),
(456,400,cs),
(442,380,o),
(428,362,o),
(413,345,cs),
(410,342,o),
(404,340,o),
(397,340,cs),
(390,340,o),
(388,341,o),
(389,346,c),
(404,389,o),
(433,421,o),
(458,455,cs),
(487,493,o),
(537,546,o),
(585,562,cs),
(593,565,o),
(601,566,o),
(609,566,cs),
(622,566,o),
(634,562,o),
(646,554,cs),
(664,542,o),
(678,513,o),
(685,468,cs),
(690,437,o),
(694,408,o),
(699,380,cs),
(702,363,o),
(704,346,o),
(704,329,cs),
(704,318,o),
(703,308,o),
(702,297,cs),
(698,259,o),
(681,217,o),
(651,171,cs),
(585,70,o),
(504,4,o),
(353,4,cs),
(336,4,ls),
(300,4,o),
(271,2,o),
(250,0,c),
(247,0,o),
(244,0,o),
(241,0,cs),
(218,0,o),
(186,8,o),
(146,26,cs),
(8,88,ls),
(2,91,o),
(-1,95,o),
(-1,97,cs),
(-1,99,o),
(0,101,o),
(4,102,c),
(321,113,l),
(354,194,o),
(394,262,o),
(441,316,cs),
(461,339,o),
(478,350,o),
(493,350,cs)
);
},
{
closed = 1;
nodes = (
(378,155,o),
(390,141,o),
(396,141,c),
(428,152,o),
(441,159,o),
(464,175,c),
(454,205,o),
(442,219,o),
(429,219,cs),
(427,219,o),
(425,219,o),
(422,218,cs),
(405,212,o),
(391,196,o),
(380,172,cs),
(379,169,o),
(378,167,o),
(378,164,cs)
);
}
);
width = 741;
},
{
anchors = (
{
name = bottom;
pos = (365,-105);
},
{
name = bottom.mark;
pos = (386,-181);
},
{
name = top;
pos = (461,751);
},
{
name = top.mark;
pos = (541,751);
}
);
layerId = "EF321139-F770-433D-B2B6-C3EFA1B16465";
shapes = (
{
closed = 1;
nodes = (
(339,204,o),
(378,271,o),
(423,325,cs),
(444,350,o),
(464,362,o),
(482,362,cs),
(499,362,o),
(513,352,o),
(524,332,c),
(537,312,o),
(543,290,o),
(543,269,cs),
(543,242,o),
(527,215,o),
(518,195,cs),
(512,182,o),
(506,173,o),
(499,159,c),
(532,167,o),
(560,178,o),
(585,192,c),
(585,197,o),
(586,201,o),
(586,205,cs),
(586,217,ls),
(586,293,o),
(573,359,o),
(547,413,cs),
(543,420,o),
(537,426,o),
(528,432,cs),
(523,435,o),
(520,436,o),
(517,436,cs),
(512,436,o),
(507,434,o),
(503,432,cs),
(483,422,o),
(467,409,o),
(456,392,cs),
(443,372,o),
(429,354,o),
(414,337,c),
(409,332,o),
(400,329,o),
(389,329,cs),
(376,329,o),
(369,334,o),
(369,344,cs),
(369,347,o),
(370,350,o),
(371,352,cs),
(382,384,o),
(403,411,o),
(422,436,cs),
(439,458,ls),
(463,492,o),
(498,526,o),
(533,549,cs),
(552,561,o),
(568,570,o),
(595,570,cs),
(613,570,o),
(626,565,o),
(637,557,cs),
(658,543,o),
(673,513,o),
(680,466,cs),
(693,381,ls),
(696,365,o),
(698,348,o),
(698,330,cs),
(698,264,o),
(674,215,o),
(645,171,cs),
(620,134,o),
(588,94,o),
(556,68,cs),
(504,28,o),
(436,4,o),
(347,4,cs),
(331,4,ls),
(299,4,o),
(271,3,o),
(245,0,cs),
(239,0,ls),
(195,0,o),
(118,36,o),
(75,56,cs),
(52,67,o),
(29,77,o),
(8,86,cs),
(-2,91,o),
(-7,98,o),
(-7,105,cs),
(-7,115,o),
(-1,119,o),
(7,122,c),
(309,133,l)
);
},
{
closed = 1;
nodes = (
(410,167,o),
(427,175,o),
(441,185,c),
(435,203,o),
(427,211,o),
(420,211,cs),
(401,205,o),
(383,172,o),
(383,170,cs),
(383,167,o),
(387,163,o),
(389,161,c)
);
}
);
width = 741;
},
{
associatedMasterId = "1467EB51-6BD4-4CFC-AEAA-3E4EB1A95CFA";
attr = {
color = 1;
};
layerId = "C4F7B338-1DB3-4D9B-964B-19AC70B1CF34";
name = "11 Jan 22, 17:31";
shapes = (
{
attr = {
gradient = {
colors = (
(
(210,46,31,128),
0
),
(
(210,46,31,255),
1
)
);
end = (0.41,0.4338);
start = (0.8056,0.3594);
};
};
closed = 1;
nodes = (
(359,195,l),
(384,241,o),
(411,281,o),
(441,316,cs),
(461,339,o),
(478,350,o),
(493,350,cs),
(524,350,o),
(544,294,o),
(544,266,cs),
(544,253,o),
(541,241,o),
(535,229,c),
(472,147,l),
(460,196,o),
(445,219,o),
(429,219,cs),
(427,219,o),
(425,219,o),
(422,218,cs),
(403,211,o),
(388,192,o),
(376,163,c)
);
},
{
attr = {
gradient = {
colors = (
(
(210,46,31,128),
0
),
(
(210,46,31,255),
1
)
);
end = (0.4017,0.1644);
start = (0.0258,0.1606);
};
};
closed = 1;
nodes = (
(382,185,l),
(382,172,o),
(378,170,o),
(378,164,cs),
(378,155,o),
(390,141,o),
(396,141,c),
(434,154,o),
(446,162,o),
(480,186,c),
(535,229,l),
(521,200,o),
(505,169,o),
(487,134,c),
(537,143,o),
(578,159,o),
(611,180,c),
(612,191,o),
(612,202,o),
(612,213,cs),
(612,293,o),
(599,362,o),
(571,420,cs),
(565,432,o),
(548,451,o),
(528,451,cs),
(522,451,o),
(516,449,o),
(509,446,cs),
(487,435,o),
(470,420,o),
(456,400,cs),
(442,380,o),
(428,362,o),
(413,345,cs),
(410,342,o),
(404,340,o),
(397,340,cs),
(390,340,o),
(388,341,o),
(389,346,c),
(404,389,o),
(433,421,o),
(458,455,cs),
(487,493,o),
(537,546,o),
(585,562,cs),
(593,565,o),
(601,566,o),
(609,566,cs),
(622,566,o),
(634,562,o),
(646,554,cs),
(664,542,o),
(678,513,o),
(685,468,cs),
(690,437,o),
(694,408,o),
(699,380,cs),
(702,363,o),
(704,346,o),
(704,329,cs),
(704,318,o),
(703,308,o),
(702,297,cs),
(698,259,o),
(681,217,o),
(651,171,cs),
(585,70,o),
(504,4,o),
(353,4,cs),
(336,4,ls),
(300,4,o),
(271,2,o),
(250,0,c),
(247,0,o),
(244,0,o),
(241,0,cs),
(218,0,o),
(186,8,o),
(146,26,cs),
(8,88,ls),
(2,91,o),
(-1,95,o),
(-1,97,cs),
(-1,99,o),
(0,101,o),
(4,102,c),
(321,113,l),
(333,142,o),
(346,170,o),
(359,195,c)
);
}
);
width = 741;
},
{
associatedMasterId = "EF321139-F770-433D-B2B6-C3EFA1B16465";
attr = {
color = 1;
};
layerId = "86B0ECEE-0F60-4165-B17D-641E479DBCB5";
name = "11 Jan 22, 20:15";
shapes = (
{
attr = {
gradient = {
colors = (
(
(210,46,31,128),
0
),
(
(210,46,31,255),
1
)
);
end = (0.41,0.4338);
start = (0.8056,0.3594);
};
};
closed = 1;
nodes = (
(337,192,l),
(362,241,o),
(391,286,o),
(423,325,cs),
(444,350,o),
(464,362,o),
(482,362,cs),
(499,362,o),
(513,352,o),
(524,332,c),
(537,312,o),
(543,290,o),
(543,269,cs),
(543,254,o),
(538,240,o),
(533,227,c),
(448,154,l),
(442,194,o),
(429,213,o),
(420,211,cs),
(402,207,o),
(387,177,o),
(385,174,c)
);
},
{
attr = {
gradient = {
colors = (
(
(210,46,31,128),
0
),
(
(210,46,31,255),
1
)
);
end = (0.4017,0.1644);
start = (0.0258,0.1606);
};
};
closed = 1;
nodes = (
(391,184,l),
(381,171,o),
(381,161,o),
(389,161,c),
(416,169,o),
(436,180,o),
(541,259,c),
(539,235,o),
(526,212,o),
(518,195,cs),
(512,182,o),
(506,173,o),
(499,159,c),
(532,167,o),
(560,178,o),
(585,192,c),
(585,197,o),
(586,201,o),
(586,205,cs),
(586,217,ls),
(586,293,o),
(573,359,o),
(547,413,cs),
(543,420,o),
(537,426,o),
(528,432,cs),
(523,435,o),
(520,436,o),
(517,436,cs),
(512,436,o),
(507,434,o),
(503,432,cs),
(483,422,o),
(467,409,o),
(456,392,cs),
(443,372,o),
(429,354,o),
(414,337,c),
(409,332,o),
(400,329,o),
(389,329,cs),
(376,329,o),
(369,334,o),
(369,344,cs),
(369,347,o),
(370,350,o),
(371,352,cs),
(382,384,o),
(403,411,o),
(422,436,cs),
(439,458,ls),
(464,491,o),
(498,526,o),
(533,549,cs),
(552,561,o),
(568,570,o),
(595,570,cs),
(613,570,o),
(626,565,o),
(637,557,cs),
(658,543,o),
(673,513,o),
(680,466,cs),
(693,381,ls),
(695,365,o),
(698,348,o),
(698,330,cs),
(698,264,o),
(674,215,o),
(645,171,cs),
(620,134,o),
(588,94,o),
(556,68,cs),
(504,28,o),
(436,4,o),
(347,4,cs),
(331,4,ls),
(299,4,o),
(271,0,o),
(245,0,cs),
(239,0,ls),
(195,0,o),
(118,36,o),
(75,56,cs),
(52,67,o),
(29,77,o),
(8,86,cs),
(-2,91,o),
(-7,98,o),
(-7,105,cs),
(-7,115,o),
(-1,119,o),
(7,122,c),
(309,133,l),
(317,153,o),
(327,173,o),
(337,192,c)
);
}
);
width = 741;
}
);
unicode = 1726;
}
{
glyphname = "yehbarree-ar";
layers = (
{
anchors = (
{
name = bottom;
pos = (483,-119);
},
{
name = bottom.mark;
pos = (549,-185);
},
{
name = top;
pos = (281,659);
},
{
name = top.mark;
pos = (360,712);
}
);
layerId = "1467EB51-6BD4-4CFC-AEAA-3E4EB1A95CFA";
shapes = (
{
closed = 1;
nodes = (
(355,419,o),
(357,359,o),
(340,318,cs),
(338,314,o),
(335,310,o),
(329,306,cs),
(323,302,o),
(319,304,o),
(319,310,cs),
(317,339,o),
(305,368,o),
(276,372,c),
(244,364,o),
(227,341,o),
(213,315,cs),
(177,245,o),
(131,195,o),
(75,165,cs),
(68,161,o),
(65,157,o),
(65,153,c),
(115,136,o),
(168,130,o),
(223,133,cs),
(407,144,o),
(536,201,o),
(661,272,c),
(650,227,o),
(619,202,o),
(590,176,cs),
(493,90,o),
(364,31,o),
(202,6,cs),
(147,-3,o),
(85,-3,o),
(41,15,cs),
(19,24,o),
(7,40,o),
(4,63,cs),
(-1,100,o),
(10,164,o),
(20,188,cs),
(38,236,o),
(75,270,o),
(116,294,cs),
(147,312,o),
(173,336,o),
(194,366,cs),
(215,396,o),
(234,427,o),
(253,460,cs),
(263,477,o),
(277,490,o),
(296,498,cs),
(315,506,o),
(330,495,o),
(344,463,c)
);
}
);
width = 699;
},
{
anchors = (
{
name = bottom;
pos = (483,-119);
},
{
name = bottom.mark;
pos = (549,-185);
},
{
name = top;
pos = (281,659);
},
{
name = top.mark;
pos = (360,712);
}
);
layerId = "EF321139-F770-433D-B2B6-C3EFA1B16465";
shapes = (
{
closed = 1;
nodes = (
(125,158,o),
(158,153,o),
(195,153,cs),
(255,153,o),
(310,161,o),
(358,173,cs),
(463,198,o),
(553,239,o),
(637,286,cs),
(648,292,o),
(657,282,o),
(655,272,cs),
(645,226,o),
(613,200,o),
(583,173,cs),
(493,94,o),
(379,41,o),
(239,11,cs),
(203,5,ls),
(149,-4,o),
(83,-2,o),
(41,15,cs),
(7,30,o),
(-4,57,o),
(-4,101,cs),
(-4,207,o),
(44,269,o),
(111,307,cs),
(140,324,o),
(164,346,o),
(182,373,cs),
(202,402,o),
(221,432,o),
(239,463,cs),
(250,482,o),
(265,495,o),
(286,504,cs),
(312,516,o),
(333,502,o),
(350,464,c),
(355,441,o),
(358,417,o),
(358,391,cs),
(359,365,o),
(355,339,o),
(346,315,cs),
(344,308,o),
(338,303,o),
(329,297,cs),
(310,286,o),
(301,290,o),
(301,311,cs),
(299,332,o),
(292,353,o),
(272,358,c),
(247,351,o),
(234,331,o),
(223,311,c),
(192,252,o),
(148,200,o),
(94,166,c)
);
}
);
width = 699;
},
{
associatedMasterId = "1467EB51-6BD4-4CFC-AEAA-3E4EB1A95CFA";
attr = {
color = 1;
};
layerId = "A5D16961-8FEB-48DE-9DBA-845D4A016120";
name = "11 Jan 22, 20:29";
shapes = (
{
attr = {
gradient = {
colors = (
(
(210,46,31,255),
0
),
(
(210,46,31,128),
1
)
);
end = (0.9957,0.9893);
start = (0.1237,0.5416);
};
};
closed = 1;
nodes = (
(56,138,o),
(164,130,o),
(223,133,cs),
(407,144,o),
(536,201,o),
(661,272,c),
(650,227,o),
(619,202,o),
(590,176,cs),
(493,90,o),
(364,31,o),
(202,6,cs),
(147,-3,o),
(85,-3,o),
(41,15,cs),
(19,24,o),
(7,40,o),
(4,63,cs),
(-1,98,o),
(9,156,o),
(18,183,c)
);
},
{
attr = {
gradient = {
colors = (
(
(210,46,31,128),
0
),
(
(210,46,31,255),
1
)
);
end = (0.6361,0.3741);
start = (-0.0072,0.1894);
};
};
closed = 1;
nodes = (
(16,177,l),
(17,182,o),
(19,185,o),
(20,188,cs),
(38,236,o),
(75,270,o),
(116,294,cs),
(147,312,o),
(173,336,o),
(194,366,cs),
(215,396,o),
(234,427,o),
(253,460,cs),
(263,477,o),
(277,490,o),
(296,498,cs),
(315,506,o),
(330,495,o),
(344,463,c),
(355,419,o),
(357,359,o),
(340,318,cs),
(338,314,o),
(335,310,o),
(329,306,cs),
(323,302,o),
(319,304,o),
(319,310,cs),
(317,339,o),
(305,368,o),
(276,372,c),
(244,364,o),
(227,341,o),
(213,315,cs),
(177,245,o),
(131,195,o),
(75,165,cs),
(62,158,o),
(63,150,o),
(71,143,c)
);
}
);
width = 699;
},
{
associatedMasterId = "EF321139-F770-433D-B2B6-C3EFA1B16465";
attr = {
color = 1;
};
layerId = "B5109F9B-D9E4-4D7A-9964-12FE1B75E7A1";
name = "11 Jan 22, 20:30";
shapes = (
{
attr = {
gradient = {
colors = (
(
(210,46,31,128),
0
),
(
(210,46,31,255),
1
)
);
end = (0.6361,0.3741);
start = (-0.0072,0.1894);
};
};
closed = 1;
nodes = (
(10,192,l),
(30,245,o),
(66,281,o),
(111,307,cs),
(140,324,o),
(164,346,o),
(182,373,cs),
(202,402,o),
(221,432,o),
(239,463,cs),
(250,482,o),
(265,495,o),
(286,504,cs),
(312,516,o),
(333,502,o),
(350,464,c),
(355,441,o),
(358,417,o),
(358,391,cs),
(359,365,o),
(355,339,o),
(346,315,cs),
(344,308,o),
(338,303,o),
(329,297,cs),
(310,286,o),
(301,290,o),
(301,311,cs),
(299,332,o),
(292,353,o),
(272,358,c),
(247,351,o),
(234,331,o),
(223,311,c),
(189,247,o),
(141,192,o),
(81,158,c)
);
},
{
attr = {
gradient = {
colors = (
(
(210,46,31,255),
0
),
(
(210,46,31,128),
1
)
);
end = (0.9957,0.9893);
start = (0.1237,0.5416);
};
};
closed = 1;
nodes = (
(80,170,ls),
(115,160,o),
(152,153,o),
(195,153,cs),
(255,153,o),
(310,161,o),
(358,173,cs),
(463,198,o),
(553,239,o),
(637,286,cs),
(648,292,o),
(657,282,o),
(655,272,cs),
(645,226,o),
(613,200,o),
(583,173,cs),
(493,94,o),
(379,41,o),
(239,11,cs),
(203,5,ls),
(149,-4,o),
(83,-2,o),
(41,15,cs),
(7,30,o),
(-4,57,o),
(-4,101,cs),
(-4,136,o),
(1,166,o),
(10,192,c)
);
}
);
width = 699;
}
);
unicode = 1746;
}
{
glyphname = "fullstop-ar";
layers = (
{
attr = {
color = 1;
};
layerId = "1467EB51-6BD4-4CFC-AEAA-3E4EB1A95CFA";
shapes = (
{
attr = {
gradient = {
colors = (
(
(210,46,31,128),
0
),
(
(210,46,31,255),
1
)
);
end = (0.7584,0.2265);
start = (0.2305,0.766);
};
};
closed = 1;
nodes = (
(232,119,l),
(187,20,l),
(22,0,l),
(62,99,l)
);
}
);
width = 253;
},
{
attr = {
color = 1;
};
layerId = "EF321139-F770-433D-B2B6-C3EFA1B16465";
shapes = (
{
attr = {
gradient = {
colors = (
(
(210,46,31,128),
0
),
(
(210,46,31,255),
1
)
);
end = (0.7584,0.2265);
start = (0.2305,0.766);
};
};
closed = 1;
nodes = (
(241,139,l),
(186,20,l),
(22,0,l),
(71,119,l)
);
}
);
width = 263;
}
);
unicode = 1748;
}
{
glyphname = "two-persian";
layers = (
{
layerId = "1467EB51-6BD4-4CFC-AEAA-3E4EB1A95CFA";
shapes = (
{
closed = 1;
nodes = (
(242,316,o),
(260,256,o),
(265,190,cs),
(270,124,o),
(254,64,o),
(219,8,c),
(219,8,o),
(207,-1,o),
(208,2,c),
(215,73,o),
(206,134,o),
(182,186,cs),
(145,265,o),
(109,328,o),
(63,393,cs),
(48,414,o),
(35,439,o),
(24,465,c),
(39,507,o),
(55,550,o),
(74,589,c),
(107,521,o),
(152,483,o),
(210,476,cs),
(268,469,o),
(317,499,o),
(357,567,c),
(357,569,o),
(359,572,o),
(362,578,cs),
(365,584,o),
(367,585,o),
(367,581,cs),
(372,525,o),
(361,473,o),
(335,422,cs),
(309,371,o),
(267,354,o),
(210,372,c)
);
}
);
width = 392;
},
{
layerId = "EF321139-F770-433D-B2B6-C3EFA1B16465";
shapes = (
{
closed = 1;
nodes = (
(253,306,o),
(268,251,o),
(273,188,cs),
(278,125,o),
(261,64,o),
(223,4,c),
(219,-1,o),
(216,-5,o),
(213,-6,cs),
(210,-7,o),
(209,-8,o),
(209,-8,c),
(203,-12,o),
(200,-11,o),
(201,-4,cs),
(208,65,o),
(199,126,o),
(175,177,cs),
(139,254,o),
(99,323,o),
(57,383,cs),
(42,404,o),
(28,430,o),
(16,458,c),
(36,515,o),
(53,558,o),
(68,589,cs),
(77,606,l),
(81,599,ls),
(114,532,o),
(157,494,o),
(213,487,cs),
(269,480,o),
(315,506,o),
(351,566,c),
(354,575,o),
(364,597,o),
(371,594,cs),
(373,593,o),
(374,592,o),
(374,589,cs),
(379,531,o),
(369,476,o),
(342,424,cs),
(315,372,o),
(278,349,o),
(230,355,c)
);
}
);
width = 392;
},
{
associatedMasterId = "1467EB51-6BD4-4CFC-AEAA-3E4EB1A95CFA";
attr = {
color = 1;
};
layerId = "C338349E-0E3A-4D13-8E21-9527085B6764";
name = "11 Jan 22, 23:04";
shapes = (
{
attr = {
gradient = {
colors = (
(
(210,46,31,128),
0
),
(
(210,46,31,255),
1
)
);
end = (0.6082,0.3178);
start = (-0.0252,0.5163);
};
};
closed = 1;
nodes = (
(101,544,l),
(130,504,o),
(166,482,o),
(210,476,cs),
(284,467,o),
(332,518,o),
(362,578,cs),
(365,584,o),
(367,585,o),
(367,581,cs),
(372,525,o),
(361,473,o),
(335,422,cs),
(306,366,o),
(258,351,o),
(191,379,c)
);
},
{
attr = {
gradient = {
colors = (
(
(210,46,31,128),
0
),
(
(210,46,31,255),
1
)
);
end = (0.5239,0.618);
start = (0.8312,0.0709);
};
};
closed = 1;
nodes = (
(167,439,o),
(255,338,o),
(265,190,cs),
(269,124,o),
(254,64,o),
(219,8,c),
(219,8,o),
(207,-1,o),
(208,2,c),
(215,73,o),
(206,134,o),
(182,186,cs),
(145,265,o),
(109,328,o),
(63,393,cs),
(48,414,o),
(35,439,o),
(24,465,c),
(38,505,o),
(54,548,o),
(73,587,c)
);
}
);
width = 392;
},
{
associatedMasterId = "EF321139-F770-433D-B2B6-C3EFA1B16465";
attr = {
color = 1;
};
layerId = "A1B36BA7-6EEF-4B6E-8258-FEC819F204E9";
name = "11 Jan 22, 23:06";
shapes = (
{
attr = {
gradient = {
colors = (
(
(210,46,31,128),
0
),
(
(210,46,31,255),
1
)
);
end = (0.5239,0.618);
start = (0.8312,0.0709);
};
};
closed = 1;
nodes = (
(250,316,o),
(253,338,o),
(273,188,cs),
(281,125,o),
(261,64,o),
(223,4,c),
(219,-1,o),
(216,-5,o),
(213,-6,cs),
(210,-7,o),
(209,-8,o),
(209,-8,c),
(203,-12,o),
(200,-11,o),
(201,-4,cs),
(208,65,o),
(199,126,o),
(175,177,cs),
(139,254,o),
(99,323,o),
(57,383,cs),
(42,404,o),
(28,430,o),
(16,458,c),
(36,515,o),
(52,559,o),
(68,589,cs),
(77,606,l),
(89,585,l)
);
},
{
attr = {
gradient = {
colors = (
(
(210,46,31,128),
0
),
(
(210,46,31,255),
1
)
);
end = (0.6082,0.3178);
start = (-0.0252,0.5163);
};
};
closed = 1;
nodes = (
(131,518,o),
(168,493,o),
(213,487,cs),
(269,480,o),
(315,506,o),
(351,566,c),
(354,575,o),
(364,597,o),
(371,594,cs),
(373,593,o),
(374,592,o),
(374,589,cs),
(379,531,o),
(369,476,o),
(342,424,cs),
(312,366,o),
(269,344,o),
(213,358,c),
(102,562,l)
);
}
);
width = 392;
}
);
unicode = 1778;
}
{
glyphname = "four-persian";
layers = (
{
layerId = "1467EB51-6BD4-4CFC-AEAA-3E4EB1A95CFA";
shapes = (
{
closed = 1;
nodes = (
(379,422,o),
(339,337,o),
(232,355,cs),
(218,357,o),
(208,353,o),
(210,350,cs),
(274,245,o),
(290,110,o),
(219,4,c),
(217,0,o),
(209,-4,o),
(209,-2,cs),
(223,133,o),
(159,227,o),
(107,307,cs),
(80,349,o),
(46,388,o),
(25,438,c),
(40,477,o),
(55,518,o),
(74,556,c),
(108,490,o),
(104,473,o),
(177,459,c),
(174,521,o),
(266,599,o),
(301,601,cs),
(369,605,o),
(351,526,o),
(312,544,cs),
(248,574,o),
(220,519,o),
(228,504,cs),
(270,428,o),
(373,504,o),
(380,538,cs),
(381,542,o),
(391,559,o),
(390,551,cs)
);
}
);
width = 414;
},
{
layerId = "EF321139-F770-433D-B2B6-C3EFA1B16465";
shapes = (
{
closed = 1;
nodes = (
(391,562,o),
(391,559,o),
(391,549,cs),
(391,547,ls),
(385,483,o),
(371,432,o),
(348,394,cs),
(329,364,o),
(301,343,o),
(255,343,cs),
(244,343,o),
(235,345,o),
(225,346,cs),
(223,346,l),
(251,296,o),
(272,237,o),
(272,163,cs),
(272,109,o),
(256,59,o),
(224,11,cs),
(219,2,o),
(201,-4,o),
(194,7,cs),
(190,13,o),
(194,27,o),
(194,35,cs),
(194,42,o),
(195,48,o),
(195,55,cs),
(195,101,o),
(186,141,o),
(169,176,cs),
(147,220,o),
(121,266,o),
(96,306,cs),
(79,334,o),
(59,358,o),
(41,386,cs),
(31,401,o),
(22,418,o),
(14,438,c),
(29,480,o),
(44,518,o),
(64,557,cs),
(66,562,o),
(70,564,o),
(75,564,cs),
(80,564,o),
(83,562,o),
(85,557,cs),
(97,532,o),
(107,514,o),
(119,494,cs),
(124,486,o),
(138,479,o),
(163,473,c),
(166,501,o),
(182,529,o),
(212,557,cs),
(246,589,o),
(272,605,o),
(292,607,cs),
(301,607,ls),
(334,607,o),
(350,595,o),
(350,569,cs),
(350,564,ls),
(350,543,o),
(338,525,o),
(318,525,cs),
(310,525,o),
(305,527,o),
(299,530,cs),
(286,536,o),
(275,539,o),
(266,539,cs),
(257,539,o),
(250,536,o),
(246,530,cs),
(238,520,o),
(233,513,o),
(233,508,c),
(243,489,o),
(256,479,o),
(271,479,cs),
(296,479,o),
(330,505,o),
(342,516,cs),
(358,530,o),
(357,537,o),
(365,552,cs),
(367,556,o),
(374,562,o),
(379,562,cs)
);
}
);
width = 414;
},
{
associatedMasterId = "1467EB51-6BD4-4CFC-AEAA-3E4EB1A95CFA";
attr = {
color = 1;
};
layerId = "2349536B-0468-4C33-9919-83F7740826AE";
name = "11 Jan 22, 23:08";
shapes = (
{
attr = {
gradient = {
colors = (
(
(210,46,31,128),
0
),
(
(210,46,31,255),
1
)
);
end = (0.5239,0.618);
start = (0.8312,0.0709);
};
};
closed = 1;
nodes = (
(139,449,o),
(171,404,o),
(201,364,cs),
(274,264,o),
(293,115,o),
(219,4,c),
(217,0,o),
(209,-4,o),
(209,-2,cs),
(223,133,o),
(159,227,o),
(107,307,cs),
(80,349,o),
(46,388,o),
(25,438,c),
(40,477,o),
(55,518,o),
(74,556,c),
(88,529,o),
(95,509,o),
(105,495,cs)
);
},
{
attr = {
gradient = {
colors = (
(
(210,46,31,128),
0
),
(
(210,46,31,255),
1
)
);
end = (0.6082,0.3178);
start = (-0.0252,0.5163);
};
};
closed = 1;
nodes = (
(148,379,o),
(124,435,o),
(105,495,c),
(118,477,o),
(136,467,o),
(177,459,c),
(174,521,o),
(266,599,o),
(301,601,cs),
(369,605,o),
(351,526,o),
(312,544,cs),
(248,574,o),
(220,519,o),
(228,504,cs),
(270,428,o),
(373,504,o),
(380,538,cs),
(381,542,o),
(391,559,o),
(390,551,cs),
(379,422,o),
(339,337,o),
(232,355,cs),
(220,357,o),
(211,354,o),
(210,351,c)
);
}
);
width = 414;
},
{
associatedMasterId = "EF321139-F770-433D-B2B6-C3EFA1B16465";
attr = {
color = 1;
};
layerId = "C090030E-70D2-46A7-BD33-73EAF19D6E2C";
name = "11 Jan 22, 23:12";
shapes = (
{
attr = {
gradient = {
colors = (
(
(210,46,31,128),
0
),
(
(210,46,31,255),
1
)
);
end = (0.5239,0.618);
start = (0.8312,0.0709);
};
};
closed = 1;
nodes = (
(216,358,ls),
(251,309,o),
(272,243,o),
(272,163,cs),
(272,109,o),
(256,59,o),
(224,11,cs),
(219,2,o),
(201,-4,o),
(194,7,cs),
(190,13,o),
(194,27,o),
(194,35,cs),
(194,42,o),
(195,48,o),
(195,55,cs),
(195,101,o),
(186,141,o),
(169,176,cs),
(147,220,o),
(121,266,o),
(96,306,cs),
(79,334,o),
(59,358,o),
(41,386,cs),
(31,401,o),
(22,418,o),
(14,438,c),
(29,480,o),
(44,518,o),
(64,557,cs),
(66,562,o),
(70,564,o),
(75,564,cs),
(80,564,o),
(83,562,o),
(85,557,cs),
(97,532,o),
(107,514,o),
(119,494,c)
);
},
{
attr = {
gradient = {
colors = (
(
(210,46,31,128),
0
),
(
(210,46,31,255),
1
)
);
end = (0.6082,0.3178);
start = (-0.0252,0.5163);
};
};
closed = 1;
nodes = (
(119,494,l),
(124,486,o),
(138,479,o),
(163,473,c),
(166,501,o),
(182,529,o),
(212,557,cs),
(246,589,o),
(272,605,o),
(292,607,cs),
(301,607,ls),
(334,607,o),
(350,595,o),
(350,569,cs),
(350,564,ls),
(350,543,o),
(338,525,o),
(318,525,cs),
(310,525,o),
(305,527,o),
(299,530,cs),
(286,536,o),
(275,539,o),
(266,539,cs),
(257,539,o),
(250,536,o),
(246,530,cs),
(238,520,o),
(233,513,o),
(233,508,c),
(243,489,o),
(256,479,o),
(271,479,cs),
(296,479,o),
(330,505,o),
(342,516,cs),
(358,530,o),
(357,537,o),
(365,552,cs),
(367,556,o),
(374,562,o),
(379,562,cs),
(391,562,o),
(391,559,o),
(391,549,cs),
(391,547,ls),
(385,483,o),
(371,432,o),
(348,394,cs),
(329,364,o),
(301,343,o),
(255,343,cs),
(244,343,o),
(235,345,o),
(225,346,cs),
(207,346,l)
);
}
);
width = 414;
}
);
unicode = 1780;
}
{
glyphname = "five-persian";
layers = (
{
layerId = "1467EB51-6BD4-4CFC-AEAA-3E4EB1A95CFA";
shapes = (
{
closed = 1;
nodes = (
(452,161,o),
(339,-14,o),
(263,42,cs),
(196,92,o),
(81,-97,o),
(34,66,cs),
(10,148,o),
(112,354,o),
(155,423,c),
(146,430,o),
(144,432,o),
(136,439,c),
(144,487,o),
(151,510,o),
(165,556,c),
(246,487,o),
(357,407,o),
(401,310,c)
);
},
{
closed = 1;
nodes = (
(339,281,o),
(253,340,o),
(172,410,c),
(130,350,o),
(4,94,o),
(153,113,cs),
(234,123,o),
(221,182,o),
(319,147,cs),
(339,140,o),
(365,161,o),
(376,177,c)
);
}
);
width = 444;
},
{
layerId = "EF321139-F770-433D-B2B6-C3EFA1B16465";
shapes = (
{
closed = 1;
nodes = (
(413,297,o),
(416,267,o),
(416,238,cs),
(416,165,o),
(390,104,o),
(354,66,cs),
(339,50,o),
(316,32,o),
(288,32,cs),
(275,32,o),
(263,36,o),
(251,45,cs),
(244,50,o),
(237,52,o),
(230,52,cs),
(223,52,o),
(216,50,o),
(208,46,cs),
(188,35,o),
(166,24,o),
(145,14,c),
(145,15,l),
(126,6,o),
(109,1,o),
(93,1,cs),
(56,1,o),
(39,24,o),
(25,74,cs),
(22,84,o),
(21,95,o),
(21,107,cs),
(21,126,o),
(23,142,o),
(27,159,cs),
(47,243,o),
(86,324,o),
(122,393,cs),
(127,402,o),
(132,411,o),
(137,419,c),
(131,425,ls),
(128,428,o),
(122,433,o),
(123,440,cs),
(126,460,o),
(130,480,o),
(135,498,cs),
(151,555,ls),
(153,563,o),
(162,568,o),
(170,561,cs),
(297,452,ls),
(340,415,o),
(379,371,o),
(402,318,c)
);
},
{
closed = 1;
nodes = (
(95,155,o),
(102,134,o),
(134,134,cs),
(167,134,o),
(202,144,o),
(215,162,cs),
(222,174,o),
(236,180,o),
(255,180,cs),
(278,180,o),
(296,174,o),
(316,167,c),
(317,166,o),
(319,166,o),
(322,166,cs),
(327,166,o),
(331,167,o),
(336,171,cs),
(343,176,o),
(349,180,o),
(354,186,c),
(337,231,o),
(311,268,o),
(276,300,cs),
(240,331,o),
(208,362,o),
(172,393,c),
(143,349,o),
(116,292,o),
(102,234,cs),
(97,216,o),
(95,201,o),
(95,185,cs)
);
}
);
width = 444;
},
{
associatedMasterId = "1467EB51-6BD4-4CFC-AEAA-3E4EB1A95CFA";
attr = {
color = 1;
};
layerId = "4FE9C99E-DCF7-4F22-AC0C-8EF0445AC0FE";
name = "11 Jan 22, 23:13";
shapes = (
{
attr = {
gradient = {
colors = (
(
(210,46,31,128),
0
),
(
(210,46,31,255),
1
)
);
end = (0.6269,0.4077);
start = (0.034,0.5188);
};
};
closed = 1;
nodes = (
(344,138,o),
(378,172,o),
(414,230,c),
(413,106,o),
(326,-4,o),
(263,42,cs),
(196,92,o),
(81,-97,o),
(34,66,cs),
(10,149,o),
(115,360,o),
(157,426,c),
(174,413,l),
(134,358,o),
(2,94,o),
(153,113,cs),
(234,123,o),
(221,182,o),
(319,147,cs)
);
},
{
attr = {
gradient = {
colors = (
(
(210,46,31,255),
0
),
(
(210,46,31,255),
1
)
);
end = (0.2732,0.4338);
start = (0.8407,0.2198);
};
};
closed = 1;
nodes = (
(380,161,l),
(363,274,o),
(155,427,o),
(136,439,c),
(144,487,o),
(151,510,o),
(165,556,c),
(246,487,o),
(357,407,o),
(401,310,c),
(410,284,o),
(414,256,o),
(414,230,c)
);
}
);
width = 444;
},
{
associatedMasterId = "EF321139-F770-433D-B2B6-C3EFA1B16465";
attr = {
color = 1;
};
layerId = "7632D3D5-CAE4-4B28-BC3D-A20B4561173B";
name = "11 Jan 22, 23:14";
shapes = (
{
attr = {
gradient = {
colors = (
(
(210,46,31,128),
0
),
(
(210,46,31,255),
1
)
);
end = (0.6269,0.4077);
start = (0.034,0.5188);
};
};
closed = 1;
nodes = (
(416,238,c),
(416,165,o),
(390,104,o),
(354,66,cs),
(339,50,o),
(316,32,o),
(288,32,cs),
(275,32,o),
(263,36,o),
(251,45,cs),
(244,50,o),
(237,52,o),
(230,52,cs),
(223,52,o),
(216,50,o),
(208,46,cs),
(188,35,o),
(166,24,o),
(145,14,c),
(145,15,l),
(126,6,o),
(109,1,o),
(93,1,cs),
(56,1,o),
(39,24,o),
(25,74,cs),
(22,84,o),
(21,95,o),
(21,107,cs),
(21,126,o),
(23,142,o),
(27,159,cs),
(47,243,o),
(86,324,o),
(122,393,cs),
(129,405,o),
(136,418,o),
(142,427,c),
(177,401,l),
(146,356,o),
(117,296,o),
(102,234,cs),
(97,216,o),
(95,201,o),
(95,185,cs),
(95,155,o),
(102,134,o),
(134,134,cs),
(167,134,o),
(202,144,o),
(215,162,cs),
(222,174,o),
(236,180,o),
(255,180,cs),
(278,180,o),
(296,174,o),
(316,167,c),
(317,166,o),
(319,166,o),
(322,166,cs),
(327,166,o),
(331,167,o),
(336,171,cs),
(348,179,o),
(357,185,o)
);
},
{
attr = {
gradient = {
colors = (
(
(210,46,31,255),
0
),
(
(210,46,31,255),
1
)
);
end = (0.2732,0.4338);
start = (0.8407,0.2198);
};
};
closed = 1;
nodes = (
(359,170,l),
(343,222,o),
(315,264,o),
(276,300,cs),
(228,346,o),
(179,386,o),
(131,425,c),
(128,427,o),
(122,433,o),
(123,440,cs),
(126,460,o),
(130,480,o),
(135,498,cs),
(151,555,ls),
(153,563,o),
(162,568,o),
(170,561,cs),
(297,452,ls),
(340,415,o),
(379,371,o),
(402,318,c),
(413,297,o),
(416,267,o),
(416,238,c)
);
}
);
width = 444;
}
);
unicode = 1781;
}
{
glyphname = "six-persian";
layers = (
{
layerId = "1467EB51-6BD4-4CFC-AEAA-3E4EB1A95CFA";
shapes = (
{
closed = 1;
nodes = (
(180,212,o),
(174,208,o),
(37,10,cs),
(35,7,o),
(29,-2,o),
(25,-2,c),
(24,-1,l),
(24,90,o),
(134,221,o),
(193,284,c),
(7,359,o),
(225,579,o),
(291,584,cs),
(386,590,o),
(362,471,o),
(307,499,cs),
(218,544,o),
(179,461,o),
(190,439,cs),
(213,394,o),
(281,363,o),
(348,401,cs),
(384,421,o),
(413,444,o),
(451,457,c),
(440,406,o),
(411,373,o),
(377,335,c)
);
}
);
width = 476;
},
{
layerId = "EF321139-F770-433D-B2B6-C3EFA1B16465";
shapes = (
{
closed = 1;
nodes = (
(359,507,o),
(341,480,o),
(317,480,cs),
(308,480,o),
(302,483,o),
(295,486,cs),
(278,495,o),
(263,500,o),
(249,500,cs),
(235,500,o),
(224,494,o),
(217,484,cs),
(204,468,o),
(198,455,o),
(198,446,cs),
(198,443,l),
(209,424,o),
(230,410,o),
(252,401,cs),
(262,398,o),
(270,396,o),
(281,396,cs),
(318,396,o),
(343,417,o),
(368,431,cs),
(390,445,o),
(410,457,o),
(436,467,cs),
(446,470,o),
(455,463,o),
(452,453,cs),
(440,399,o),
(409,365,o),
(378,330,c),
(375,328,ls),
(334,303,o),
(298,278,o),
(262,255,cs),
(236,237,o),
(212,219,o),
(190,199,cs),
(136,145,o),
(95,83,o),
(49,17,cs),
(43,9,o),
(29,-9,o),
(18,6,cs),
(16,8,o),
(16,10,o),
(16,13,cs),
(16,36,o),
(21,60,o),
(32,86,cs),
(52,135,o),
(97,193,o),
(128,233,cs),
(143,253,o),
(157,270,o),
(171,285,c),
(132,304,o),
(109,330,o),
(109,366,cs),
(109,372,ls),
(109,425,o),
(141,478,o),
(170,511,cs),
(182,525,o),
(196,539,o),
(211,551,cs),
(242,576,o),
(266,589,o),
(285,591,cs),
(293,591,ls),
(332,591,o),
(359,567,o),
(359,532,cs),
(359,529,ls)
);
}
);
width = 476;
},
{
associatedMasterId = "1467EB51-6BD4-4CFC-AEAA-3E4EB1A95CFA";
attr = {
color = 1;
};
layerId = "CC6ECEA1-FB45-4DD0-A38D-DDB961BAF7CB";
name = "11 Jan 22, 23:17";
shapes = (
{
attr = {
gradient = {
colors = (
(
(210,46,31,128),
0
),
(
(210,46,31,255),
1
)
);
end = (0.635,0.868);
start = (0.375,0.2174);
};
};
closed = 1;
nodes = (
(217,276,l),
(-10,341,o),
(222,579,o),
(291,584,cs),
(386,590,o),
(362,471,o),
(307,499,cs),
(218,544,o),
(179,461,o),
(190,439,cs),
(213,394,o),
(281,363,o),
(348,401,c)
);
},
{
attr = {
gradient = {
colors = (
(
(210,46,31,128),
0
),
(
(210,46,31,255),
1
)
);
end = (0.5702,0.7073);
start = (0.0238,0.0056);
};
};
closed = 1;
nodes = (
(246,338,o),
(297,371,o),
(348,401,c),
(384,421,o),
(413,444,o),
(451,457,c),
(440,406,o),
(411,373,o),
(377,335,c),
(180,212,o),
(174,208,o),
(37,10,cs),
(35,7,o),
(29,-2,o),
(24,-1,c),
(24,94,o),
(145,234,o),
(201,292,cs)
);
}
);
width = 476;
},
{
associatedMasterId = "EF321139-F770-433D-B2B6-C3EFA1B16465";
attr = {
color = 1;
};
layerId = "59A9FB08-B778-4D03-B42E-1DED57839672";
name = "11 Jan 22, 23:18";
shapes = (
{
attr = {
gradient = {
colors = (
(
(210,46,31,128),
0
),
(
(210,46,31,255),
1
)
);
end = (0.5702,0.7073);
start = (0.0238,0.0056);
};
};
closed = 1;
nodes = (
(239,353,o),
(296,389,o),
(354,422,c),
(382,440,o),
(405,455,o),
(436,467,cs),
(446,470,o),
(455,463,o),
(452,453,cs),
(440,399,o),
(409,365,o),
(378,330,c),
(375,328,ls),
(334,303,o),
(298,278,o),
(262,255,cs),
(236,237,o),
(212,219,o),
(190,199,cs),
(136,145,o),
(95,83,o),
(49,17,cs),
(43,9,o),
(29,-9,o),
(18,6,cs),
(16,8,o),
(16,10,o),
(16,13,cs),
(16,36,o),
(21,60,o),
(32,86,cs),
(52,135,o),
(97,193,o),
(128,233,cs),
(147,258,o),
(164,278,o),
(181,295,cs)
);
},
{
attr = {
gradient = {
colors = (
(
(210,46,31,128),
0
),
(
(210,46,31,255),
1
)
);
end = (0.635,0.868);
start = (0.375,0.2174);
};
};
closed = 1;
nodes = (
(189,277,l),
(139,297,o),
(109,325,o),
(109,366,cs),
(109,372,ls),
(109,425,o),
(141,478,o),
(170,511,cs),
(182,525,o),
(196,539,o),
(211,551,cs),
(242,576,o),
(266,589,o),
(285,591,cs),
(293,591,ls),
(332,591,o),
(359,567,o),
(359,532,cs),
(359,529,ls),
(359,507,o),
(341,480,o),
(317,480,cs),
(308,480,o),
(302,483,o),
(295,486,cs),
(278,495,o),
(263,500,o),
(249,500,cs),
(235,500,o),
(224,494,o),
(217,484,cs),
(204,468,o),
(198,455,o),
(198,446,cs),
(198,443,l),
(209,424,o),
(230,410,o),
(252,401,cs),
(262,398,o),
(270,396,o),
(281,396,cs),
(324,396,o),
(351,425,o),
(381,437,c)
);
}
);
width = 476;
}
);
unicode = 1782;
}
